<?xml version="1.0" encoding="UTF-8" standalone="no"?><!-- Generator: Gravit.io --><svg xmlns="http://www.w3.org/2000/svg" xmlns:xlink="http://www.w3.org/1999/xlink" style="isolation:isolate" viewBox="535.111 347.459 692.03 642.389" width="692.03pt" height="642.389pt"><defs><clipPath id="_clipPath_svsqQOJjK7tD0C2a3npR6EJB2cpvaueN"><rect x="535.111" y="347.459" width="692.03" height="642.389"/></clipPath></defs><g clip-path="url(#_clipPath_svsqQOJjK7tD0C2a3npR6EJB2cpvaueN)"><path d=" M 988.991 513.696 C 988.991 513.696 991.021 500.602 986.011 495.588 C 980.991 490.575 969.411 488.609 969.411 488.609 C 969.411 488.609 965.331 500.809 967.381 505.204 L 967.481 505.391 C 968.251 506.881 973.341 517.069 975.001 529.285 C 977.871 550.418 957.681 609.221 938.361 600.42 C 919.051 591.619 889.741 526.428 889.741 526.428 L 897.731 613.941 C 897.731 613.941 926.471 645.711 970.341 637.697 C 999.831 632.311 988.991 513.696 988.991 513.696 Z " fill="rgb(253,94,90)"/><path d=" M 787.601 539.661 L 787.601 539.661 C 787.601 539.661 705.891 619.879 705.891 637.198 C 705.891 654.517 719.811 655.267 719.811 655.267 L 794.261 599.547 C 797.781 589.723 796.901 544.391 787.601 539.661 Z " fill="rgb(253,94,90)"/><path d=" M 592.641 766.094 L 573.661 766.094 L 573.661 760.765 L 592.641 760.765 L 592.641 766.094 Z " fill="rgb(0,0,0)"/><path d=" M 604.931 841.255 L 585.951 841.255 L 585.951 835.926 L 604.931 835.926 L 604.931 841.255 Z " fill="rgb(0,0,0)"/><path d=" M 1227.141 960.553 C 1227.141 976.732 1072.231 989.848 881.131 989.848 C 690.031 989.848 535.111 976.732 535.111 960.553 C 535.111 944.373 690.031 931.257 881.131 931.257 C 1072.231 931.257 1227.141 944.373 1227.141 960.553 Z " fill="rgb(185,188,252)"/><path d=" M 787.601 539.661 L 797.091 625.028 L 807.701 720.686 L 903.061 720.686 L 901.831 617.231 L 889.741 526.428 C 889.741 526.428 817.561 515.786 787.601 539.661 Z " fill="rgb(66,33,11)"/><path d=" M 851.381 643.093 L 851.271 655.267 L 845.331 657.608 L 845.331 642.932 L 842.221 634.804 L 797.851 631.869 L 807.701 720.686 L 903.061 720.686 L 902.021 633.214 L 853.991 633.901 L 851.381 643.093 Z " fill="rgb(33,2,5)"/><path d=" M 818.771 702.615 C 818.771 702.615 718.251 729.323 717.911 767.928 C 717.571 806.534 807.231 932.492 807.231 932.492 L 776.411 945.448 L 834.051 942.392 L 770.461 788.141 L 859.591 728.193 L 956.061 779.977 L 881.381 939.691 L 938.321 941.084 C 938.321 941.084 899.141 932.653 904.141 926.082 C 905.661 924.091 995.241 793.687 998.141 767.429 C 1001.041 741.171 894.821 698.806 894.821 698.806 L 818.771 702.615 Z " fill="rgb(49,48,44)"/><linearGradient id="_lgradient_129" x1="0" y1="0" x2="1" y2="0" gradientTransform="matrix(-121.935,-172.741,172.741,-121.935,724.691,860.266)" gradientUnits="userSpaceOnUse"><stop offset="0%" stop-opacity="1" style="stop-color:rgb(53,21,31)"/><stop offset="100%" stop-opacity="1" style="stop-color:rgb(191,0,10)"/></linearGradient><path d=" M 577.991 703.81 L 605.971 871.009 L 725.201 871.009 L 743.191 707.544 L 577.991 703.81 Z " fill="url(#_lgradient_129)"/><path d=" M 743.191 707.544 L 577.991 703.81 L 579.071 710.294 L 602.761 710.705 L 608.631 733.786 L 618.851 733.786 L 618.851 710.984 L 686.441 712.156 L 685.241 733.786 L 695.671 733.786 L 701.611 712.419 L 742.571 713.13 L 743.191 707.544 Z " fill="rgb(49,48,44)"/><path d=" M 716.401 864.84 L 713.491 857.756 L 706.911 857.756 L 706.911 864.84 L 627.551 864.84 L 628.191 857.756 L 621.471 857.756 L 618.291 864.84 L 604.931 864.84 L 605.971 871.009 L 725.201 871.009 L 725.881 864.84 L 716.401 864.84 Z " fill="rgb(49,48,44)"/><path d=" M 716.421 677.853 L 701.681 677.853 L 701.681 674.692 L 716.421 674.692 L 716.421 677.853 Z " fill="rgb(0,0,0)"/><path d=" M 966.441 677.853 L 981.181 677.853 L 981.181 674.692 L 966.441 674.692 L 966.441 677.853 Z " fill="rgb(0,0,0)"/><path d=" M 581.651 816.72 C 580.061 816.72 578.661 815.582 578.371 813.965 L 564.381 734.363 C 564.071 732.551 565.281 730.825 567.091 730.506 C 568.911 730.192 570.631 731.398 570.951 733.21 L 584.931 812.812 C 585.251 814.624 584.041 816.35 582.231 816.669 C 582.031 816.703 581.841 816.72 581.651 816.72 Z " fill="rgb(49,48,44)"/><path d=" M 610.521 972.594 C 609.581 972.594 608.741 971.931 608.561 970.976 L 579.801 823.318 C 579.591 822.235 580.301 821.185 581.381 820.975 C 582.471 820.76 583.521 821.472 583.731 822.555 L 612.481 970.213 C 612.691 971.296 611.981 972.345 610.901 972.556 C 610.771 972.581 610.641 972.594 610.521 972.594 Z " fill="rgb(0,0,0)"/><path d=" M 724.471 976.653 C 725.401 976.584 726.191 975.86 726.301 974.895 L 743.991 825.506 C 744.121 824.41 743.331 823.416 742.241 823.287 C 741.141 823.153 740.151 823.941 740.021 825.036 L 722.331 974.425 C 722.201 975.521 722.991 976.515 724.081 976.644 C 724.211 976.66 724.341 976.663 724.471 976.653 Z " fill="rgb(0,0,0)"/><path d=" M 859.541 683.827 L 815.131 683.827 L 815.131 674.692 L 859.541 674.692 L 859.541 683.827 Z " fill="rgb(0,0,0)"/><path d=" M 837.341 680.274 L 842.221 680.274 L 842.221 756.213 L 837.341 756.213 L 837.341 680.274 Z " fill="rgb(0,0,0)"/><path d=" M 653.921 910.31 L 645.931 910.31 L 645.931 513.696 L 653.921 513.696 L 653.921 910.31 Z " fill="rgb(0,0,0)"/><path d=" M 657.041 604.78 L 642.381 604.78 L 642.381 578.578 L 657.041 578.578 L 657.041 604.78 Z " fill="rgb(0,0,0)"/><path d=" M 731.621 555.712 C 722.851 572.754 679.171 567.759 634.051 544.554 C 588.941 521.349 559.471 488.723 568.231 471.68 C 577.001 454.637 620.681 459.633 665.801 482.837 C 710.911 506.042 740.381 538.669 731.621 555.712 Z " fill="rgb(255,175,0)"/><path d=" M 694.311 536.524 C 689.551 545.784 665.811 543.069 641.301 530.462 C 616.791 517.854 600.781 500.127 605.541 490.868 C 610.301 481.608 634.031 484.322 658.551 496.93 C 683.061 509.537 699.071 527.264 694.311 536.524 Z " fill="rgb(255,207,110)"/><path d=" M 575.911 963.093 L 651.541 858.931 L 648.311 856.582 L 570.971 963.093 L 575.911 963.093 Z " fill="rgb(0,0,0)"/><path d=" M 732.191 963.093 L 651.521 856.55 L 648.331 858.962 L 727.181 963.093 L 732.191 963.093 Z " fill="rgb(0,0,0)"/><path d=" M 1002.891 544.508 C 1012.001 561.371 1055.571 555.499 1100.211 531.393 C 1144.861 507.286 1173.671 474.074 1164.561 457.211 C 1155.451 440.348 1111.881 446.22 1067.241 470.326 C 1022.601 494.433 993.791 527.645 1002.891 544.508 Z " fill="rgb(255,175,0)"/><path d=" M 1039.811 524.575 C 1044.761 533.737 1068.431 530.546 1092.681 517.449 C 1116.941 504.351 1132.591 486.307 1127.641 477.144 C 1122.701 467.982 1099.021 471.173 1074.771 484.27 C 1050.511 497.368 1034.861 515.412 1039.811 524.575 Z " fill="rgb(255,207,110)"/><path d=" M 1073.271 506.504 C 1074.451 508.685 1080.091 507.926 1085.861 504.808 C 1091.631 501.691 1095.361 497.396 1094.181 495.215 C 1093.001 493.034 1087.371 493.793 1081.591 496.911 C 1075.821 500.029 1072.101 504.324 1073.271 506.504 Z " fill="rgb(0,0,0)"/><path d=" M 1087.701 897.474 L 1095.691 897.313 L 1087.721 500.779 L 1079.731 500.94 L 1087.701 897.474 Z " fill="rgb(0,0,0)"/><path d=" M 1175.501 953.609 L 1092.231 843.644 L 1089.051 846.057 L 1170.481 953.609 L 1175.501 953.609 Z " fill="rgb(0,0,0)"/><path d=" M 1014.141 953.609 L 1092.261 846.024 L 1089.021 843.677 L 1009.211 953.609 L 1014.141 953.609 Z " fill="rgb(0,0,0)"/><path d=" M 1020.001 905.876 L 1025.861 905.75 L 1021.241 659.709 L 1015.381 659.835 L 1020.001 905.876 Z " fill="rgb(0,0,0)"/><path d=" M 1084.551 950.16 L 1023.321 863.673 L 1020.991 865.565 L 1080.871 950.16 L 1084.551 950.16 Z " fill="rgb(0,0,0)"/><path d=" M 965.901 950.16 L 1023.341 865.539 L 1020.971 863.699 L 962.281 950.16 L 965.901 950.16 Z " fill="rgb(0,0,0)"/><path d=" M 1078.451 592.068 L 1093.101 591.773 L 1092.571 565.578 L 1077.921 565.872 L 1078.451 592.068 Z " fill="rgb(0,0,0)"/><path d=" M 1022.621 668.02 L 1014.141 668.02 L 1014.141 659.541 L 1022.621 659.541 L 1022.621 668.02 Z " fill="rgb(0,0,0)"/><path d=" M 1032.181 657.571 C 1028.681 657.571 1025.671 655.47 1024.351 652.461 C 1023.411 650.326 1021.211 649.021 1018.881 649.021 C 1016.551 649.021 1014.361 650.326 1013.421 652.461 C 1012.091 655.47 1009.091 657.571 1005.591 657.571 L 962.571 657.571 L 962.571 661.512 L 1079.731 661.512 L 1079.731 657.571 L 1032.181 657.571 Z " fill="rgb(224,153,11)"/><path d=" M 823.891 543.136 C 822.111 543.136 820.661 544.579 820.661 546.361 C 820.661 547.162 820.951 547.895 821.441 548.459 L 775.191 622.913 L 775.191 622.92 C 774.841 623.493 775.021 624.24 775.591 624.59 C 776.161 624.939 776.911 624.759 777.261 624.187 L 822.951 549.449 C 823.251 549.538 823.561 549.586 823.891 549.586 C 825.671 549.586 827.111 548.142 827.111 546.361 C 827.111 544.579 825.671 543.136 823.891 543.136 Z " fill="rgb(251,134,3)"/><path d=" M 921.561 474.336 C 921.771 476.105 923.371 477.371 925.141 477.164 C 925.931 477.071 926.631 476.696 927.131 476.15 L 1006.461 513.42 L 1006.471 513.424 C 1007.081 513.704 1007.801 513.439 1008.081 512.83 C 1008.361 512.221 1008.091 511.499 1007.481 511.219 L 927.941 474.528 C 927.991 474.225 928.001 473.908 927.971 473.586 C 927.761 471.817 926.161 470.551 924.391 470.758 C 922.621 470.965 921.351 472.567 921.561 474.336 Z " fill="rgb(251,134,3)"/><path d=" M 705.891 637.198 C 705.891 637.198 705.341 657.608 723.651 657.608 C 741.961 657.608 762.241 628.863 769.171 621.934 C 776.101 615.006 777.821 614.951 781.001 611.774 C 784.171 608.597 791.381 611.209 790.171 606.535 C 789.281 603.121 794.511 600.624 791.891 598.001 C 789.261 595.378 791.751 595.545 790.701 594.501 C 789.661 593.458 800.401 587.001 798.711 585.307 C 797.021 583.614 771.801 597.334 769.171 604.78 C 766.551 612.225 708.531 626.49 705.891 637.198 Z " fill="rgb(252,117,117)"/><linearGradient id="_lgradient_130" x1="0" y1="0" x2="1" y2="0" gradientTransform="matrix(-57.318,-125.959,125.959,-57.318,822.681,785.32)" gradientUnits="userSpaceOnUse"><stop offset="0%" stop-opacity="1" style="stop-color:rgb(53,21,31)"/><stop offset="100%" stop-opacity="1" style="stop-color:rgb(191,0,10)"/></linearGradient><path d=" M 705.051 640.91 L 726.761 740.084 L 819.331 740.084 L 833.301 643.124 L 705.051 640.91 Z " fill="url(#_lgradient_130)"/><path d=" M 833.301 643.124 L 705.051 640.91 L 705.891 644.756 L 724.281 644.999 L 728.831 658.69 L 736.761 658.69 L 736.761 645.165 L 789.241 645.86 L 788.311 658.69 L 796.411 658.69 L 801.021 646.016 L 832.821 646.437 L 833.301 643.124 Z " fill="rgb(49,48,44)"/><path d=" M 812.501 736.425 L 810.241 732.224 L 805.131 732.224 L 805.131 736.425 L 743.521 736.425 L 744.021 732.224 L 738.801 732.224 L 736.331 736.425 L 725.961 736.425 L 726.761 740.084 L 819.331 740.084 L 819.861 736.425 L 812.501 736.425 Z " fill="rgb(81,48,90)"/><linearGradient id="_lgradient_131" x1="0" y1="0" x2="1" y2="0" gradientTransform="matrix(-57.319,-235.645,235.645,-57.319,951.381,816.755)" gradientUnits="userSpaceOnUse"><stop offset="0%" stop-opacity="1" style="stop-color:rgb(53,21,31)"/><stop offset="100%" stop-opacity="1" style="stop-color:rgb(191,0,10)"/></linearGradient><path d=" M 977.821 640.91 L 956.101 740.084 L 863.531 740.084 L 849.561 643.124 L 977.821 640.91 Z " fill="url(#_lgradient_131)"/><path d=" M 849.561 643.124 L 977.821 640.91 L 976.971 644.756 L 958.591 644.999 L 954.031 658.69 L 946.101 658.69 L 946.101 645.165 L 893.621 645.86 L 894.551 658.69 L 886.451 658.69 L 881.851 646.016 L 850.041 646.437 L 849.561 643.124 Z " fill="rgb(49,48,44)"/><path d=" M 870.361 736.425 L 872.621 732.224 L 877.731 732.224 L 877.731 736.425 L 939.341 736.425 L 938.841 732.224 L 944.061 732.224 L 946.531 736.425 L 956.901 736.425 L 956.101 740.084 L 863.531 740.084 L 863.001 736.425 L 870.361 736.425 Z " fill="rgb(81,48,90)"/><path d=" M 990.591 843.943 C 990.591 923.536 927.451 988.058 849.561 988.058 C 771.681 988.058 708.541 923.536 708.541 843.943 C 708.541 764.351 771.681 699.829 849.561 699.829 C 927.451 699.829 990.591 764.351 990.591 843.943 Z " fill="rgb(49,48,44)"/><line x1="991.421" y1="845.592" x2="991.421" y2="845.585"/><path d=" M 988.981 817.603 C 988.141 812.203 985.181 801.01 982.561 794.151 C 971.731 764.5 952.421 740.76 928.411 724.441 C 984.051 764.161 987.811 821.897 988.331 823.385 C 989.491 829.818 989.741 844.404 989.721 843.72 C 989.731 844.191 989.591 849.212 989.591 849.28 C 986.421 920.55 935.381 975.193 870.291 985.637 C 870.221 985.646 799.341 996.643 748.361 944.316 C 789.721 988.783 856.571 1002.614 913.221 973.573 C 960.221 949.49 989.091 901.843 991.291 851.218 C 991.291 851.148 991.411 845.916 991.421 845.592 C 991.621 831.03 988.841 816.746 988.981 817.603 Z " fill="rgb(158,0,93)"/><line x1="991.421" y1="845.585" x2="991.421" y2="845.578"/><path d=" M 962.571 843.943 C 962.571 907.719 911.971 959.42 849.561 959.42 C 787.151 959.42 736.561 907.719 736.561 843.943 C 736.561 780.168 787.151 728.468 849.561 728.468 C 911.971 728.468 962.571 780.168 962.571 843.943 Z " fill="rgb(232,229,209)"/><path d=" M 849.561 936.025 C 812.531 936.245 779.581 913.413 765.591 879.097 C 740.871 818.673 784.081 750.544 849.561 750.169 C 850.501 750.163 851.261 750.917 851.271 751.852 C 851.281 753.506 849.491 753.587 849.561 753.556 C 786.371 753.175 743.141 818.867 766.771 878.624 C 780.031 912.291 812.201 935.805 849.561 936.025 Z " fill="rgb(247,243,228)"/><path d=" M 840.451 472.364 C 840.451 472.364 838.241 463.429 841.991 460.991 C 845.741 458.552 854.131 468.188 851.431 473.061 C 848.741 477.935 842.841 478.57 840.451 472.364 Z " fill="rgb(253,94,90)"/><path d=" M 855.551 523.045 L 847.241 502.2 L 807.701 494.805 C 807.701 494.805 825.801 535.542 832.831 541.641 C 834.001 542.657 835.461 543.41 837.081 543.928 C 849.291 547.811 860.281 534.943 855.551 523.045 Z " fill="rgb(252,117,117)"/><path d=" M 851.381 512.578 L 847.241 502.2 L 807.701 494.805 C 807.701 494.805 811.351 503.011 816.001 512.607 C 821.971 516.066 828.061 518.397 833.031 519.367 C 841.341 520.989 847.941 518.077 851.381 512.578 Z " fill="rgb(253,94,90)"/><path d=" M 816.201 439.926 C 816.201 439.926 826.201 437.677 831.761 443.731 C 837.321 449.786 853.991 484.21 853.991 493.897 C 853.991 503.584 845.421 510.158 833.031 508.081 C 820.641 506.006 801.271 496.664 794.281 483.172 C 787.301 469.679 795.871 439.926 816.201 439.926 Z " fill="rgb(252,117,117)"/><path d=" M 836.871 429.603 C 846.561 429.603 850.541 437.764 850.541 437.764 C 850.541 437.764 849.211 433.982 845.231 428.674 C 841.251 423.367 827.051 420.979 817.561 423.367 C 815.271 423.943 812.211 425.532 808.891 427.612 C 806.581 421.89 819.451 417.087 819.451 417.087 C 819.451 417.087 811.131 417.264 806.351 419.292 C 803.311 420.585 798.551 434.857 797.981 435.296 C 797.791 432.776 797.821 429.249 798.611 425.048 C 800.241 416.379 810.661 414.256 810.661 414.256 C 810.661 414.256 804.761 413.903 797.091 419.292 C 791.441 423.266 790.021 435.671 789.671 441.918 C 787.111 444.031 785.451 445.476 785.331 445.583 C 781.421 447.942 779.461 451.663 779.461 458.478 C 779.461 475.344 788.171 473.139 788.171 479.237 C 788.171 485.334 789.961 487.151 796.861 494.675 C 803.771 502.2 807.961 504.599 809.851 505.703 C 812.291 507.13 813.451 507.273 813.451 507.273 L 807.871 495.169 C 807.871 495.169 800.681 491.821 800.681 488.058 C 800.681 484.296 807.541 485.983 808.501 483.258 C 809.451 480.534 797.571 471.215 797.871 470.786 C 798.831 472.412 799.891 473.892 801.051 475.048 C 806.761 480.764 814.491 478.807 814.491 478.807 C 814.491 478.807 810.331 479.095 803.881 472.637 C 797.421 466.178 806.181 447.692 806.181 447.692 C 806.181 447.692 805.291 453.884 806.001 460.327 C 806.711 466.768 814.141 465.229 814.141 465.229 C 810.121 460.36 813.881 444.899 813.881 444.899 C 813.881 444.899 815.331 449.992 819.361 456.891 C 822.911 462.99 833.151 465.944 834.651 465.356 C 833.691 465.607 828.541 461.92 823.501 450.965 C 817.391 437.697 826.261 441.81 826.261 441.81 C 833.981 446.731 839.801 455.83 839.801 455.83 C 840.741 451.456 834.821 439.903 831.701 437.764 C 840.321 437.764 847.621 446.586 847.621 446.586 C 847.621 446.586 847.241 443.778 841.461 438 C 835.691 432.223 831.301 431.726 831.301 431.726 C 831.301 431.726 827.191 429.603 836.871 429.603 Z " fill="rgb(27,43,128)"/><path d=" M 834.651 465.356 C 834.851 465.303 834.961 465.229 834.961 465.229 C 834.961 465.229 834.851 465.279 834.651 465.356 Z " fill="rgb(27,43,128)"/><path d=" M 808.211 437.254 C 808.211 437.254 822.301 437.851 826.261 441.81 C 830.211 445.768 838.161 462.199 838.161 462.199 L 808.211 437.254 Z " fill="rgb(27,43,128)"/><path d=" M 808.501 486.286 C 808.501 486.286 801.751 480.663 798.251 483.518 C 794.761 486.372 799.761 498.481 804.921 497.616 C 810.081 496.751 812.861 491.042 808.501 486.286 Z " fill="rgb(252,117,117)"/><path d=" M 806.661 488.332 C 806.661 488.332 798.611 484.14 798.611 488.332 C 798.611 492.526 803.191 495.741 806.661 492.266 C 810.141 488.793 806.661 488.332 806.661 488.332 Z " fill="rgb(253,94,90)"/><path d=" M 828.881 495.545 C 834.161 494.708 839.551 492.586 843.611 489.171 C 845.021 488.046 846.211 486.683 847.431 485.288 C 846.581 486.915 845.571 488.531 844.201 489.817 C 841.631 492.745 835.261 496.003 828.881 495.545 Z " fill="rgb(255,255,255)"/><path d=" M 812.031 481.155 C 812.001 480.927 811.261 475.532 814.391 471.525 C 817.601 467.426 822.841 468.603 823.071 468.655 C 823.791 468.824 823.541 469.917 822.811 469.749 C 822.621 469.706 818.041 468.692 815.281 472.218 C 812.451 475.839 813.141 480.943 813.141 480.994 C 813.191 481.301 812.971 481.586 812.671 481.63 C 812.351 481.674 812.071 481.455 812.031 481.155 Z " fill="rgb(23,40,102)"/><path d=" M 830.511 464.893 C 831.291 460.267 839.661 459.709 841.221 460.805 C 841.831 461.234 841.181 462.15 840.571 461.724 L 840.571 461.724 C 840.571 461.724 839.401 461.058 835.741 461.815 C 832.131 462.563 831.631 464.984 831.621 465.086 C 831.481 465.816 830.381 465.616 830.511 464.893 Z " fill="rgb(23,40,102)"/><path d=" M 818.361 480.365 C 819.101 479.203 820.221 477.943 821.621 476.787 C 822.371 476.17 823.131 475.637 823.871 475.198 C 822.761 474.024 820.681 474.086 819.121 475.371 C 817.511 476.701 817.071 478.833 818.151 480.135 L 818.361 480.365 Z " fill="rgb(27,43,128)"/><path d=" M 834.771 469.75 C 835.891 468.959 837.411 468.227 839.151 467.697 C 840.071 467.414 840.981 467.214 841.841 467.094 C 841.261 465.584 839.311 464.842 837.381 465.431 C 835.381 466.039 834.161 467.842 834.661 469.456 C 834.691 469.557 834.721 469.656 834.771 469.75 Z " fill="rgb(27,43,128)"/><path d=" M 837.501 480.431 C 835.771 479.477 833.381 478.836 833.301 478.807 C 833.261 478.951 832.581 480.979 832.411 482.709 C 832.931 481.791 833.381 480.622 833.721 479.616 C 834.901 479.976 836.281 480.322 837.501 480.431 Z " fill="rgb(24,40,125)"/><path d=" M 969.411 488.609 C 969.411 488.609 972.631 507.913 975.851 506.22 C 979.061 504.527 978.181 492.556 975.851 490.224 C 973.521 487.892 969.411 488.609 969.411 488.609 Z " fill="rgb(252,117,117)"/><path d=" M 966.831 502.696 C 966.831 502.696 974.661 494.439 977.881 495.588 C 981.101 496.737 970.601 507.273 970.601 507.273 L 970.601 512.486 C 970.601 512.486 965.101 505.946 966.831 502.696 Z " fill="rgb(255,148,148)"/><path d=" M 980.761 490.438 C 980.761 490.438 982.621 503.341 980.761 505.204 C 978.891 507.067 976.691 501.14 975.681 495.721 C 974.661 490.302 974.891 489.482 974.891 489.482 C 974.891 489.482 979.301 488.016 980.761 490.438 Z " fill="rgb(252,117,117)"/><path d=" M 985.161 493.35 C 985.161 493.35 983.371 503.982 981.301 503.982 C 979.231 503.982 979.371 490.438 981.591 490.438 C 983.811 490.438 985.161 493.35 985.161 493.35 Z " fill="rgb(252,117,117)"/><path d=" M 1088.801 588.687 L 1087.441 568.367 C 1087.391 567.619 1087.961 566.972 1088.701 566.922 C 1089.451 566.872 1090.101 567.438 1090.151 568.186 C 1090.161 568.362 1090.221 567.224 1088.801 588.687 Z " fill="rgb(210,210,255)"/><path d=" M 647.671 600.71 L 646.321 581.745 C 646.261 580.996 646.831 580.347 647.571 580.293 C 648.321 580.24 648.971 580.803 649.031 581.551 C 649.041 581.735 649.101 580.618 647.671 600.71 Z " fill="rgb(210,210,255)"/><path d=" M 1091.001 889.854 L 1084.831 597.476 C 1084.811 596.581 1086.171 596.551 1086.191 597.448 C 1086.191 597.448 1090.991 889.71 1091.001 889.854 Z " fill="rgb(210,210,255)"/><path d=" M 649.711 906.195 L 648.691 609.983 C 648.691 608.64 650.721 608.631 650.721 609.975 L 649.711 906.195 Z " fill="rgb(210,210,255)"/><path d=" M 592.471 470.736 C 591.251 471.662 579.741 468.578 579.601 479.703 C 579.431 484.963 583.791 491.748 586.861 496.018 C 593.781 505.523 603.201 514.575 612.621 521.772 C 624.101 530.519 633.251 534.54 633.191 534.508 C 634.031 534.909 634.391 535.919 633.991 536.764 C 633.591 537.609 632.581 537.969 631.731 537.568 C 610.161 527.355 569.421 488.035 580.921 473.804 C 584.341 469.502 591.521 471.404 592.471 470.736 Z " fill="rgb(255,255,0)"/><path d=" M 1060.591 447.945 L 1060.411 447.929 C 1059.831 447.829 1059.441 447.282 1059.541 446.703 L 1070.861 380.892 C 1070.961 380.315 1071.501 379.922 1072.091 380.027 C 1072.671 380.126 1073.061 380.675 1072.961 381.253 L 1061.631 447.064 C 1061.551 447.58 1061.101 447.945 1060.591 447.945 Z " fill="rgb(27,43,128)"/><path d=" M 1033.701 463.997 C 1033.231 463.997 1032.811 463.69 1032.681 463.221 L 1000.831 348.807 C 1000.681 348.242 1001.011 347.656 1001.571 347.498 C 1002.131 347.342 1002.721 347.671 1002.881 348.236 L 1034.721 462.651 C 1034.881 463.216 1034.551 463.801 1033.981 463.959 C 1033.891 463.985 1033.791 463.997 1033.701 463.997 Z " fill="rgb(27,43,128)"/><path d=" M 998.201 470.812 C 998.041 470.812 997.881 470.775 997.721 470.698 L 925.661 434.385 C 925.141 434.122 924.931 433.483 925.191 432.96 C 925.451 432.433 926.101 432.223 926.611 432.491 L 998.671 468.803 C 999.201 469.066 999.411 469.704 999.151 470.228 C 998.961 470.598 998.591 470.812 998.201 470.812 Z " fill="rgb(27,43,128)"/><path d=" M 625.391 440.578 C 624.901 440.578 624.451 440.231 624.351 439.727 L 614.441 390.482 C 614.331 389.908 614.701 389.348 615.281 389.232 C 615.841 389.117 616.411 389.488 616.531 390.063 L 626.431 439.308 C 626.551 439.882 626.171 440.442 625.601 440.558 L 625.391 440.578 Z " fill="rgb(27,43,128)"/><path d=" M 672.801 461.388 C 672.471 461.388 672.141 461.232 671.941 460.938 C 671.601 460.459 671.711 459.797 672.191 459.459 L 743.391 409.218 C 743.871 408.884 744.531 408.995 744.871 409.474 C 745.211 409.953 745.091 410.616 744.611 410.953 L 673.421 461.194 C 673.231 461.325 673.021 461.388 672.801 461.388 Z " fill="rgb(27,43,128)"/><path d=" M 988.991 513.696 C 988.991 513.696 991.021 500.602 986.011 495.588 C 980.991 490.575 969.411 488.609 969.411 488.609 C 969.411 488.609 965.331 500.809 967.381 505.204 L 967.481 505.391 C 968.251 506.881 973.341 517.069 975.001 529.285 C 977.871 550.418 957.681 609.221 938.361 600.42 C 919.051 591.619 889.741 526.428 889.741 526.428 L 897.731 613.941 C 897.731 613.941 926.471 645.711 970.341 637.697 C 999.831 632.311 988.991 513.696 988.991 513.696 Z " fill="rgb(253,94,90)"/><path d=" M 787.601 539.661 L 787.601 539.661 C 787.601 539.661 705.891 619.879 705.891 637.198 C 705.891 654.517 719.811 655.267 719.811 655.267 L 794.261 599.547 C 797.781 589.723 796.901 544.391 787.601 539.661 Z " fill="rgb(253,94,90)"/><path d=" M 592.641 766.094 L 573.661 766.094 L 573.661 760.765 L 592.641 760.765 L 592.641 766.094 Z " fill="rgb(0,0,0)"/><path d=" M 604.931 841.255 L 585.951 841.255 L 585.951 835.926 L 604.931 835.926 L 604.931 841.255 Z " fill="rgb(0,0,0)"/><path d=" M 1227.141 960.553 C 1227.141 976.732 1072.231 989.848 881.131 989.848 C 690.031 989.848 535.111 976.732 535.111 960.553 C 535.111 944.373 690.031 931.257 881.131 931.257 C 1072.231 931.257 1227.141 944.373 1227.141 960.553 Z " fill="rgb(185,188,252)"/><path d=" M 787.601 539.661 L 797.091 625.028 L 807.701 720.686 L 903.061 720.686 L 901.831 617.231 L 889.741 526.428 C 889.741 526.428 817.561 515.786 787.601 539.661 Z " fill="rgb(66,33,11)"/><path d=" M 851.381 643.093 L 851.271 655.267 L 845.331 657.608 L 845.331 642.932 L 842.221 634.804 L 797.851 631.869 L 807.701 720.686 L 903.061 720.686 L 902.021 633.214 L 853.991 633.901 L 851.381 643.093 Z " fill="rgb(33,2,5)"/><path d=" M 818.771 702.615 C 818.771 702.615 718.251 729.323 717.911 767.928 C 717.571 806.534 807.231 932.492 807.231 932.492 L 776.411 945.448 L 834.051 942.392 L 770.461 788.141 L 859.591 728.193 L 956.061 779.977 L 881.381 939.691 L 938.321 941.084 C 938.321 941.084 899.141 932.653 904.141 926.082 C 905.661 924.091 995.241 793.687 998.141 767.429 C 1001.041 741.171 894.821 698.806 894.821 698.806 L 818.771 702.615 Z " fill="rgb(49,48,44)"/><linearGradient id="_lgradient_132" x1="0" y1="0" x2="1" y2="0" gradientTransform="matrix(-121.935,-172.741,172.741,-121.935,724.691,860.266)" gradientUnits="userSpaceOnUse"><stop offset="0%" stop-opacity="1" style="stop-color:rgb(53,21,31)"/><stop offset="100%" stop-opacity="1" style="stop-color:rgb(191,0,10)"/></linearGradient><path d=" M 577.991 703.81 L 605.971 871.009 L 725.201 871.009 L 743.191 707.544 L 577.991 703.81 Z " fill="url(#_lgradient_132)"/><path d=" M 743.191 707.544 L 577.991 703.81 L 579.071 710.294 L 602.761 710.705 L 608.631 733.786 L 618.851 733.786 L 618.851 710.984 L 686.441 712.156 L 685.241 733.786 L 695.671 733.786 L 701.611 712.419 L 742.571 713.13 L 743.191 707.544 Z " fill="rgb(49,48,44)"/><path d=" M 716.401 864.84 L 713.491 857.756 L 706.911 857.756 L 706.911 864.84 L 627.551 864.84 L 628.191 857.756 L 621.471 857.756 L 618.291 864.84 L 604.931 864.84 L 605.971 871.009 L 725.201 871.009 L 725.881 864.84 L 716.401 864.84 Z " fill="rgb(49,48,44)"/><path d=" M 716.421 677.853 L 701.681 677.853 L 701.681 674.692 L 716.421 674.692 L 716.421 677.853 Z " fill="rgb(0,0,0)"/><path d=" M 966.441 677.853 L 981.181 677.853 L 981.181 674.692 L 966.441 674.692 L 966.441 677.853 Z " fill="rgb(0,0,0)"/><path d=" M 581.651 816.72 C 580.061 816.72 578.661 815.582 578.371 813.965 L 564.381 734.363 C 564.071 732.551 565.281 730.825 567.091 730.506 C 568.911 730.192 570.631 731.398 570.951 733.21 L 584.931 812.812 C 585.251 814.624 584.041 816.35 582.231 816.669 C 582.031 816.703 581.841 816.72 581.651 816.72 Z " fill="rgb(49,48,44)"/><path d=" M 610.521 972.594 C 609.581 972.594 608.741 971.931 608.561 970.976 L 579.801 823.318 C 579.591 822.235 580.301 821.185 581.381 820.975 C 582.471 820.76 583.521 821.472 583.731 822.555 L 612.481 970.213 C 612.691 971.296 611.981 972.345 610.901 972.556 C 610.771 972.581 610.641 972.594 610.521 972.594 Z " fill="rgb(0,0,0)"/><path d=" M 724.471 976.653 C 725.401 976.584 726.191 975.86 726.301 974.895 L 743.991 825.506 C 744.121 824.41 743.331 823.416 742.241 823.287 C 741.141 823.153 740.151 823.941 740.021 825.036 L 722.331 974.425 C 722.201 975.521 722.991 976.515 724.081 976.644 C 724.211 976.66 724.341 976.663 724.471 976.653 Z " fill="rgb(0,0,0)"/><path d=" M 859.541 683.827 L 815.131 683.827 L 815.131 674.692 L 859.541 674.692 L 859.541 683.827 Z " fill="rgb(0,0,0)"/><path d=" M 837.341 680.274 L 842.221 680.274 L 842.221 756.213 L 837.341 756.213 L 837.341 680.274 Z " fill="rgb(0,0,0)"/><path d=" M 653.921 910.31 L 645.931 910.31 L 645.931 513.696 L 653.921 513.696 L 653.921 910.31 Z " fill="rgb(0,0,0)"/><path d=" M 657.041 604.78 L 642.381 604.78 L 642.381 578.578 L 657.041 578.578 L 657.041 604.78 Z " fill="rgb(0,0,0)"/><path d=" M 731.621 555.712 C 722.851 572.754 679.171 567.759 634.051 544.554 C 588.941 521.349 559.471 488.723 568.231 471.68 C 577.001 454.637 620.681 459.633 665.801 482.837 C 710.911 506.042 740.381 538.669 731.621 555.712 Z " fill="rgb(255,175,0)"/><path d=" M 694.311 536.524 C 689.551 545.784 665.811 543.069 641.301 530.462 C 616.791 517.854 600.781 500.127 605.541 490.868 C 610.301 481.608 634.031 484.322 658.551 496.93 C 683.061 509.537 699.071 527.264 694.311 536.524 Z " fill="rgb(255,207,110)"/><path d=" M 575.911 963.093 L 651.541 858.931 L 648.311 856.582 L 570.971 963.093 L 575.911 963.093 Z " fill="rgb(0,0,0)"/><path d=" M 732.191 963.093 L 651.521 856.55 L 648.331 858.962 L 727.181 963.093 L 732.191 963.093 Z " fill="rgb(0,0,0)"/><path d=" M 1002.891 544.508 C 1012.001 561.371 1055.571 555.499 1100.211 531.393 C 1144.861 507.286 1173.671 474.074 1164.561 457.211 C 1155.451 440.348 1111.881 446.22 1067.241 470.326 C 1022.601 494.433 993.791 527.645 1002.891 544.508 Z " fill="rgb(255,175,0)"/><path d=" M 1039.811 524.575 C 1044.761 533.737 1068.431 530.546 1092.681 517.449 C 1116.941 504.351 1132.591 486.307 1127.641 477.144 C 1122.701 467.982 1099.021 471.173 1074.771 484.27 C 1050.511 497.368 1034.861 515.412 1039.811 524.575 Z " fill="rgb(255,207,110)"/><path d=" M 1073.271 506.504 C 1074.451 508.685 1080.091 507.926 1085.861 504.808 C 1091.631 501.691 1095.361 497.396 1094.181 495.215 C 1093.001 493.034 1087.371 493.793 1081.591 496.911 C 1075.821 500.029 1072.101 504.324 1073.271 506.504 Z " fill="rgb(0,0,0)"/><path d=" M 1087.701 897.474 L 1095.691 897.313 L 1087.721 500.779 L 1079.731 500.94 L 1087.701 897.474 Z " fill="rgb(0,0,0)"/><path d=" M 1175.501 953.609 L 1092.231 843.644 L 1089.051 846.057 L 1170.481 953.609 L 1175.501 953.609 Z " fill="rgb(0,0,0)"/><path d=" M 1014.141 953.609 L 1092.261 846.024 L 1089.021 843.677 L 1009.211 953.609 L 1014.141 953.609 Z " fill="rgb(0,0,0)"/><path d=" M 1020.001 905.876 L 1025.861 905.75 L 1021.241 659.709 L 1015.381 659.835 L 1020.001 905.876 Z " fill="rgb(0,0,0)"/><path d=" M 1084.551 950.16 L 1023.321 863.673 L 1020.991 865.565 L 1080.871 950.16 L 1084.551 950.16 Z " fill="rgb(0,0,0)"/><path d=" M 965.901 950.16 L 1023.341 865.539 L 1020.971 863.699 L 962.281 950.16 L 965.901 950.16 Z " fill="rgb(0,0,0)"/><path d=" M 1078.451 592.068 L 1093.101 591.773 L 1092.571 565.578 L 1077.921 565.872 L 1078.451 592.068 Z " fill="rgb(0,0,0)"/><path d=" M 1022.621 668.02 L 1014.141 668.02 L 1014.141 659.541 L 1022.621 659.541 L 1022.621 668.02 Z " fill="rgb(0,0,0)"/><path d=" M 1032.181 657.571 C 1028.681 657.571 1025.671 655.47 1024.351 652.461 C 1023.411 650.326 1021.211 649.021 1018.881 649.021 C 1016.551 649.021 1014.361 650.326 1013.421 652.461 C 1012.091 655.47 1009.091 657.571 1005.591 657.571 L 962.571 657.571 L 962.571 661.512 L 1079.731 661.512 L 1079.731 657.571 L 1032.181 657.571 Z " fill="rgb(224,153,11)"/><path d=" M 823.891 543.136 C 822.111 543.136 820.661 544.579 820.661 546.361 C 820.661 547.162 820.951 547.895 821.441 548.459 L 775.191 622.913 L 775.191 622.92 C 774.841 623.493 775.021 624.24 775.591 624.59 C 776.161 624.939 776.911 624.759 777.261 624.187 L 822.951 549.449 C 823.251 549.538 823.561 549.586 823.891 549.586 C 825.671 549.586 827.111 548.142 827.111 546.361 C 827.111 544.579 825.671 543.136 823.891 543.136 Z " fill="rgb(251,134,3)"/><path d=" M 921.561 474.336 C 921.771 476.105 923.371 477.371 925.141 477.164 C 925.931 477.071 926.631 476.696 927.131 476.15 L 1006.461 513.42 L 1006.471 513.424 C 1007.081 513.704 1007.801 513.439 1008.081 512.83 C 1008.361 512.221 1008.091 511.499 1007.481 511.219 L 927.941 474.528 C 927.991 474.225 928.001 473.908 927.971 473.586 C 927.761 471.817 926.161 470.551 924.391 470.758 C 922.621 470.965 921.351 472.567 921.561 474.336 Z " fill="rgb(251,134,3)"/><path d=" M 705.891 637.198 C 705.891 637.198 705.341 657.608 723.651 657.608 C 741.961 657.608 762.241 628.863 769.171 621.934 C 776.101 615.006 777.821 614.951 781.001 611.774 C 784.171 608.597 791.381 611.209 790.171 606.535 C 789.281 603.121 794.511 600.624 791.891 598.001 C 789.261 595.378 791.751 595.545 790.701 594.501 C 789.661 593.458 800.401 587.001 798.711 585.307 C 797.021 583.614 771.801 597.334 769.171 604.78 C 766.551 612.225 708.531 626.49 705.891 637.198 Z " fill="rgb(252,117,117)"/><linearGradient id="_lgradient_133" x1="0" y1="0" x2="1" y2="0" gradientTransform="matrix(-57.318,-125.959,125.959,-57.318,822.681,785.32)" gradientUnits="userSpaceOnUse"><stop offset="0%" stop-opacity="1" style="stop-color:rgb(53,21,31)"/><stop offset="100%" stop-opacity="1" style="stop-color:rgb(191,0,10)"/></linearGradient><path d=" M 705.051 640.91 L 726.761 740.084 L 819.331 740.084 L 833.301 643.124 L 705.051 640.91 Z " fill="url(#_lgradient_133)"/><path d=" M 833.301 643.124 L 705.051 640.91 L 705.891 644.756 L 724.281 644.999 L 728.831 658.69 L 736.761 658.69 L 736.761 645.165 L 789.241 645.86 L 788.311 658.69 L 796.411 658.69 L 801.021 646.016 L 832.821 646.437 L 833.301 643.124 Z " fill="rgb(49,48,44)"/><path d=" M 812.501 736.425 L 810.241 732.224 L 805.131 732.224 L 805.131 736.425 L 743.521 736.425 L 744.021 732.224 L 738.801 732.224 L 736.331 736.425 L 725.961 736.425 L 726.761 740.084 L 819.331 740.084 L 819.861 736.425 L 812.501 736.425 Z " fill="rgb(81,48,90)"/><linearGradient id="_lgradient_134" x1="0" y1="0" x2="1" y2="0" gradientTransform="matrix(-57.319,-235.645,235.645,-57.319,951.381,816.755)" gradientUnits="userSpaceOnUse"><stop offset="0%" stop-opacity="1" style="stop-color:rgb(53,21,31)"/><stop offset="100%" stop-opacity="1" style="stop-color:rgb(191,0,10)"/></linearGradient><path d=" M 977.821 640.91 L 956.101 740.084 L 863.531 740.084 L 849.561 643.124 L 977.821 640.91 Z " fill="url(#_lgradient_134)"/><path d=" M 849.561 643.124 L 977.821 640.91 L 976.971 644.756 L 958.591 644.999 L 954.031 658.69 L 946.101 658.69 L 946.101 645.165 L 893.621 645.86 L 894.551 658.69 L 886.451 658.69 L 881.851 646.016 L 850.041 646.437 L 849.561 643.124 Z " fill="rgb(49,48,44)"/><path d=" M 870.361 736.425 L 872.621 732.224 L 877.731 732.224 L 877.731 736.425 L 939.341 736.425 L 938.841 732.224 L 944.061 732.224 L 946.531 736.425 L 956.901 736.425 L 956.101 740.084 L 863.531 740.084 L 863.001 736.425 L 870.361 736.425 Z " fill="rgb(81,48,90)"/><path d=" M 990.591 843.943 C 990.591 923.536 927.451 988.058 849.561 988.058 C 771.681 988.058 708.541 923.536 708.541 843.943 C 708.541 764.351 771.681 699.829 849.561 699.829 C 927.451 699.829 990.591 764.351 990.591 843.943 Z " fill="rgb(49,48,44)"/><line x1="991.421" y1="845.592" x2="991.421" y2="845.585"/><path d=" M 988.981 817.603 C 988.141 812.203 985.181 801.01 982.561 794.151 C 971.731 764.5 952.421 740.76 928.411 724.441 C 984.051 764.161 987.811 821.897 988.331 823.385 C 989.491 829.818 989.741 844.404 989.721 843.72 C 989.731 844.191 989.591 849.212 989.591 849.28 C 986.421 920.55 935.381 975.193 870.291 985.637 C 870.221 985.646 799.341 996.643 748.361 944.316 C 789.721 988.783 856.571 1002.614 913.221 973.573 C 960.221 949.49 989.091 901.843 991.291 851.218 C 991.291 851.148 991.411 845.916 991.421 845.592 C 991.621 831.03 988.841 816.746 988.981 817.603 Z " fill="rgb(158,0,93)"/><line x1="991.421" y1="845.585" x2="991.421" y2="845.578"/><path d=" M 962.571 843.943 C 962.571 907.719 911.971 959.42 849.561 959.42 C 787.151 959.42 736.561 907.719 736.561 843.943 C 736.561 780.168 787.151 728.468 849.561 728.468 C 911.971 728.468 962.571 780.168 962.571 843.943 Z " fill="rgb(232,229,209)"/><path d=" M 849.561 936.025 C 812.531 936.245 779.581 913.413 765.591 879.097 C 740.871 818.673 784.081 750.544 849.561 750.169 C 850.501 750.163 851.261 750.917 851.271 751.852 C 851.281 753.506 849.491 753.587 849.561 753.556 C 786.371 753.175 743.141 818.867 766.771 878.624 C 780.031 912.291 812.201 935.805 849.561 936.025 Z " fill="rgb(247,243,228)"/><path d=" M 840.451 472.364 C 840.451 472.364 838.241 463.429 841.991 460.991 C 845.741 458.552 854.131 468.188 851.431 473.061 C 848.741 477.935 842.841 478.57 840.451 472.364 Z " fill="rgb(253,94,90)"/><path d=" M 855.551 523.045 L 847.241 502.2 L 807.701 494.805 C 807.701 494.805 825.801 535.542 832.831 541.641 C 834.001 542.657 835.461 543.41 837.081 543.928 C 849.291 547.811 860.281 534.943 855.551 523.045 Z " fill="rgb(252,117,117)"/><path d=" M 851.381 512.578 L 847.241 502.2 L 807.701 494.805 C 807.701 494.805 811.351 503.011 816.001 512.607 C 821.971 516.066 828.061 518.397 833.031 519.367 C 841.341 520.989 847.941 518.077 851.381 512.578 Z " fill="rgb(253,94,90)"/><path d=" M 816.201 439.926 C 816.201 439.926 826.201 437.677 831.761 443.731 C 837.321 449.786 853.991 484.21 853.991 493.897 C 853.991 503.584 845.421 510.158 833.031 508.081 C 820.641 506.006 801.271 496.664 794.281 483.172 C 787.301 469.679 795.871 439.926 816.201 439.926 Z " fill="rgb(252,117,117)"/><path d=" M 836.871 429.603 C 846.561 429.603 850.541 437.764 850.541 437.764 C 850.541 437.764 849.211 433.982 845.231 428.674 C 841.251 423.367 827.051 420.979 817.561 423.367 C 815.271 423.943 812.211 425.532 808.891 427.612 C 806.581 421.89 819.451 417.087 819.451 417.087 C 819.451 417.087 811.131 417.264 806.351 419.292 C 803.311 420.585 798.551 434.857 797.981 435.296 C 797.791 432.776 797.821 429.249 798.611 425.048 C 800.241 416.379 810.661 414.256 810.661 414.256 C 810.661 414.256 804.761 413.903 797.091 419.292 C 791.441 423.266 790.021 435.671 789.671 441.918 C 787.111 444.031 785.451 445.476 785.331 445.583 C 781.421 447.942 779.461 451.663 779.461 458.478 C 779.461 475.344 788.171 473.139 788.171 479.237 C 788.171 485.334 789.961 487.151 796.861 494.675 C 803.771 502.2 807.961 504.599 809.851 505.703 C 812.291 507.13 813.451 507.273 813.451 507.273 L 807.871 495.169 C 807.871 495.169 800.681 491.821 800.681 488.058 C 800.681 484.296 807.541 485.983 808.501 483.258 C 809.451 480.534 797.571 471.215 797.871 470.786 C 798.831 472.412 799.891 473.892 801.051 475.048 C 806.761 480.764 814.491 478.807 814.491 478.807 C 814.491 478.807 810.331 479.095 803.881 472.637 C 797.421 466.178 806.181 447.692 806.181 447.692 C 806.181 447.692 805.291 453.884 806.001 460.327 C 806.711 466.768 814.141 465.229 814.141 465.229 C 810.121 460.36 813.881 444.899 813.881 444.899 C 813.881 444.899 815.331 449.992 819.361 456.891 C 822.911 462.99 833.151 465.944 834.651 465.356 C 833.691 465.607 828.541 461.92 823.501 450.965 C 817.391 437.697 826.261 441.81 826.261 441.81 C 833.981 446.731 839.801 455.83 839.801 455.83 C 840.741 451.456 834.821 439.903 831.701 437.764 C 840.321 437.764 847.621 446.586 847.621 446.586 C 847.621 446.586 847.241 443.778 841.461 438 C 835.691 432.223 831.301 431.726 831.301 431.726 C 831.301 431.726 827.191 429.603 836.871 429.603 Z " fill="rgb(27,43,128)"/><path d=" M 834.651 465.356 C 834.851 465.303 834.961 465.229 834.961 465.229 C 834.961 465.229 834.851 465.279 834.651 465.356 Z " fill="rgb(27,43,128)"/><path d=" M 808.211 437.254 C 808.211 437.254 822.301 437.851 826.261 441.81 C 830.211 445.768 838.161 462.199 838.161 462.199 L 808.211 437.254 Z " fill="rgb(27,43,128)"/><path d=" M 808.501 486.286 C 808.501 486.286 801.751 480.663 798.251 483.518 C 794.761 486.372 799.761 498.481 804.921 497.616 C 810.081 496.751 812.861 491.042 808.501 486.286 Z " fill="rgb(252,117,117)"/><path d=" M 806.661 488.332 C 806.661 488.332 798.611 484.14 798.611 488.332 C 798.611 492.526 803.191 495.741 806.661 492.266 C 810.141 488.793 806.661 488.332 806.661 488.332 Z " fill="rgb(253,94,90)"/><path d=" M 828.881 495.545 C 834.161 494.708 839.551 492.586 843.611 489.171 C 845.021 488.046 846.211 486.683 847.431 485.288 C 846.581 486.915 845.571 488.531 844.201 489.817 C 841.631 492.745 835.261 496.003 828.881 495.545 Z " fill="rgb(255,255,255)"/><path d=" M 812.031 481.155 C 812.001 480.927 811.261 475.532 814.391 471.525 C 817.601 467.426 822.841 468.603 823.071 468.655 C 823.791 468.824 823.541 469.917 822.811 469.749 C 822.621 469.706 818.041 468.692 815.281 472.218 C 812.451 475.839 813.141 480.943 813.141 480.994 C 813.191 481.301 812.971 481.586 812.671 481.63 C 812.351 481.674 812.071 481.455 812.031 481.155 Z " fill="rgb(23,40,102)"/><path d=" M 830.511 464.893 C 831.291 460.267 839.661 459.709 841.221 460.805 C 841.831 461.234 841.181 462.15 840.571 461.724 L 840.571 461.724 C 840.571 461.724 839.401 461.058 835.741 461.815 C 832.131 462.563 831.631 464.984 831.621 465.086 C 831.481 465.816 830.381 465.616 830.511 464.893 Z " fill="rgb(23,40,102)"/><path d=" M 818.361 480.365 C 819.101 479.203 820.221 477.943 821.621 476.787 C 822.371 476.17 823.131 475.637 823.871 475.198 C 822.761 474.024 820.681 474.086 819.121 475.371 C 817.511 476.701 817.071 478.833 818.151 480.135 L 818.361 480.365 Z " fill="rgb(27,43,128)"/><path d=" M 834.771 469.75 C 835.891 468.959 837.411 468.227 839.151 467.697 C 840.071 467.414 840.981 467.214 841.841 467.094 C 841.261 465.584 839.311 464.842 837.381 465.431 C 835.381 466.039 834.161 467.842 834.661 469.456 C 834.691 469.557 834.721 469.656 834.771 469.75 Z " fill="rgb(27,43,128)"/><path d=" M 837.501 480.431 C 835.771 479.477 833.381 478.836 833.301 478.807 C 833.261 478.951 832.581 480.979 832.411 482.709 C 832.931 481.791 833.381 480.622 833.721 479.616 C 834.901 479.976 836.281 480.322 837.501 480.431 Z " fill="rgb(24,40,125)"/><path d=" M 969.411 488.609 C 969.411 488.609 972.631 507.913 975.851 506.22 C 979.061 504.527 978.181 492.556 975.851 490.224 C 973.521 487.892 969.411 488.609 969.411 488.609 Z " fill="rgb(252,117,117)"/><path d=" M 966.831 502.696 C 966.831 502.696 974.661 494.439 977.881 495.588 C 981.101 496.737 970.601 507.273 970.601 507.273 L 970.601 512.486 C 970.601 512.486 965.101 505.946 966.831 502.696 Z " fill="rgb(255,148,148)"/><path d=" M 980.761 490.438 C 980.761 490.438 982.621 503.341 980.761 505.204 C 978.891 507.067 976.691 501.14 975.681 495.721 C 974.661 490.302 974.891 489.482 974.891 489.482 C 974.891 489.482 979.301 488.016 980.761 490.438 Z " fill="rgb(252,117,117)"/><path d=" M 985.161 493.35 C 985.161 493.35 983.371 503.982 981.301 503.982 C 979.231 503.982 979.371 490.438 981.591 490.438 C 983.811 490.438 985.161 493.35 985.161 493.35 Z " fill="rgb(252,117,117)"/><path d=" M 1088.801 588.687 L 1087.441 568.367 C 1087.391 567.619 1087.961 566.972 1088.701 566.922 C 1089.451 566.872 1090.101 567.438 1090.151 568.186 C 1090.161 568.362 1090.221 567.224 1088.801 588.687 Z " fill="rgb(210,210,255)"/><path d=" M 647.671 600.71 L 646.321 581.745 C 646.261 580.996 646.831 580.347 647.571 580.293 C 648.321 580.24 648.971 580.803 649.031 581.551 C 649.041 581.735 649.101 580.618 647.671 600.71 Z " fill="rgb(210,210,255)"/><path d=" M 1091.001 889.854 L 1084.831 597.476 C 1084.811 596.581 1086.171 596.551 1086.191 597.448 C 1086.191 597.448 1090.991 889.71 1091.001 889.854 Z " fill="rgb(210,210,255)"/><path d=" M 649.711 906.195 L 648.691 609.983 C 648.691 608.64 650.721 608.631 650.721 609.975 L 649.711 906.195 Z " fill="rgb(210,210,255)"/><path d=" M 592.471 470.736 C 591.251 471.662 579.741 468.578 579.601 479.703 C 579.431 484.963 583.791 491.748 586.861 496.018 C 593.781 505.523 603.201 514.575 612.621 521.772 C 624.101 530.519 633.251 534.54 633.191 534.508 C 634.031 534.909 634.391 535.919 633.991 536.764 C 633.591 537.609 632.581 537.969 631.731 537.568 C 610.161 527.355 569.421 488.035 580.921 473.804 C 584.341 469.502 591.521 471.404 592.471 470.736 Z " fill="rgb(255,255,0)"/><path d=" M 1060.591 447.945 L 1060.411 447.929 C 1059.831 447.829 1059.441 447.282 1059.541 446.703 L 1070.861 380.892 C 1070.961 380.315 1071.501 379.922 1072.091 380.027 C 1072.671 380.126 1073.061 380.675 1072.961 381.253 L 1061.631 447.064 C 1061.551 447.58 1061.101 447.945 1060.591 447.945 Z " fill="rgb(27,43,128)"/><path d=" M 1033.701 463.997 C 1033.231 463.997 1032.811 463.69 1032.681 463.221 L 1000.831 348.807 C 1000.681 348.242 1001.011 347.656 1001.571 347.498 C 1002.131 347.342 1002.721 347.671 1002.881 348.236 L 1034.721 462.651 C 1034.881 463.216 1034.551 463.801 1033.981 463.959 C 1033.891 463.985 1033.791 463.997 1033.701 463.997 Z " fill="rgb(27,43,128)"/><path d=" M 998.201 470.812 C 998.041 470.812 997.881 470.775 997.721 470.698 L 925.661 434.385 C 925.141 434.122 924.931 433.483 925.191 432.96 C 925.451 432.433 926.101 432.223 926.611 432.491 L 998.671 468.803 C 999.201 469.066 999.411 469.704 999.151 470.228 C 998.961 470.598 998.591 470.812 998.201 470.812 Z " fill="rgb(27,43,128)"/><path d=" M 625.391 440.578 C 624.901 440.578 624.451 440.231 624.351 439.727 L 614.441 390.482 C 614.331 389.908 614.701 389.348 615.281 389.232 C 615.841 389.117 616.411 389.488 616.531 390.063 L 626.431 439.308 C 626.551 439.882 626.171 440.442 625.601 440.558 L 625.391 440.578 Z " fill="rgb(27,43,128)"/><path d=" M 672.801 461.388 C 672.471 461.388 672.141 461.232 671.941 460.938 C 671.601 460.459 671.711 459.797 672.191 459.459 L 743.391 409.218 C 743.871 408.884 744.531 408.995 744.871 409.474 C 745.211 409.953 745.091 410.616 744.611 410.953 L 673.421 461.194 C 673.231 461.325 673.021 461.388 672.801 461.388 Z " fill="rgb(27,43,128)"/></g></svg>