<?xml version="1.0" encoding="UTF-8" standalone="no"?><!-- Generator: Gravit.io --><svg xmlns="http://www.w3.org/2000/svg" xmlns:xlink="http://www.w3.org/1999/xlink" style="isolation:isolate" viewBox="338.895 399.012 562.054 508.023" width="562.054pt" height="508.023pt"><defs><clipPath id="_clipPath_IbHUZvtXbq6HROs3V2JBJFgeLanXEgug"><rect x="338.895" y="399.012" width="562.054" height="508.023"/></clipPath></defs><g clip-path="url(#_clipPath_IbHUZvtXbq6HROs3V2JBJFgeLanXEgug)"><path d=" M 670.185 896.485 C 670.185 902.315 614.505 907.035 545.825 907.035 C 477.145 907.035 421.475 902.315 421.475 896.485 C 421.475 890.655 477.145 885.935 545.825 885.935 C 614.505 885.935 670.185 890.655 670.185 896.485 Z " fill="rgb(185,188,252)"/><path d=" M 484.965 871.185 L 484.285 885.405 L 452.155 899.145 L 448.555 904.105 L 508.775 901.635 L 496.915 871.965 L 484.965 871.185 Z " fill="rgb(0,0,0)"/><path d=" M 688.875 789.795 L 707.615 784.735 L 716.735 784.735 L 709.135 825.595 L 688.875 828.805 L 699.515 820.185 L 699.515 799.425 L 688.875 803.475 L 688.875 789.795 Z " fill="rgb(0,0,0)"/><path d=" M 763.645 807.185 L 765.345 810.675 C 697.855 844.515 819.565 876.945 882.105 803.055 C 925.845 751.355 866.855 703.175 802.545 682.535 C 759.425 668.685 710.775 665.235 669.065 673.065 C 544.125 696.515 445.875 861.175 375.275 789.535 C 353.125 767.055 344.495 748.175 349.655 733.425 C 357.445 711.135 393.455 707.075 394.985 706.915 L 395.385 710.785 C 395.035 710.825 360.245 714.755 353.275 734.735 C 348.655 747.945 356.975 765.455 377.995 786.775 C 445.165 854.945 543.385 692.685 668.365 669.235 C 710.675 661.295 760.005 664.785 803.705 678.815 C 846.595 692.585 879.245 714.675 893.275 739.415 C 905.805 761.515 902.945 784.405 885.015 805.585 C 816.945 886.025 689.725 844.255 763.645 807.185 Z " fill="rgb(133,119,136)"/><path d=" M 503.415 659.695 C 503.415 659.695 397.475 759.525 397.475 774.495 C 397.475 789.455 483.955 882.175 483.955 882.175 L 509.795 882.175 L 447.555 777.465 L 529.875 703.595 L 503.415 659.695 Z " fill="rgb(51,28,56)"/><path d=" M 559.995 632.315 C 559.995 632.315 580.065 659.695 584.635 671.555 C 589.195 683.425 593.665 803.645 593.665 803.645 L 696.885 784.725 L 693.945 807.015 C 693.945 807.015 573.065 858.975 565.765 851.675 C 558.465 844.365 523.925 705.845 523.925 705.845 L 510.695 683.075 L 497.935 655.135 L 559.995 632.315 Z " fill="rgb(101,56,112)"/><path d=" M 447.215 524.435 C 430.345 509.855 427.665 508.735 420.545 514.545 C 420.545 514.545 403.905 568.965 403.255 597.295 L 429.075 605.805 C 435.235 578.125 460.005 535.495 447.215 524.435 Z " fill="rgb(252,117,117)"/><path d=" M 562.065 579.665 L 560.965 575.245 L 543.245 563.375 L 531.965 563.375 L 529.595 576.215 C 529.595 576.215 540.805 585.895 546.975 586.935 C 553.135 587.985 562.065 579.665 562.065 579.665 Z " fill="rgb(253,94,90)"/><path d=" M 420.545 514.545 C 422.545 507.615 455.765 487.525 478.665 487.965 C 488.035 488.145 489.475 531.305 516.925 564.315 C 542.965 595.635 565.765 630.825 565.765 630.825 C 565.765 630.825 532.995 685.975 486.095 679.785 C 486.095 679.785 406.475 563.265 420.545 514.545 Z " fill="rgb(66,33,11)"/><path d=" M 577.055 612.805 C 576.435 612.715 576.575 611.785 577.195 611.875 C 592.315 614.155 604.675 610.915 613.935 602.265 C 637.345 580.385 633.575 530.695 633.535 530.195 C 633.485 529.575 634.425 529.505 634.475 530.115 C 634.515 530.625 638.315 580.765 614.575 602.945 C 604.325 612.525 591.155 614.925 577.055 612.805 Z " fill="rgb(27,43,128)"/><path d=" M 430.625 525.065 C 428.355 530.875 428.475 539.075 429.425 545.235 C 432.655 564.585 440.095 575.635 448.285 589.565 C 460.855 608.385 491.615 645.905 511.875 658.415 C 490.955 643.255 455.055 599.015 443.125 577.835 L 440.655 573.425 C 432.805 558.185 431.305 549.705 431.385 550.025 C 429.435 543.535 428.305 531.475 430.625 525.065 Z " fill="rgb(255,255,255)"/><path d=" M 608.095 512.035 L 604.085 507.665 L 605.315 506.535 L 609.325 510.895 L 608.095 512.035 Z " fill="rgb(0,0,0)"/><path d=" M 620.995 515.875 L 625.005 520.245 L 623.785 521.385 L 619.775 517.015 L 620.995 515.875 Z " fill="rgb(0,0,0)"/><path d=" M 612.785 527.125 L 616.795 531.495 L 615.575 532.635 L 611.565 528.265 L 612.785 527.125 Z " fill="rgb(0,0,0)"/><path d=" M 605.835 538.045 L 609.845 542.405 L 608.625 543.545 L 604.605 539.175 L 605.835 538.045 Z " fill="rgb(0,0,0)"/><path d=" M 596.855 518.995 L 592.845 514.625 L 594.065 513.485 L 598.075 517.855 L 596.855 518.995 Z " fill="rgb(0,0,0)"/><path d=" M 586.035 526.975 L 582.025 522.605 L 583.245 521.465 L 587.255 525.835 L 586.035 526.975 Z " fill="rgb(0,0,0)"/><path d=" M 603.035 510.345 L 601.905 508.105 C 601.295 506.915 601.555 505.455 602.535 504.545 C 603.515 503.635 604.985 503.485 606.125 504.195 L 608.245 505.505 L 603.035 510.345 Z " fill="rgb(33,25,26)"/><path d=" M 626.065 517.575 L 627.195 519.805 C 627.795 521.005 627.535 522.455 626.555 523.365 C 625.575 524.275 624.115 524.425 622.975 523.725 L 620.845 522.415 L 626.065 517.575 Z " fill="rgb(33,25,26)"/><path d=" M 617.855 528.825 L 618.985 531.055 C 619.595 532.255 619.335 533.705 618.355 534.615 C 617.365 535.525 615.905 535.675 614.765 534.975 L 612.645 533.665 L 617.855 528.825 Z " fill="rgb(33,25,26)"/><path d=" M 610.905 539.735 L 612.035 541.965 C 612.635 543.165 612.375 544.625 611.395 545.535 C 610.415 546.445 608.955 546.585 607.815 545.885 L 605.685 544.575 L 610.905 539.735 Z " fill="rgb(33,25,26)"/><path d=" M 591.785 517.295 L 590.655 515.065 C 590.045 513.865 590.305 512.415 591.285 511.505 C 592.275 510.595 593.735 510.445 594.875 511.145 L 596.995 512.455 L 591.785 517.295 Z " fill="rgb(33,25,26)"/><path d=" M 580.965 525.275 L 579.835 523.045 C 579.235 521.845 579.495 520.395 580.475 519.485 C 581.455 518.575 582.915 518.425 584.055 519.125 L 586.185 520.445 L 580.965 525.275 Z " fill="rgb(33,25,26)"/><path d=" M 491.365 627.465 C 491.365 627.465 453.715 609.415 449.055 611.675 C 444.405 613.935 435.815 642.515 430.375 645.505 C 424.925 648.505 378.545 658.875 372.235 672.085 C 365.935 685.305 384.965 727.695 384.965 727.695 C 384.965 727.695 393.445 721.305 414.385 734.545 C 435.325 747.785 440.745 745.405 449.285 737.485 C 457.815 729.565 470.645 689.685 475.705 684.985 C 480.765 680.295 536.685 667.245 538.575 661.665 C 540.475 656.075 536.215 648.255 518.635 650.145 C 501.055 652.035 490.025 649.905 486.665 646.255 C 483.305 642.595 491.365 627.465 491.365 627.465 Z " fill="rgb(110,30,20)"/><path d=" M 449.225 611.615 L 449.055 611.675 C 444.405 613.935 435.815 642.515 430.375 645.505 C 424.925 648.505 378.545 658.875 372.235 672.085 C 365.935 685.305 384.965 727.695 384.965 727.695 C 384.965 727.695 393.445 721.305 414.385 734.545 C 414.595 734.685 414.815 734.815 415.025 734.945 L 415.025 684.165 L 443.895 676.665 L 449.225 611.615 Z " fill="rgb(255,0,0)"/><path d=" M 451.245 611.135 C 449.275 610.915 448.675 611.075 447.345 612.605 C 442.485 618.585 435.495 639.895 430.785 644.315 L 430.465 644.615 L 430.125 644.835 C 425.545 647.695 379.005 657.955 372.235 672.085 C 372.765 671.275 372.725 671.085 373.965 669.655 C 375.015 669.135 376.545 662.955 414.545 651.375 C 423.035 648.775 429.245 647.025 430.845 646.025 L 431.335 645.685 C 431.535 645.425 432.675 644.895 435.205 640.175 C 439.525 632.085 444.705 617.525 448.065 613.185 C 449.055 611.935 449.545 611.795 451.145 611.955 C 456.075 612.495 467.435 616.975 471.955 618.725 C 467.215 616.555 456.395 611.815 451.245 611.135 Z " fill="rgb(255,255,255)"/><path d=" M 577.025 540.885 C 577.025 540.885 583.145 535.005 580.165 528.155 C 580.165 528.155 625.035 496.905 625.915 497.865 C 626.785 498.815 630.385 502.935 632.855 502.015 C 635.325 501.095 638.105 502.635 635.575 504.985 C 633.045 507.335 605.345 533.045 603.355 544.905 C 603.355 544.905 594.565 541.285 586.825 549.845 C 579.075 558.415 480.095 652.645 480.095 652.645 L 467.695 639.135 L 577.025 540.885 Z " fill="rgb(69,69,81)"/><path d=" M 586.825 549.845 L 584.955 547.815 L 475.965 648.145 L 480.095 652.645 C 480.095 652.645 550.925 585.215 577.435 559.255 L 586.825 549.845 Z " fill="rgb(35,35,43)"/><path d=" M 603.355 544.905 C 605.345 533.045 633.045 507.335 635.575 504.985 C 638.105 502.635 635.325 501.095 632.855 502.015 C 630.385 502.935 626.785 498.815 625.915 497.865 C 625.035 496.905 580.165 528.155 580.165 528.155 C 583.145 535.005 577.025 540.885 577.025 540.885 L 576.815 541.075 L 585.835 550.895 C 586.245 550.465 586.585 550.115 586.825 549.845 C 594.565 541.285 603.355 544.905 603.355 544.905 Z " fill="rgb(33,25,26)"/><path d=" M 632.855 502.015 C 631.955 502.355 630.915 502.025 629.905 501.425 L 581.585 546.275 L 585.835 550.895 C 586.245 550.465 586.585 550.115 586.825 549.845 C 594.565 541.285 603.355 544.905 603.355 544.905 C 605.345 533.045 633.045 507.335 635.575 504.985 C 638.105 502.635 635.325 501.095 632.855 502.015 Z " fill="rgb(0,0,0)"/><path d=" M 578.715 554.625 L 572.735 548.105 L 576.685 544.445 L 582.665 550.955 L 578.715 554.625 Z " fill="rgb(255,187,125)"/><path d=" M 563.315 569.615 L 556.985 562.725 L 560.775 559.205 L 567.105 566.095 L 563.315 569.615 Z " fill="rgb(255,187,125)"/><path d=" M 549.565 582.375 L 543.245 575.485 L 547.035 571.965 L 553.355 578.855 L 549.565 582.375 Z " fill="rgb(255,187,125)"/><path d=" M 537.295 593.765 L 530.675 586.555 L 534.465 583.035 L 541.085 590.245 L 537.295 593.765 Z " fill="rgb(255,187,125)"/><path d=" M 527.055 603.855 L 520.145 596.335 L 523.035 593.645 L 529.955 601.165 L 527.055 603.855 Z " fill="rgb(255,187,125)"/><path d=" M 513.045 616.865 L 505.935 609.125 L 508.885 606.385 L 515.995 614.125 L 513.045 616.865 Z " fill="rgb(255,187,125)"/><path d=" M 501.295 627.765 L 494.195 620.025 L 496.725 617.685 L 503.825 625.415 L 501.295 627.765 Z " fill="rgb(255,187,125)"/><path d=" M 495.975 633.975 L 488.245 625.555 L 489.345 624.525 L 497.085 632.945 L 495.975 633.975 Z " fill="rgb(255,187,125)"/><path d=" M 489.925 639.595 L 482.185 631.175 L 483.345 630.095 L 491.085 638.525 L 489.925 639.595 Z " fill="rgb(255,187,125)"/><path d=" M 484.705 644.435 L 476.295 635.275 L 477.135 634.485 L 485.555 643.655 L 484.705 644.435 Z " fill="rgb(255,187,125)"/><path d=" M 472.345 663.375 L 456.045 645.625 C 455.185 644.695 455.245 643.235 456.175 642.365 L 463.805 635.275 C 464.735 634.415 466.195 634.475 467.055 635.405 L 483.355 653.155 C 484.215 654.095 484.155 655.555 483.225 656.415 L 475.585 663.505 C 474.655 664.375 473.205 664.315 472.345 663.375 Z " fill="rgb(230,230,230)"/><path d=" M 471.625 661.105 L 458.775 647.115 C 458.185 646.475 458.225 645.465 458.865 644.875 L 465.605 638.615 C 466.245 638.025 467.245 638.065 467.835 638.705 L 480.675 652.695 C 481.275 653.335 481.235 654.335 480.595 654.935 L 473.855 661.195 C 473.205 661.785 472.215 661.745 471.625 661.105 Z " fill="rgb(21,21,35)"/><path d=" M 467.625 643.255 C 467.165 643.685 466.445 643.655 466.015 643.195 C 465.585 642.725 465.615 642.005 466.075 641.575 C 466.535 641.145 467.265 641.175 467.685 641.645 C 468.115 642.105 468.085 642.825 467.625 643.255 Z " fill="rgb(153,153,153)"/><path d=" M 463.715 646.885 C 463.255 647.315 462.535 647.285 462.105 646.825 C 461.675 646.355 461.705 645.635 462.165 645.205 C 462.625 644.775 463.345 644.805 463.775 645.275 C 464.205 645.735 464.175 646.455 463.715 646.885 Z " fill="rgb(153,153,153)"/><path d=" M 469.775 645.605 C 469.315 646.035 468.595 646.005 468.165 645.535 C 467.745 645.075 467.765 644.345 468.235 643.915 C 468.695 643.495 469.415 643.525 469.835 643.985 C 470.265 644.445 470.235 645.175 469.775 645.605 Z " fill="rgb(153,153,153)"/><path d=" M 465.865 649.235 C 465.405 649.655 464.685 649.635 464.255 649.165 C 463.835 648.705 463.855 647.975 464.325 647.545 C 464.785 647.125 465.505 647.155 465.925 647.615 C 466.355 648.075 466.325 648.805 465.865 649.235 Z " fill="rgb(153,153,153)"/><path d=" M 471.815 647.825 C 471.355 648.255 470.635 648.225 470.205 647.755 C 469.785 647.295 469.815 646.575 470.275 646.145 C 470.735 645.715 471.455 645.745 471.885 646.205 C 472.305 646.675 472.285 647.395 471.815 647.825 Z " fill="rgb(153,153,153)"/><path d=" M 467.905 651.455 C 467.445 651.885 466.725 651.855 466.295 651.395 C 465.875 650.925 465.905 650.205 466.365 649.775 C 466.825 649.345 467.545 649.375 467.975 649.835 C 468.395 650.305 468.375 651.025 467.905 651.455 Z " fill="rgb(153,153,153)"/><path d=" M 474.115 650.325 C 473.655 650.755 472.935 650.725 472.505 650.265 C 472.085 649.795 472.115 649.075 472.575 648.645 C 473.035 648.215 473.755 648.245 474.185 648.715 C 474.605 649.175 474.575 649.905 474.115 650.325 Z " fill="rgb(153,153,153)"/><path d=" M 470.205 653.955 C 469.745 654.385 469.025 654.355 468.595 653.895 C 468.175 653.425 468.205 652.705 468.665 652.275 C 469.125 651.845 469.845 651.875 470.275 652.345 C 470.695 652.805 470.665 653.525 470.205 653.955 Z " fill="rgb(153,153,153)"/><path d=" M 475.945 652.315 C 475.485 652.745 474.765 652.715 474.335 652.245 C 473.905 651.785 473.935 651.065 474.395 650.635 C 474.855 650.205 475.575 650.235 476.005 650.695 C 476.435 651.165 476.405 651.885 475.945 652.315 Z " fill="rgb(153,153,153)"/><path d=" M 472.035 655.945 C 471.565 656.375 470.845 656.345 470.425 655.885 C 469.995 655.415 470.025 654.695 470.485 654.265 C 470.945 653.835 471.665 653.865 472.095 654.325 C 472.525 654.795 472.495 655.515 472.035 655.945 Z " fill="rgb(153,153,153)"/><path d=" M 478.275 654.855 C 477.815 655.285 477.095 655.255 476.665 654.795 C 476.245 654.325 476.275 653.605 476.735 653.175 C 477.195 652.745 477.915 652.775 478.345 653.245 C 478.765 653.705 478.735 654.425 478.275 654.855 Z " fill="rgb(153,153,153)"/><path d=" M 474.365 658.485 C 473.905 658.915 473.185 658.885 472.755 658.425 C 472.335 657.955 472.365 657.235 472.825 656.805 C 473.285 656.375 474.005 656.405 474.435 656.875 C 474.855 657.335 474.825 658.055 474.365 658.485 Z " fill="rgb(153,153,153)"/><path d=" M 465.455 637.245 C 465.155 637.525 464.675 637.505 464.385 637.195 C 464.105 636.895 464.125 636.405 464.435 636.125 C 464.735 635.835 465.215 635.855 465.505 636.165 C 465.785 636.475 465.765 636.955 465.455 637.245 Z " fill="rgb(69,69,81)"/><path d=" M 457.735 644.625 C 457.445 644.885 457.005 644.865 456.745 644.585 C 456.485 644.295 456.495 643.855 456.785 643.595 C 457.065 643.325 457.505 643.345 457.775 643.635 C 458.035 643.915 458.015 644.365 457.735 644.625 Z " fill="rgb(69,69,81)"/><path d=" M 482.525 655.985 C 482.225 656.275 481.745 656.255 481.455 655.945 C 481.175 655.635 481.195 655.155 481.505 654.865 C 481.805 654.585 482.285 654.605 482.575 654.915 C 482.855 655.225 482.835 655.705 482.525 655.985 Z " fill="rgb(69,69,81)"/><path d=" M 474.805 663.365 C 474.515 663.635 474.075 663.615 473.815 663.325 C 473.555 663.045 473.565 662.595 473.855 662.335 C 474.135 662.075 474.575 662.095 474.845 662.375 C 475.105 662.665 475.085 663.105 474.805 663.365 Z " fill="rgb(69,69,81)"/><path d=" M 448.645 685.375 L 432.345 667.625 C 431.485 666.695 431.535 665.235 432.475 664.365 L 440.105 657.275 C 441.035 656.415 442.495 656.475 443.355 657.405 L 459.655 675.155 C 460.515 676.095 460.455 677.555 459.525 678.415 L 451.885 685.505 C 450.955 686.365 449.505 686.315 448.645 685.375 Z " fill="rgb(230,230,230)"/><path d=" M 447.925 683.105 L 435.075 669.115 C 434.485 668.475 434.525 667.465 435.165 666.875 L 441.905 660.615 C 442.545 660.025 443.545 660.065 444.135 660.705 L 456.975 674.695 C 457.575 675.335 457.535 676.335 456.895 676.935 L 450.145 683.195 C 449.505 683.785 448.515 683.745 447.925 683.105 Z " fill="rgb(21,21,35)"/><path d=" M 443.925 665.255 C 443.465 665.685 442.745 665.655 442.315 665.195 C 441.885 664.725 441.915 664.005 442.375 663.575 C 442.835 663.145 443.555 663.175 443.985 663.635 C 444.415 664.105 444.385 664.825 443.925 665.255 Z " fill="rgb(153,153,153)"/><path d=" M 440.015 668.885 C 439.555 669.315 438.825 669.285 438.405 668.825 C 437.975 668.355 438.005 667.635 438.465 667.205 C 438.925 666.775 439.645 666.805 440.075 667.265 C 440.505 667.735 440.475 668.455 440.015 668.885 Z " fill="rgb(153,153,153)"/><path d=" M 446.075 667.605 C 445.615 668.025 444.895 668.005 444.465 667.535 C 444.045 667.075 444.065 666.345 444.535 665.915 C 444.995 665.485 445.715 665.515 446.135 665.985 C 446.565 666.445 446.535 667.175 446.075 667.605 Z " fill="rgb(153,153,153)"/><path d=" M 442.165 671.235 C 441.705 671.655 440.985 671.635 440.555 671.165 C 440.125 670.705 440.155 669.975 440.625 669.545 C 441.085 669.125 441.805 669.145 442.225 669.615 C 442.655 670.075 442.625 670.805 442.165 671.235 Z " fill="rgb(153,153,153)"/><path d=" M 448.115 669.825 C 447.655 670.255 446.935 670.225 446.505 669.755 C 446.085 669.295 446.115 668.575 446.575 668.145 C 447.035 667.715 447.755 667.745 448.185 668.205 C 448.605 668.675 448.575 669.395 448.115 669.825 Z " fill="rgb(153,153,153)"/><path d=" M 444.205 673.455 C 443.745 673.885 443.025 673.855 442.595 673.385 C 442.175 672.925 442.205 672.205 442.665 671.775 C 443.125 671.345 443.845 671.375 444.275 671.835 C 444.695 672.305 444.665 673.025 444.205 673.455 Z " fill="rgb(153,153,153)"/><path d=" M 450.415 672.325 C 449.955 672.755 449.235 672.725 448.805 672.265 C 448.385 671.795 448.415 671.075 448.875 670.645 C 449.335 670.215 450.055 670.245 450.485 670.715 C 450.905 671.175 450.875 671.895 450.415 672.325 Z " fill="rgb(153,153,153)"/><path d=" M 446.505 675.955 C 446.045 676.385 445.325 676.355 444.895 675.895 C 444.475 675.425 444.495 674.705 444.965 674.275 C 445.425 673.845 446.145 673.875 446.575 674.345 C 446.995 674.805 446.965 675.525 446.505 675.955 Z " fill="rgb(153,153,153)"/><path d=" M 452.245 674.315 C 451.785 674.745 451.055 674.715 450.635 674.245 C 450.205 673.785 450.235 673.065 450.695 672.635 C 451.155 672.205 451.875 672.235 452.305 672.695 C 452.735 673.165 452.705 673.885 452.245 674.315 Z " fill="rgb(153,153,153)"/><path d=" M 448.335 677.945 C 447.865 678.375 447.145 678.345 446.725 677.875 C 446.295 677.415 446.325 676.695 446.785 676.265 C 447.245 675.835 447.965 675.865 448.395 676.325 C 448.825 676.795 448.795 677.515 448.335 677.945 Z " fill="rgb(153,153,153)"/><path d=" M 454.575 676.855 C 454.115 677.285 453.395 677.255 452.965 676.795 C 452.545 676.325 452.575 675.605 453.035 675.175 C 453.495 674.745 454.215 674.775 454.645 675.235 C 455.065 675.705 455.035 676.425 454.575 676.855 Z " fill="rgb(153,153,153)"/><path d=" M 450.665 680.485 C 450.205 680.915 449.485 680.885 449.055 680.425 C 448.635 679.955 448.665 679.235 449.125 678.805 C 449.585 678.375 450.305 678.405 450.735 678.875 C 451.155 679.335 451.125 680.055 450.665 680.485 Z " fill="rgb(153,153,153)"/><path d=" M 441.755 659.245 C 441.455 659.525 440.975 659.505 440.685 659.195 C 440.405 658.895 440.425 658.405 440.735 658.125 C 441.035 657.835 441.515 657.855 441.805 658.165 C 442.085 658.475 442.065 658.955 441.755 659.245 Z " fill="rgb(69,69,81)"/><path d=" M 434.035 666.625 C 433.745 666.885 433.305 666.865 433.045 666.585 C 432.785 666.295 432.795 665.855 433.085 665.595 C 433.365 665.325 433.805 665.345 434.075 665.635 C 434.335 665.915 434.315 666.365 434.035 666.625 Z " fill="rgb(69,69,81)"/><path d=" M 458.825 677.985 C 458.525 678.275 458.045 678.255 457.755 677.945 C 457.475 677.635 457.495 677.155 457.805 676.865 C 458.105 676.585 458.585 676.605 458.875 676.915 C 459.155 677.225 459.135 677.705 458.825 677.985 Z " fill="rgb(69,69,81)"/><path d=" M 451.105 685.365 C 450.815 685.635 450.375 685.615 450.115 685.325 C 449.855 685.045 449.865 684.595 450.155 684.335 C 450.435 684.075 450.875 684.095 451.135 684.375 C 451.405 684.665 451.385 685.105 451.105 685.365 Z " fill="rgb(69,69,81)"/><path d=" M 423.245 672.885 L 429.405 667.165 L 449.355 688.885 L 443.195 694.605 L 423.245 672.885 Z " fill="rgb(153,153,153)"/><path d=" M 443.235 693.535 L 424.305 672.925 L 429.365 668.235 L 448.295 688.845 L 443.235 693.535 Z " fill="rgb(69,54,89)"/><path d=" M 428.755 677.775 L 427.555 676.465 L 432.655 671.735 L 433.855 673.045 L 428.755 677.775 Z " fill="rgb(128,128,128)"/><path d=" M 431.195 680.425 L 429.985 679.115 L 435.085 674.385 L 436.285 675.695 L 431.195 680.425 Z " fill="rgb(128,128,128)"/><path d=" M 433.625 683.075 L 432.425 681.765 L 437.515 677.035 L 438.725 678.345 L 433.625 683.075 Z " fill="rgb(128,128,128)"/><path d=" M 436.055 685.725 L 434.855 684.405 L 439.945 679.685 L 441.155 680.995 L 436.055 685.725 Z " fill="rgb(128,128,128)"/><path d=" M 438.495 688.375 L 437.285 687.055 L 442.385 682.325 L 443.585 683.645 L 438.495 688.375 Z " fill="rgb(128,128,128)"/><path d=" M 440.445 690.545 L 439.245 689.235 L 444.345 684.505 L 445.545 685.815 L 440.445 690.545 Z " fill="rgb(128,128,128)"/><path d=" M 430.215 671.805 C 430.155 672.705 429.365 673.395 428.465 673.325 C 427.565 673.265 426.875 672.475 426.945 671.565 C 427.005 670.655 427.795 669.975 428.695 670.035 C 429.595 670.105 430.285 670.895 430.215 671.805 Z " fill="rgb(0,0,0)"/><path d=" M 420.925 681.205 C 420.855 682.105 420.075 682.795 419.165 682.725 C 418.265 682.665 417.585 681.875 417.645 680.965 C 417.715 680.055 418.495 679.375 419.405 679.435 C 420.305 679.505 420.985 680.295 420.925 681.205 Z " fill="rgb(255,183,105)"/><path d=" M 446.595 689.635 C 446.535 690.545 445.745 691.225 444.845 691.165 C 443.945 691.095 443.255 690.305 443.325 689.405 C 443.385 688.495 444.175 687.805 445.075 687.875 C 445.975 687.935 446.665 688.725 446.595 689.635 Z " fill="rgb(0,0,0)"/><path d=" M 435.505 699.895 L 418.915 681.835 L 419.915 680.895 L 436.505 698.965 L 435.505 699.895 Z " fill="rgb(255,183,105)"/><path d=" M 418.905 684.495 L 415.875 681.195 L 419.665 677.675 L 422.695 680.975 L 418.905 684.495 Z " fill="rgb(69,54,89)"/><path d=" M 416.945 681.235 L 419.625 678.745 L 421.625 680.925 L 418.945 683.425 L 416.945 681.235 Z " fill="rgb(51,51,51)"/><path d=" M 436.795 699.325 C 436.735 700.235 435.955 700.915 435.045 700.855 C 434.145 700.785 433.465 699.995 433.525 699.085 C 433.595 698.185 434.375 697.495 435.275 697.565 C 436.185 697.625 436.865 698.415 436.795 699.325 Z " fill="rgb(255,183,105)"/><path d=" M 434.785 702.615 L 431.755 699.315 L 435.545 695.795 L 438.575 699.095 L 434.785 702.615 Z " fill="rgb(69,54,89)"/><path d=" M 432.815 699.365 L 435.505 696.865 L 437.505 699.055 L 434.825 701.545 L 432.815 699.365 Z " fill="rgb(51,51,51)"/><path d=" M 425.465 689.725 L 425.475 689.425 L 580.365 544.945 L 610.775 512.505 L 611.075 512.495 L 611.085 512.795 L 580.675 545.255 L 425.775 689.735 L 425.465 689.725 Z " fill="rgb(238,232,48)"/><path d=" M 423.415 686.735 L 423.405 686.725 L 423.425 686.425 L 579.105 543.565 C 579.875 542.655 598.365 520.775 599.045 520.145 L 599.345 520.155 L 599.335 520.465 C 598.805 520.955 586.075 535.985 579.415 543.865 L 423.715 686.745 L 423.415 686.735 Z " fill="rgb(238,232,48)"/><path d=" M 420.605 684.425 L 420.605 684.425 L 420.615 684.125 L 577.875 542.255 L 588.255 528.015 C 588.325 527.915 588.455 527.895 588.555 527.965 C 588.645 528.035 588.665 528.175 588.595 528.275 L 578.195 542.545 L 578.175 542.565 L 420.905 684.445 L 420.605 684.425 Z " fill="rgb(238,232,48)"/><path d=" M 427.715 692.175 L 427.725 691.875 L 582.025 546.745 L 619.835 514.595 C 619.925 514.525 620.055 514.535 620.135 514.625 C 620.205 514.715 620.195 514.855 620.105 514.925 L 582.305 547.075 L 428.025 692.185 L 427.715 692.175 L 427.715 692.175 Z " fill="rgb(238,232,48)"/><path d=" M 431.125 694.295 L 431.135 693.985 L 583.485 548.335 L 610.335 525.675 C 610.425 525.595 610.555 525.605 610.635 525.695 C 610.705 525.795 610.695 525.925 610.605 526.005 L 583.765 548.665 L 431.425 694.305 L 431.125 694.295 L 431.125 694.295 Z " fill="rgb(238,232,48)"/><path d=" M 432.955 696.285 L 432.965 695.985 L 584.895 549.875 L 603.665 537.065 C 603.765 536.995 603.895 537.025 603.965 537.125 C 604.025 537.225 604.005 537.355 603.905 537.425 L 585.165 550.215 L 433.265 696.295 L 432.955 696.285 L 432.955 696.285 Z " fill="rgb(238,232,48)"/><path d=" M 420.675 685.575 L 419.465 684.265 L 422.425 681.515 L 423.635 682.825 L 420.675 685.575 Z " fill="rgb(0,0,0)"/><path d=" M 423.105 688.225 L 421.895 686.915 L 424.865 684.165 L 426.065 685.475 L 423.105 688.225 Z " fill="rgb(0,0,0)"/><path d=" M 425.535 690.875 L 424.335 689.565 L 427.295 686.815 L 428.495 688.125 L 425.535 690.875 Z " fill="rgb(0,0,0)"/><path d=" M 427.965 693.525 L 426.765 692.215 L 429.725 689.465 L 430.935 690.775 L 427.965 693.525 Z " fill="rgb(0,0,0)"/><path d=" M 430.405 696.175 L 429.195 694.865 L 432.165 692.115 L 433.365 693.425 L 430.405 696.175 Z " fill="rgb(0,0,0)"/><path d=" M 432.375 698.325 L 431.165 697.015 L 434.135 694.255 L 435.335 695.575 L 432.375 698.325 Z " fill="rgb(0,0,0)"/><path d=" M 612.665 513.505 C 611.845 514.265 610.575 514.205 609.825 513.385 C 609.065 512.565 609.115 511.285 609.935 510.525 C 610.745 509.765 612.025 509.825 612.775 510.645 C 613.535 511.465 613.485 512.745 612.665 513.505 Z " fill="rgb(51,51,51)"/><path d=" M 612.245 513.045 C 611.685 513.575 610.795 513.535 610.275 512.965 C 609.745 512.395 609.785 511.505 610.355 510.985 C 610.915 510.455 611.805 510.495 612.325 511.065 C 612.855 511.635 612.815 512.525 612.245 513.045 Z " fill="rgb(89,87,87)"/><path d=" M 621.495 516.105 C 620.675 516.865 619.405 516.815 618.645 515.985 C 617.895 515.165 617.945 513.885 618.765 513.125 C 619.575 512.365 620.855 512.425 621.605 513.245 C 622.365 514.065 622.315 515.345 621.495 516.105 Z " fill="rgb(51,51,51)"/><path d=" M 621.075 515.645 C 620.505 516.175 619.625 516.135 619.105 515.565 C 618.575 514.995 618.615 514.105 619.175 513.585 C 619.745 513.055 620.635 513.095 621.155 513.665 C 621.675 514.235 621.645 515.125 621.075 515.645 Z " fill="rgb(89,87,87)"/><path d=" M 611.935 527.435 C 611.125 528.195 609.845 528.145 609.095 527.325 C 608.335 526.495 608.385 525.215 609.205 524.465 C 610.025 523.705 611.295 523.755 612.045 524.575 C 612.805 525.395 612.755 526.675 611.935 527.435 Z " fill="rgb(51,51,51)"/><path d=" M 611.515 526.985 C 610.955 527.505 610.065 527.475 609.545 526.905 C 609.015 526.335 609.055 525.445 609.625 524.915 C 610.185 524.385 611.075 524.425 611.595 524.995 C 612.125 525.565 612.085 526.455 611.515 526.985 Z " fill="rgb(89,87,87)"/><path d=" M 605.075 538.645 C 604.255 539.405 602.985 539.355 602.225 538.535 C 601.475 537.715 601.525 536.435 602.345 535.675 C 603.155 534.915 604.435 534.965 605.185 535.785 C 605.945 536.605 605.895 537.895 605.075 538.645 Z " fill="rgb(51,51,51)"/><path d=" M 604.655 538.195 C 604.085 538.725 603.205 538.685 602.685 538.115 C 602.155 537.545 602.195 536.655 602.755 536.125 C 603.325 535.605 604.215 535.635 604.735 536.205 C 605.255 536.775 605.225 537.665 604.655 538.195 Z " fill="rgb(89,87,87)"/><path d=" M 600.655 521.695 C 599.835 522.455 598.565 522.405 597.815 521.585 C 597.055 520.765 597.105 519.485 597.925 518.725 C 598.745 517.965 600.015 518.015 600.765 518.835 C 601.525 519.665 601.475 520.945 600.655 521.695 Z " fill="rgb(51,51,51)"/><path d=" M 600.235 521.245 C 599.675 521.775 598.785 521.735 598.265 521.165 C 597.735 520.595 597.775 519.705 598.345 519.175 C 598.905 518.655 599.795 518.685 600.315 519.255 C 600.845 519.825 600.805 520.715 600.235 521.245 Z " fill="rgb(89,87,87)"/><path d=" M 589.545 529.565 C 588.735 530.325 587.455 530.275 586.705 529.445 C 585.945 528.625 585.995 527.345 586.815 526.585 C 587.635 525.825 588.905 525.885 589.665 526.705 C 590.415 527.525 590.365 528.805 589.545 529.565 Z " fill="rgb(51,51,51)"/><path d=" M 589.125 529.105 C 588.565 529.635 587.675 529.595 587.155 529.025 C 586.625 528.455 586.665 527.565 587.235 527.045 C 587.795 526.515 588.685 526.555 589.205 527.125 C 589.735 527.695 589.695 528.585 589.125 529.105 Z " fill="rgb(89,87,87)"/><path d=" M 537.925 662.535 C 536.305 663.765 534.405 664.525 532.545 665.275 C 517.855 671.125 480.145 679.895 474.995 684.245 C 474.785 684.555 473.925 684.905 471.365 690.015 C 465.375 702.065 457.785 723.635 450.845 733.945 C 449.405 735.985 447.015 738.135 446.915 738.225 C 441.755 742.765 438.655 743.245 434.665 742.885 C 421.195 740.535 412.375 730.045 398.275 726.795 C 394.375 725.875 389.935 725.505 386.255 727.035 C 389.885 725.755 394.405 726.325 398.125 727.375 C 411.805 731.135 420.405 741.905 434.425 744.715 C 438.975 745.225 443.025 744.845 449.995 738.255 C 450.405 737.715 451.985 736.885 455.815 729.885 C 464.015 714.895 469.635 691.655 476.395 685.755 C 483.705 679.385 517.725 672.345 532.675 665.595 C 534.505 664.725 536.375 663.865 537.925 662.535 Z " fill="rgb(81,16,21)"/><path d=" M 429.165 731.375 C 424.775 731.375 420.045 730.105 415.035 727.305 C 415.025 727.305 415.025 727.305 415.025 727.305 L 415.025 719.485 C 418.705 722.175 422.645 724.175 426.855 724.975 C 428.175 725.215 429.405 725.335 430.575 725.335 C 435.625 725.335 439.385 723.095 443.675 719.425 C 452.495 711.425 457.295 697.545 462.445 686.515 C 461.735 689.635 459.905 696.795 458.215 702.135 C 453.075 719.195 442.755 731.375 429.165 731.375 Z " fill="rgb(159,106,109)"/><path d=" M 415.025 727.305 C 409.355 724.355 403.035 718.805 397.775 710.595 C 393.355 703.525 391.715 698.175 391.735 698.175 C 391.735 698.175 391.735 698.185 391.735 698.195 C 391.345 697.035 392.285 696.115 393.255 696.115 C 393.695 696.115 394.135 696.295 394.475 696.745 C 400.065 704.165 406.905 713.525 415.025 719.485 L 415.025 727.305 Z " fill="rgb(255,87,97)"/><path d=" M 831.125 839.095 L 771.815 839.095 C 763.425 839.095 756.615 832.285 756.615 823.895 L 756.615 733.185 C 756.615 724.785 763.425 717.985 771.815 717.985 L 831.125 717.985 C 839.515 717.985 846.325 724.785 846.325 733.185 L 846.325 823.895 C 846.325 832.285 839.515 839.095 831.125 839.095 Z " fill="rgb(56,26,63)"/><path d=" M 830.085 724.625 C 835.815 727.395 838.995 732.035 839.605 737.575 C 839.775 739.215 839.755 734.785 838.995 811.895 C 838.965 808.525 838.255 736.435 838.285 739.715 C 838.385 732.895 833.545 726.255 825.175 725.235 C 824.045 725.165 825.565 725.135 788.145 725.525 C 787.425 725.535 786.845 724.955 786.835 724.245 C 786.825 723.535 787.405 722.945 788.115 722.935 C 828.885 723.335 825.875 722.955 830.085 724.625 Z " fill="rgb(102,45,145)"/><path d=" M 781.355 858.615 L 772.625 858.615 L 768.425 830.645 L 781.355 830.645 L 781.355 858.615 Z " fill="rgb(56,26,63)"/><path d=" M 819.495 858.615 L 828.225 858.615 L 832.425 830.645 L 819.495 830.645 L 819.495 858.615 Z " fill="rgb(56,26,63)"/><path d=" M 835.335 779.895 C 835.335 797.565 821.005 811.895 803.335 811.895 C 785.665 811.895 771.335 797.565 771.335 779.895 C 771.335 762.225 785.665 747.895 803.335 747.895 C 821.005 747.895 835.335 762.225 835.335 779.895 Z " fill="rgb(101,56,112)"/><path d=" M 818.525 779.895 C 818.525 788.285 811.725 795.085 803.335 795.085 C 794.945 795.085 788.145 788.285 788.145 779.895 C 788.145 771.505 794.945 764.705 803.335 764.705 C 811.725 764.705 818.525 771.505 818.525 779.895 Z " fill="rgb(76,42,84)"/><path d=" M 583.525 557.165 C 582.355 552.265 581.645 549.695 581.225 548.385 L 581.135 548.135 C 580.955 547.595 580.835 547.315 580.745 547.185 C 579.125 543.575 574.505 535.615 574.505 535.615 C 571.475 533.285 574.605 542.395 575.355 543.145 C 575.565 543.355 575.945 544.145 576.365 545.165 C 573.975 543.445 571.635 541.325 571.635 541.325 C 571.635 541.325 562.075 536.635 560.235 538.665 C 559.785 539.175 565.535 540.945 569.355 543.525 C 572.675 545.755 574.995 549.595 575.585 550.695 C 573.365 549.255 569.615 546.945 568.345 546.945 C 566.505 546.945 562.135 548.465 562.965 549.985 C 563.785 551.505 567.905 550.365 567.905 550.365 L 573.865 553.735 C 573.915 553.945 574.025 554.155 574.195 554.365 C 571.615 553.895 568.105 553.315 566.635 553.315 C 564.165 553.315 560.045 552.235 560.745 554.205 C 561.425 556.145 574.885 557.395 575.355 557.785 C 577.235 559.405 574.085 560.875 572.435 560.875 C 568.415 560.875 564.995 559.625 563.195 561.625 C 561.395 563.615 564.095 562.775 568.965 563.955 C 573.845 565.125 567.325 570.075 567.325 573.355 C 567.325 574.615 563.655 576.315 560.965 575.245 L 546.465 589.195 C 546.985 589.205 568.795 588.445 572.075 584.805 C 575.365 581.165 586.485 569.605 583.525 557.165 Z " fill="rgb(253,94,90)"/><path d=" M 461.825 696.885 C 461.665 696.735 446.565 681.525 448.185 678.175 C 449.825 674.775 453.955 679.285 456.375 682.015 C 458.855 684.795 462.515 684.335 462.215 682.795 C 461.845 680.885 456.765 680.145 453.025 675.375 C 442.555 662.015 435.865 652.025 435.865 652.025 C 432.395 642.565 430.445 632.965 428.765 616.385 C 428.315 614.395 428.865 607.965 429.645 599.235 L 403.255 597.295 C 400.155 614.535 422.905 655.665 422.905 655.665 C 427.965 662.555 432.735 683.765 435.435 690.395 C 438.035 696.775 441.225 701.425 443.185 703.515 C 443.655 704.005 444.415 703.475 444.135 702.845 C 442.275 698.635 437.055 691.235 439.065 688.565 C 440.215 688.715 441.445 690.705 445.355 697.985 C 447.155 701.345 449.635 705.945 450.365 706.425 C 453.995 707.775 449.785 700.375 447.745 697.135 C 445.645 693.795 443.095 690.495 444.255 688.945 C 444.645 688.435 448.025 692.235 451.615 697.525 C 464.635 716.755 463.315 707.815 456.345 698.855 C 449.985 690.695 446.995 687.095 447.525 686.395 C 448.515 686.365 450.075 688.035 454.795 693.515 C 457.515 696.665 462.565 701.275 463.655 701.475 C 465.665 701.395 463.315 698.355 461.825 696.885 Z " fill="rgb(252,117,117)"/><path d=" M 478.665 487.965 C 478.665 487.965 502.035 488.035 511.825 497.825 C 521.615 507.615 543.245 563.375 543.245 563.375 L 529.595 576.215 C 529.595 576.215 522.235 568.905 501.955 540.795 C 480.035 510.405 478.665 487.965 478.665 487.965 Z " fill="rgb(253,94,90)"/><path d=" M 415.345 416.485 C 416.685 416.485 433.975 428.445 441.055 449.715 C 448.135 470.985 438.045 496.455 410.615 527.125 C 383.185 557.805 384.555 564.135 384.555 565.905 C 384.555 567.685 383.885 550.965 394.045 535.135 C 404.205 519.305 401.295 509.995 401.295 509.995 C 401.295 509.995 371.285 532.145 366.465 549.535 C 366.465 549.535 368.415 523.285 376.435 512.435 C 384.455 501.575 391.025 497.535 391.025 489.675 C 391.025 481.825 370.015 505.125 370.015 505.125 C 370.015 505.125 375.095 493.725 375.095 485.875 C 375.095 478.025 359.885 497.055 355.835 517.295 C 355.835 517.295 355.325 496.415 360.135 484.685 C 364.945 472.955 361.405 472.535 358.365 459.705 C 355.325 446.875 354.815 428.085 365.965 422.665 C 377.105 417.245 389.705 419.015 396.085 415.215 C 402.465 411.415 415.345 416.485 415.345 416.485 Z " fill="rgb(23,40,102)"/><path d=" M 413.735 489.285 C 413.735 489.285 430.745 509.685 431.665 524.775 C 431.955 529.625 437.305 532.505 441.415 529.925 C 443.815 528.415 446.655 525.935 449.955 521.995 C 453.145 518.205 456.845 510.325 454.975 504.445 C 449.225 486.315 422.275 465.455 422.275 465.455 L 413.735 489.285 Z " fill="rgb(252,117,117)"/><path d=" M 430.315 472.285 C 425.675 468.085 422.275 465.455 422.275 465.455 L 413.735 489.285 C 413.735 489.285 418.605 495.135 423.285 502.885 C 427.965 497.875 432.395 488.795 430.315 472.285 Z " fill="rgb(253,94,90)"/><path d=" M 373.015 440.775 C 373.015 440.775 368.365 441.855 368.525 448.645 C 368.675 455.435 376.575 473.085 389.145 485.755 C 401.715 498.415 407.525 502.525 413.845 498.195 C 420.165 493.865 429.975 483.255 425.135 457.805 C 420.285 432.365 402.065 411.885 373.015 440.775 Z " fill="rgb(252,117,117)"/><path d=" M 345.605 449.655 C 345.435 449.765 345.205 449.725 345.095 449.555 C 329.065 426.155 349.155 399.425 349.355 399.155 C 349.485 398.995 349.715 398.965 349.875 399.085 C 350.045 399.205 350.075 399.445 349.945 399.605 C 349.745 399.865 329.985 426.185 345.705 449.135 C 345.825 449.305 345.775 449.535 345.605 449.655 Z " fill="rgb(84,35,96)"/><path d=" M 401.035 477.855 C 401.605 477.535 401.135 476.665 400.555 476.985 L 394.905 480.105 L 386.795 465.425 C 388.865 469.745 392.735 477.805 394.485 481.455 C 394.675 481.355 401.435 477.635 401.035 477.855 Z " fill="rgb(23,40,102)"/><path d=" M 403.365 453.745 C 395.005 450.275 391.295 458.665 391.255 458.745 C 391.005 459.355 391.915 459.745 392.165 459.135 C 392.295 458.825 395.515 451.555 402.985 454.655 C 403.245 454.755 403.525 454.645 403.635 454.385 C 403.745 454.135 403.625 453.845 403.365 453.745 Z " fill="rgb(23,40,102)"/><path d=" M 375.305 464.405 C 375.085 464.555 375.025 464.865 375.175 465.085 C 375.335 465.315 375.635 465.375 375.865 465.215 C 379.345 462.835 382.445 465.835 382.575 465.965 C 383.035 466.425 383.735 465.725 383.275 465.265 C 383.235 465.225 379.475 461.545 375.305 464.405 Z " fill="rgb(23,40,102)"/><path d=" M 408.685 480.525 L 408.685 480.545 C 408.115 483.935 403.285 487.055 400.155 488.505 L 400.135 488.515 C 399.425 488.845 399.895 489.915 400.625 489.635 C 409.635 486.075 412.085 480.085 409.825 479.705 C 409.285 479.615 408.775 479.985 408.685 480.525 Z " fill="rgb(255,255,255)"/><path d=" M 386.545 468.855 C 389.165 472.685 388.395 477.755 384.835 480.195 C 381.265 482.645 376.255 481.525 373.645 477.705 C 371.025 473.875 371.795 468.805 375.355 466.365 C 378.915 463.925 383.935 465.035 386.545 468.855 Z " fill="rgb(6,10,26)"/><path d=" M 402.665 458.575 C 405.275 462.395 404.515 467.475 400.945 469.915 C 397.385 472.355 392.375 471.235 389.755 467.415 C 387.135 463.595 387.905 458.515 391.465 456.075 C 395.035 453.635 400.045 454.755 402.665 458.575 Z " fill="rgb(6,10,26)"/><clipPath id="_clipPath_ssYpqVdxR5pgOzNIjSie4NeqhFOLmpGa"><path d=" M 378.275 481.135 C 378.275 481.135 378.275 481.135 378.275 481.135 C 378.275 481.135 378.275 481.135 378.275 481.135 L 378.275 481.135 Z  M 378.215 481.125 C 378.215 481.125 378.215 481.115 378.215 481.115 C 378.215 481.115 378.215 481.125 378.215 481.125 Z  M 378.155 481.105 C 378.155 481.105 378.155 481.105 378.155 481.105 C 378.155 481.105 378.155 481.105 378.155 481.105 Z  M 378.095 481.085 C 378.095 481.085 378.095 481.085 378.095 481.085 C 378.095 481.085 378.095 481.085 378.095 481.085 Z  M 378.045 481.065 C 378.035 481.065 378.035 481.065 378.035 481.065 C 378.035 481.065 378.035 481.065 378.045 481.065 Z  M 377.985 481.045 C 377.975 481.045 377.975 481.045 377.975 481.045 C 377.975 481.045 377.975 481.045 377.985 481.045 Z  M 377.925 481.025 C 377.925 481.025 377.915 481.025 377.915 481.025 C 377.915 481.025 377.925 481.025 377.925 481.025 Z  M 377.865 481.005 C 377.865 481.005 377.865 481.005 377.855 481.005 C 377.865 481.005 377.865 481.005 377.865 481.005 Z  M 377.805 480.975 C 377.805 480.975 377.805 480.975 377.805 480.975 C 377.805 480.975 377.805 480.975 377.805 480.975 Z  M 377.395 480.815 C 377.395 480.815 377.395 480.815 377.395 480.815 C 377.395 480.815 377.395 480.815 377.395 480.815 Z  M 377.335 480.795 C 377.335 480.795 377.335 480.785 377.335 480.785 C 377.335 480.785 377.335 480.795 377.335 480.795 Z  M 377.285 480.765 C 377.275 480.765 377.275 480.765 377.275 480.765 C 377.275 480.765 377.275 480.765 377.285 480.765 Z  M 377.225 480.735 C 377.215 480.735 377.215 480.735 377.205 480.735 C 377.215 480.735 377.215 480.735 377.225 480.735 Z  M 377.165 480.715 C 377.155 480.705 377.145 480.705 377.135 480.705 C 377.145 480.705 377.155 480.705 377.165 480.715 Z  M 377.115 480.685 C 377.095 480.685 377.085 480.675 377.065 480.665 C 377.085 480.675 377.095 480.685 377.115 480.685 Z  M 377.055 480.665 C 376.845 480.555 376.635 480.445 376.435 480.325 L 376.435 480.325 C 376.635 480.445 376.845 480.555 377.055 480.665 Z " fill-rule="evenodd" fill="rgb(255,255,255)"/></clipPath><g clip-path="url(#_clipPath_ssYpqVdxR5pgOzNIjSie4NeqhFOLmpGa)"><path d=" M 376.435 480.325 L 378.275 480.325 L 378.275 481.135 L 376.435 481.135 L 376.435 480.325 Z " fill="rgb(56,69,142)"/></g><path d=" M 381.145 465.225 C 381.135 465.225 381.125 465.225 381.125 465.225 C 381.125 465.225 381.135 465.225 381.145 465.225 Z  M 381.095 465.215 C 380.725 465.145 380.345 465.095 379.965 465.075 L 379.965 465.075 C 380.345 465.095 380.725 465.145 381.095 465.215 Z " fill="rgb(205,119,152)"/><path d=" M 378.275 481.135 C 378.275 481.135 378.275 481.135 378.275 481.135 C 378.255 481.135 378.235 481.125 378.215 481.125 C 378.215 481.125 378.215 481.115 378.215 481.115 C 378.195 481.115 378.175 481.105 378.155 481.105 C 378.155 481.105 378.155 481.105 378.155 481.105 C 378.135 481.095 378.115 481.085 378.095 481.085 C 378.095 481.085 378.095 481.085 378.095 481.085 C 378.075 481.075 378.055 481.065 378.045 481.065 C 378.035 481.065 378.035 481.065 378.035 481.065 C 378.015 481.055 377.995 481.045 377.985 481.045 C 377.975 481.045 377.975 481.045 377.975 481.045 C 377.955 481.035 377.935 481.025 377.925 481.025 C 377.925 481.025 377.915 481.025 377.915 481.025 C 377.895 481.015 377.885 481.005 377.865 481.005 C 377.865 481.005 377.865 481.005 377.855 481.005 C 377.845 480.995 377.825 480.985 377.805 480.975 C 377.805 480.975 377.805 480.975 377.805 480.975 C 377.665 480.925 377.525 480.875 377.395 480.815 C 377.395 480.815 377.395 480.815 377.395 480.815 C 377.375 480.805 377.355 480.795 377.335 480.795 C 377.335 480.795 377.335 480.785 377.335 480.785 C 377.315 480.785 377.295 480.775 377.285 480.765 C 377.275 480.765 377.275 480.765 377.275 480.765 C 377.255 480.755 377.235 480.745 377.225 480.735 C 377.215 480.735 377.215 480.735 377.205 480.735 C 377.195 480.725 377.185 480.715 377.165 480.715 C 377.155 480.705 377.145 480.705 377.135 480.705 C 377.135 480.695 377.125 480.695 377.115 480.685 C 377.095 480.685 377.085 480.675 377.065 480.665 C 377.065 480.665 377.065 480.665 377.055 480.665 C 376.845 480.555 376.635 480.445 376.435 480.325 L 379.965 465.075 C 380.345 465.095 380.725 465.145 381.095 465.215 C 381.105 465.215 381.115 465.225 381.125 465.225 C 381.125 465.225 381.135 465.225 381.145 465.225 C 381.405 465.275 381.665 465.345 381.915 465.425 L 378.275 481.135 Z " fill="rgb(45,49,92)"/><path d=" M 380.625 481.495 C 380.625 481.495 380.625 481.495 380.625 481.495 C 380.625 481.495 380.625 481.495 380.635 481.495 C 380.635 481.495 380.625 481.495 380.625 481.495 Z  M 380.675 481.495 C 380.835 481.495 380.985 481.485 381.145 481.475 L 381.145 481.475 C 380.985 481.485 380.835 481.495 380.675 481.495 Z " fill="rgb(56,69,142)"/><path d=" M 383.855 466.295 C 383.795 466.255 383.735 466.225 383.675 466.185 L 383.675 466.185 C 383.735 466.225 383.795 466.255 383.855 466.295 Z " fill="rgb(205,119,152)"/><path d=" M 380.625 481.495 C 380.455 481.495 380.295 481.485 380.125 481.475 L 383.675 466.185 C 383.735 466.225 383.795 466.255 383.855 466.295 C 384.095 466.435 384.325 466.595 384.555 466.765 L 381.145 481.475 C 380.985 481.485 380.835 481.495 380.675 481.495 C 380.665 481.495 380.645 481.495 380.635 481.495 C 380.625 481.495 380.625 481.495 380.625 481.495 Z " fill="rgb(45,49,92)"/><path d=" M 395.225 471.055 C 394.575 470.935 393.945 470.735 393.335 470.455 L 396.935 454.885 C 397.585 454.985 398.225 455.175 398.845 455.435 L 395.225 471.055 Z " fill="rgb(83,87,157)"/><path d=" M 401.405 457.105 C 401.325 457.035 401.255 456.965 401.185 456.905 C 401.255 456.965 401.325 457.035 401.405 457.105 L 401.405 457.105 Z " fill="rgb(159,120,185)"/><path d=" M 397.125 471.195 L 400.545 456.395 C 400.765 456.555 400.975 456.725 401.185 456.905 C 401.255 456.965 401.325 457.035 401.405 457.105 L 398.165 471.075 C 397.815 471.135 397.475 471.175 397.125 471.195 Z " fill="rgb(83,87,157)"/><path d=" M 390.225 466.945 L 386.825 469.265 L 386.265 468.455 L 389.665 466.125 L 390.225 466.945 Z " fill="rgb(23,40,102)"/><path d=" M 402.265 458.275 C 402.485 457.985 407.645 451.165 413.545 448.945 C 414.165 448.715 414.515 449.645 413.895 449.875 C 408.255 451.985 403.105 458.805 403.055 458.875 C 402.665 459.395 401.875 458.805 402.265 458.275 Z " fill="rgb(23,40,102)"/><linearGradient id="_lgradient_127" x1="0" y1="0" x2="1" y2="0" gradientTransform="matrix(60.277,0,0,60.277,363.175,441.735)" gradientUnits="userSpaceOnUse"><stop offset="0%" stop-opacity="1" style="stop-color:rgb(168,21,31)"/><stop offset="100%" stop-opacity="1" style="stop-color:rgb(188,41,51)"/></linearGradient><path d=" M 370.525 460.805 C 370.525 460.805 383.925 442.075 423.455 448.155 C 423.455 448.155 412.185 424.335 403.255 422.815 C 394.325 421.295 363.175 431.675 363.175 440.035 C 363.175 448.395 368.895 460.805 370.525 460.805 Z " fill="url(#_lgradient_127)"/><path d=" M 415.315 463.755 C 415.315 463.755 408.625 454.855 414.505 448.135 C 420.385 441.415 424.975 450.115 423.725 456.795 C 422.475 463.485 415.315 463.755 415.315 463.755 Z " fill="rgb(252,117,117)"/><path d=" M 416.365 450.855 C 412.815 452.095 414.395 457.145 414.545 457.645 C 415.055 459.295 416.115 460.415 418.955 459.165 C 421.805 457.925 419.915 449.625 416.365 450.855 Z " fill="rgb(253,94,90)"/><path d=" M 670.185 896.485 C 670.185 902.315 614.505 907.035 545.825 907.035 C 477.145 907.035 421.475 902.315 421.475 896.485 C 421.475 890.655 477.145 885.935 545.825 885.935 C 614.505 885.935 670.185 890.655 670.185 896.485 Z " fill="rgb(185,188,252)"/><path d=" M 484.965 871.185 L 484.285 885.405 L 452.155 899.145 L 448.555 904.105 L 508.775 901.635 L 496.915 871.965 L 484.965 871.185 Z " fill="rgb(0,0,0)"/><path d=" M 688.875 789.795 L 707.615 784.735 L 716.735 784.735 L 709.135 825.595 L 688.875 828.805 L 699.515 820.185 L 699.515 799.425 L 688.875 803.475 L 688.875 789.795 Z " fill="rgb(0,0,0)"/><path d=" M 763.645 807.185 L 765.345 810.675 C 697.855 844.515 819.565 876.945 882.105 803.055 C 925.845 751.355 866.855 703.175 802.545 682.535 C 759.425 668.685 710.775 665.235 669.065 673.065 C 544.125 696.515 445.875 861.175 375.275 789.535 C 353.125 767.055 344.495 748.175 349.655 733.425 C 357.445 711.135 393.455 707.075 394.985 706.915 L 395.385 710.785 C 395.035 710.825 360.245 714.755 353.275 734.735 C 348.655 747.945 356.975 765.455 377.995 786.775 C 445.165 854.945 543.385 692.685 668.365 669.235 C 710.675 661.295 760.005 664.785 803.705 678.815 C 846.595 692.585 879.245 714.675 893.275 739.415 C 905.805 761.515 902.945 784.405 885.015 805.585 C 816.945 886.025 689.725 844.255 763.645 807.185 Z " fill="rgb(133,119,136)"/><path d=" M 503.415 659.695 C 503.415 659.695 397.475 759.525 397.475 774.495 C 397.475 789.455 483.955 882.175 483.955 882.175 L 509.795 882.175 L 447.555 777.465 L 529.875 703.595 L 503.415 659.695 Z " fill="rgb(51,28,56)"/><path d=" M 559.995 632.315 C 559.995 632.315 580.065 659.695 584.635 671.555 C 589.195 683.425 593.665 803.645 593.665 803.645 L 696.885 784.725 L 693.945 807.015 C 693.945 807.015 573.065 858.975 565.765 851.675 C 558.465 844.365 523.925 705.845 523.925 705.845 L 510.695 683.075 L 497.935 655.135 L 559.995 632.315 Z " fill="rgb(101,56,112)"/><path d=" M 447.215 524.435 C 430.345 509.855 427.665 508.735 420.545 514.545 C 420.545 514.545 403.905 568.965 403.255 597.295 L 429.075 605.805 C 435.235 578.125 460.005 535.495 447.215 524.435 Z " fill="rgb(252,117,117)"/><path d=" M 562.065 579.665 L 560.965 575.245 L 543.245 563.375 L 531.965 563.375 L 529.595 576.215 C 529.595 576.215 540.805 585.895 546.975 586.935 C 553.135 587.985 562.065 579.665 562.065 579.665 Z " fill="rgb(253,94,90)"/><path d=" M 420.545 514.545 C 422.545 507.615 455.765 487.525 478.665 487.965 C 488.035 488.145 489.475 531.305 516.925 564.315 C 542.965 595.635 565.765 630.825 565.765 630.825 C 565.765 630.825 532.995 685.975 486.095 679.785 C 486.095 679.785 406.475 563.265 420.545 514.545 Z " fill="rgb(66,33,11)"/><path d=" M 577.055 612.805 C 576.435 612.715 576.575 611.785 577.195 611.875 C 592.315 614.155 604.675 610.915 613.935 602.265 C 637.345 580.385 633.575 530.695 633.535 530.195 C 633.485 529.575 634.425 529.505 634.475 530.115 C 634.515 530.625 638.315 580.765 614.575 602.945 C 604.325 612.525 591.155 614.925 577.055 612.805 Z " fill="rgb(27,43,128)"/><path d=" M 430.625 525.065 C 428.355 530.875 428.475 539.075 429.425 545.235 C 432.655 564.585 440.095 575.635 448.285 589.565 C 460.855 608.385 491.615 645.905 511.875 658.415 C 490.955 643.255 455.055 599.015 443.125 577.835 L 440.655 573.425 C 432.805 558.185 431.305 549.705 431.385 550.025 C 429.435 543.535 428.305 531.475 430.625 525.065 Z " fill="rgb(255,255,255)"/><path d=" M 608.095 512.035 L 604.085 507.665 L 605.315 506.535 L 609.325 510.895 L 608.095 512.035 Z " fill="rgb(0,0,0)"/><path d=" M 620.995 515.875 L 625.005 520.245 L 623.785 521.385 L 619.775 517.015 L 620.995 515.875 Z " fill="rgb(0,0,0)"/><path d=" M 612.785 527.125 L 616.795 531.495 L 615.575 532.635 L 611.565 528.265 L 612.785 527.125 Z " fill="rgb(0,0,0)"/><path d=" M 605.835 538.045 L 609.845 542.405 L 608.625 543.545 L 604.605 539.175 L 605.835 538.045 Z " fill="rgb(0,0,0)"/><path d=" M 596.855 518.995 L 592.845 514.625 L 594.065 513.485 L 598.075 517.855 L 596.855 518.995 Z " fill="rgb(0,0,0)"/><path d=" M 586.035 526.975 L 582.025 522.605 L 583.245 521.465 L 587.255 525.835 L 586.035 526.975 Z " fill="rgb(0,0,0)"/><path d=" M 603.035 510.345 L 601.905 508.105 C 601.295 506.915 601.555 505.455 602.535 504.545 C 603.515 503.635 604.985 503.485 606.125 504.195 L 608.245 505.505 L 603.035 510.345 Z " fill="rgb(33,25,26)"/><path d=" M 626.065 517.575 L 627.195 519.805 C 627.795 521.005 627.535 522.455 626.555 523.365 C 625.575 524.275 624.115 524.425 622.975 523.725 L 620.845 522.415 L 626.065 517.575 Z " fill="rgb(33,25,26)"/><path d=" M 617.855 528.825 L 618.985 531.055 C 619.595 532.255 619.335 533.705 618.355 534.615 C 617.365 535.525 615.905 535.675 614.765 534.975 L 612.645 533.665 L 617.855 528.825 Z " fill="rgb(33,25,26)"/><path d=" M 610.905 539.735 L 612.035 541.965 C 612.635 543.165 612.375 544.625 611.395 545.535 C 610.415 546.445 608.955 546.585 607.815 545.885 L 605.685 544.575 L 610.905 539.735 Z " fill="rgb(33,25,26)"/><path d=" M 591.785 517.295 L 590.655 515.065 C 590.045 513.865 590.305 512.415 591.285 511.505 C 592.275 510.595 593.735 510.445 594.875 511.145 L 596.995 512.455 L 591.785 517.295 Z " fill="rgb(33,25,26)"/><path d=" M 580.965 525.275 L 579.835 523.045 C 579.235 521.845 579.495 520.395 580.475 519.485 C 581.455 518.575 582.915 518.425 584.055 519.125 L 586.185 520.445 L 580.965 525.275 Z " fill="rgb(33,25,26)"/><path d=" M 491.365 627.465 C 491.365 627.465 453.715 609.415 449.055 611.675 C 444.405 613.935 435.815 642.515 430.375 645.505 C 424.925 648.505 378.545 658.875 372.235 672.085 C 365.935 685.305 384.965 727.695 384.965 727.695 C 384.965 727.695 393.445 721.305 414.385 734.545 C 435.325 747.785 440.745 745.405 449.285 737.485 C 457.815 729.565 470.645 689.685 475.705 684.985 C 480.765 680.295 536.685 667.245 538.575 661.665 C 540.475 656.075 536.215 648.255 518.635 650.145 C 501.055 652.035 490.025 649.905 486.665 646.255 C 483.305 642.595 491.365 627.465 491.365 627.465 Z " fill="rgb(110,30,20)"/><path d=" M 449.225 611.615 L 449.055 611.675 C 444.405 613.935 435.815 642.515 430.375 645.505 C 424.925 648.505 378.545 658.875 372.235 672.085 C 365.935 685.305 384.965 727.695 384.965 727.695 C 384.965 727.695 393.445 721.305 414.385 734.545 C 414.595 734.685 414.815 734.815 415.025 734.945 L 415.025 684.165 L 443.895 676.665 L 449.225 611.615 Z " fill="rgb(255,0,0)"/><path d=" M 451.245 611.135 C 449.275 610.915 448.675 611.075 447.345 612.605 C 442.485 618.585 435.495 639.895 430.785 644.315 L 430.465 644.615 L 430.125 644.835 C 425.545 647.695 379.005 657.955 372.235 672.085 C 372.765 671.275 372.725 671.085 373.965 669.655 C 375.015 669.135 376.545 662.955 414.545 651.375 C 423.035 648.775 429.245 647.025 430.845 646.025 L 431.335 645.685 C 431.535 645.425 432.675 644.895 435.205 640.175 C 439.525 632.085 444.705 617.525 448.065 613.185 C 449.055 611.935 449.545 611.795 451.145 611.955 C 456.075 612.495 467.435 616.975 471.955 618.725 C 467.215 616.555 456.395 611.815 451.245 611.135 Z " fill="rgb(255,255,255)"/><path d=" M 577.025 540.885 C 577.025 540.885 583.145 535.005 580.165 528.155 C 580.165 528.155 625.035 496.905 625.915 497.865 C 626.785 498.815 630.385 502.935 632.855 502.015 C 635.325 501.095 638.105 502.635 635.575 504.985 C 633.045 507.335 605.345 533.045 603.355 544.905 C 603.355 544.905 594.565 541.285 586.825 549.845 C 579.075 558.415 480.095 652.645 480.095 652.645 L 467.695 639.135 L 577.025 540.885 Z " fill="rgb(69,69,81)"/><path d=" M 586.825 549.845 L 584.955 547.815 L 475.965 648.145 L 480.095 652.645 C 480.095 652.645 550.925 585.215 577.435 559.255 L 586.825 549.845 Z " fill="rgb(35,35,43)"/><path d=" M 603.355 544.905 C 605.345 533.045 633.045 507.335 635.575 504.985 C 638.105 502.635 635.325 501.095 632.855 502.015 C 630.385 502.935 626.785 498.815 625.915 497.865 C 625.035 496.905 580.165 528.155 580.165 528.155 C 583.145 535.005 577.025 540.885 577.025 540.885 L 576.815 541.075 L 585.835 550.895 C 586.245 550.465 586.585 550.115 586.825 549.845 C 594.565 541.285 603.355 544.905 603.355 544.905 Z " fill="rgb(33,25,26)"/><path d=" M 632.855 502.015 C 631.955 502.355 630.915 502.025 629.905 501.425 L 581.585 546.275 L 585.835 550.895 C 586.245 550.465 586.585 550.115 586.825 549.845 C 594.565 541.285 603.355 544.905 603.355 544.905 C 605.345 533.045 633.045 507.335 635.575 504.985 C 638.105 502.635 635.325 501.095 632.855 502.015 Z " fill="rgb(0,0,0)"/><path d=" M 578.715 554.625 L 572.735 548.105 L 576.685 544.445 L 582.665 550.955 L 578.715 554.625 Z " fill="rgb(255,187,125)"/><path d=" M 563.315 569.615 L 556.985 562.725 L 560.775 559.205 L 567.105 566.095 L 563.315 569.615 Z " fill="rgb(255,187,125)"/><path d=" M 549.565 582.375 L 543.245 575.485 L 547.035 571.965 L 553.355 578.855 L 549.565 582.375 Z " fill="rgb(255,187,125)"/><path d=" M 537.295 593.765 L 530.675 586.555 L 534.465 583.035 L 541.085 590.245 L 537.295 593.765 Z " fill="rgb(255,187,125)"/><path d=" M 527.055 603.855 L 520.145 596.335 L 523.035 593.645 L 529.955 601.165 L 527.055 603.855 Z " fill="rgb(255,187,125)"/><path d=" M 513.045 616.865 L 505.935 609.125 L 508.885 606.385 L 515.995 614.125 L 513.045 616.865 Z " fill="rgb(255,187,125)"/><path d=" M 501.295 627.765 L 494.195 620.025 L 496.725 617.685 L 503.825 625.415 L 501.295 627.765 Z " fill="rgb(255,187,125)"/><path d=" M 495.975 633.975 L 488.245 625.555 L 489.345 624.525 L 497.085 632.945 L 495.975 633.975 Z " fill="rgb(255,187,125)"/><path d=" M 489.925 639.595 L 482.185 631.175 L 483.345 630.095 L 491.085 638.525 L 489.925 639.595 Z " fill="rgb(255,187,125)"/><path d=" M 484.705 644.435 L 476.295 635.275 L 477.135 634.485 L 485.555 643.655 L 484.705 644.435 Z " fill="rgb(255,187,125)"/><path d=" M 472.345 663.375 L 456.045 645.625 C 455.185 644.695 455.245 643.235 456.175 642.365 L 463.805 635.275 C 464.735 634.415 466.195 634.475 467.055 635.405 L 483.355 653.155 C 484.215 654.095 484.155 655.555 483.225 656.415 L 475.585 663.505 C 474.655 664.375 473.205 664.315 472.345 663.375 Z " fill="rgb(230,230,230)"/><path d=" M 471.625 661.105 L 458.775 647.115 C 458.185 646.475 458.225 645.465 458.865 644.875 L 465.605 638.615 C 466.245 638.025 467.245 638.065 467.835 638.705 L 480.675 652.695 C 481.275 653.335 481.235 654.335 480.595 654.935 L 473.855 661.195 C 473.205 661.785 472.215 661.745 471.625 661.105 Z " fill="rgb(21,21,35)"/><path d=" M 467.625 643.255 C 467.165 643.685 466.445 643.655 466.015 643.195 C 465.585 642.725 465.615 642.005 466.075 641.575 C 466.535 641.145 467.265 641.175 467.685 641.645 C 468.115 642.105 468.085 642.825 467.625 643.255 Z " fill="rgb(153,153,153)"/><path d=" M 463.715 646.885 C 463.255 647.315 462.535 647.285 462.105 646.825 C 461.675 646.355 461.705 645.635 462.165 645.205 C 462.625 644.775 463.345 644.805 463.775 645.275 C 464.205 645.735 464.175 646.455 463.715 646.885 Z " fill="rgb(153,153,153)"/><path d=" M 469.775 645.605 C 469.315 646.035 468.595 646.005 468.165 645.535 C 467.745 645.075 467.765 644.345 468.235 643.915 C 468.695 643.495 469.415 643.525 469.835 643.985 C 470.265 644.445 470.235 645.175 469.775 645.605 Z " fill="rgb(153,153,153)"/><path d=" M 465.865 649.235 C 465.405 649.655 464.685 649.635 464.255 649.165 C 463.835 648.705 463.855 647.975 464.325 647.545 C 464.785 647.125 465.505 647.155 465.925 647.615 C 466.355 648.075 466.325 648.805 465.865 649.235 Z " fill="rgb(153,153,153)"/><path d=" M 471.815 647.825 C 471.355 648.255 470.635 648.225 470.205 647.755 C 469.785 647.295 469.815 646.575 470.275 646.145 C 470.735 645.715 471.455 645.745 471.885 646.205 C 472.305 646.675 472.285 647.395 471.815 647.825 Z " fill="rgb(153,153,153)"/><path d=" M 467.905 651.455 C 467.445 651.885 466.725 651.855 466.295 651.395 C 465.875 650.925 465.905 650.205 466.365 649.775 C 466.825 649.345 467.545 649.375 467.975 649.835 C 468.395 650.305 468.375 651.025 467.905 651.455 Z " fill="rgb(153,153,153)"/><path d=" M 474.115 650.325 C 473.655 650.755 472.935 650.725 472.505 650.265 C 472.085 649.795 472.115 649.075 472.575 648.645 C 473.035 648.215 473.755 648.245 474.185 648.715 C 474.605 649.175 474.575 649.905 474.115 650.325 Z " fill="rgb(153,153,153)"/><path d=" M 470.205 653.955 C 469.745 654.385 469.025 654.355 468.595 653.895 C 468.175 653.425 468.205 652.705 468.665 652.275 C 469.125 651.845 469.845 651.875 470.275 652.345 C 470.695 652.805 470.665 653.525 470.205 653.955 Z " fill="rgb(153,153,153)"/><path d=" M 475.945 652.315 C 475.485 652.745 474.765 652.715 474.335 652.245 C 473.905 651.785 473.935 651.065 474.395 650.635 C 474.855 650.205 475.575 650.235 476.005 650.695 C 476.435 651.165 476.405 651.885 475.945 652.315 Z " fill="rgb(153,153,153)"/><path d=" M 472.035 655.945 C 471.565 656.375 470.845 656.345 470.425 655.885 C 469.995 655.415 470.025 654.695 470.485 654.265 C 470.945 653.835 471.665 653.865 472.095 654.325 C 472.525 654.795 472.495 655.515 472.035 655.945 Z " fill="rgb(153,153,153)"/><path d=" M 478.275 654.855 C 477.815 655.285 477.095 655.255 476.665 654.795 C 476.245 654.325 476.275 653.605 476.735 653.175 C 477.195 652.745 477.915 652.775 478.345 653.245 C 478.765 653.705 478.735 654.425 478.275 654.855 Z " fill="rgb(153,153,153)"/><path d=" M 474.365 658.485 C 473.905 658.915 473.185 658.885 472.755 658.425 C 472.335 657.955 472.365 657.235 472.825 656.805 C 473.285 656.375 474.005 656.405 474.435 656.875 C 474.855 657.335 474.825 658.055 474.365 658.485 Z " fill="rgb(153,153,153)"/><path d=" M 465.455 637.245 C 465.155 637.525 464.675 637.505 464.385 637.195 C 464.105 636.895 464.125 636.405 464.435 636.125 C 464.735 635.835 465.215 635.855 465.505 636.165 C 465.785 636.475 465.765 636.955 465.455 637.245 Z " fill="rgb(69,69,81)"/><path d=" M 457.735 644.625 C 457.445 644.885 457.005 644.865 456.745 644.585 C 456.485 644.295 456.495 643.855 456.785 643.595 C 457.065 643.325 457.505 643.345 457.775 643.635 C 458.035 643.915 458.015 644.365 457.735 644.625 Z " fill="rgb(69,69,81)"/><path d=" M 482.525 655.985 C 482.225 656.275 481.745 656.255 481.455 655.945 C 481.175 655.635 481.195 655.155 481.505 654.865 C 481.805 654.585 482.285 654.605 482.575 654.915 C 482.855 655.225 482.835 655.705 482.525 655.985 Z " fill="rgb(69,69,81)"/><path d=" M 474.805 663.365 C 474.515 663.635 474.075 663.615 473.815 663.325 C 473.555 663.045 473.565 662.595 473.855 662.335 C 474.135 662.075 474.575 662.095 474.845 662.375 C 475.105 662.665 475.085 663.105 474.805 663.365 Z " fill="rgb(69,69,81)"/><path d=" M 448.645 685.375 L 432.345 667.625 C 431.485 666.695 431.535 665.235 432.475 664.365 L 440.105 657.275 C 441.035 656.415 442.495 656.475 443.355 657.405 L 459.655 675.155 C 460.515 676.095 460.455 677.555 459.525 678.415 L 451.885 685.505 C 450.955 686.365 449.505 686.315 448.645 685.375 Z " fill="rgb(230,230,230)"/><path d=" M 447.925 683.105 L 435.075 669.115 C 434.485 668.475 434.525 667.465 435.165 666.875 L 441.905 660.615 C 442.545 660.025 443.545 660.065 444.135 660.705 L 456.975 674.695 C 457.575 675.335 457.535 676.335 456.895 676.935 L 450.145 683.195 C 449.505 683.785 448.515 683.745 447.925 683.105 Z " fill="rgb(21,21,35)"/><path d=" M 443.925 665.255 C 443.465 665.685 442.745 665.655 442.315 665.195 C 441.885 664.725 441.915 664.005 442.375 663.575 C 442.835 663.145 443.555 663.175 443.985 663.635 C 444.415 664.105 444.385 664.825 443.925 665.255 Z " fill="rgb(153,153,153)"/><path d=" M 440.015 668.885 C 439.555 669.315 438.825 669.285 438.405 668.825 C 437.975 668.355 438.005 667.635 438.465 667.205 C 438.925 666.775 439.645 666.805 440.075 667.265 C 440.505 667.735 440.475 668.455 440.015 668.885 Z " fill="rgb(153,153,153)"/><path d=" M 446.075 667.605 C 445.615 668.025 444.895 668.005 444.465 667.535 C 444.045 667.075 444.065 666.345 444.535 665.915 C 444.995 665.485 445.715 665.515 446.135 665.985 C 446.565 666.445 446.535 667.175 446.075 667.605 Z " fill="rgb(153,153,153)"/><path d=" M 442.165 671.235 C 441.705 671.655 440.985 671.635 440.555 671.165 C 440.125 670.705 440.155 669.975 440.625 669.545 C 441.085 669.125 441.805 669.145 442.225 669.615 C 442.655 670.075 442.625 670.805 442.165 671.235 Z " fill="rgb(153,153,153)"/><path d=" M 448.115 669.825 C 447.655 670.255 446.935 670.225 446.505 669.755 C 446.085 669.295 446.115 668.575 446.575 668.145 C 447.035 667.715 447.755 667.745 448.185 668.205 C 448.605 668.675 448.575 669.395 448.115 669.825 Z " fill="rgb(153,153,153)"/><path d=" M 444.205 673.455 C 443.745 673.885 443.025 673.855 442.595 673.385 C 442.175 672.925 442.205 672.205 442.665 671.775 C 443.125 671.345 443.845 671.375 444.275 671.835 C 444.695 672.305 444.665 673.025 444.205 673.455 Z " fill="rgb(153,153,153)"/><path d=" M 450.415 672.325 C 449.955 672.755 449.235 672.725 448.805 672.265 C 448.385 671.795 448.415 671.075 448.875 670.645 C 449.335 670.215 450.055 670.245 450.485 670.715 C 450.905 671.175 450.875 671.895 450.415 672.325 Z " fill="rgb(153,153,153)"/><path d=" M 446.505 675.955 C 446.045 676.385 445.325 676.355 444.895 675.895 C 444.475 675.425 444.495 674.705 444.965 674.275 C 445.425 673.845 446.145 673.875 446.575 674.345 C 446.995 674.805 446.965 675.525 446.505 675.955 Z " fill="rgb(153,153,153)"/><path d=" M 452.245 674.315 C 451.785 674.745 451.055 674.715 450.635 674.245 C 450.205 673.785 450.235 673.065 450.695 672.635 C 451.155 672.205 451.875 672.235 452.305 672.695 C 452.735 673.165 452.705 673.885 452.245 674.315 Z " fill="rgb(153,153,153)"/><path d=" M 448.335 677.945 C 447.865 678.375 447.145 678.345 446.725 677.875 C 446.295 677.415 446.325 676.695 446.785 676.265 C 447.245 675.835 447.965 675.865 448.395 676.325 C 448.825 676.795 448.795 677.515 448.335 677.945 Z " fill="rgb(153,153,153)"/><path d=" M 454.575 676.855 C 454.115 677.285 453.395 677.255 452.965 676.795 C 452.545 676.325 452.575 675.605 453.035 675.175 C 453.495 674.745 454.215 674.775 454.645 675.235 C 455.065 675.705 455.035 676.425 454.575 676.855 Z " fill="rgb(153,153,153)"/><path d=" M 450.665 680.485 C 450.205 680.915 449.485 680.885 449.055 680.425 C 448.635 679.955 448.665 679.235 449.125 678.805 C 449.585 678.375 450.305 678.405 450.735 678.875 C 451.155 679.335 451.125 680.055 450.665 680.485 Z " fill="rgb(153,153,153)"/><path d=" M 441.755 659.245 C 441.455 659.525 440.975 659.505 440.685 659.195 C 440.405 658.895 440.425 658.405 440.735 658.125 C 441.035 657.835 441.515 657.855 441.805 658.165 C 442.085 658.475 442.065 658.955 441.755 659.245 Z " fill="rgb(69,69,81)"/><path d=" M 434.035 666.625 C 433.745 666.885 433.305 666.865 433.045 666.585 C 432.785 666.295 432.795 665.855 433.085 665.595 C 433.365 665.325 433.805 665.345 434.075 665.635 C 434.335 665.915 434.315 666.365 434.035 666.625 Z " fill="rgb(69,69,81)"/><path d=" M 458.825 677.985 C 458.525 678.275 458.045 678.255 457.755 677.945 C 457.475 677.635 457.495 677.155 457.805 676.865 C 458.105 676.585 458.585 676.605 458.875 676.915 C 459.155 677.225 459.135 677.705 458.825 677.985 Z " fill="rgb(69,69,81)"/><path d=" M 451.105 685.365 C 450.815 685.635 450.375 685.615 450.115 685.325 C 449.855 685.045 449.865 684.595 450.155 684.335 C 450.435 684.075 450.875 684.095 451.135 684.375 C 451.405 684.665 451.385 685.105 451.105 685.365 Z " fill="rgb(69,69,81)"/><path d=" M 423.245 672.885 L 429.405 667.165 L 449.355 688.885 L 443.195 694.605 L 423.245 672.885 Z " fill="rgb(153,153,153)"/><path d=" M 443.235 693.535 L 424.305 672.925 L 429.365 668.235 L 448.295 688.845 L 443.235 693.535 Z " fill="rgb(69,54,89)"/><path d=" M 428.755 677.775 L 427.555 676.465 L 432.655 671.735 L 433.855 673.045 L 428.755 677.775 Z " fill="rgb(128,128,128)"/><path d=" M 431.195 680.425 L 429.985 679.115 L 435.085 674.385 L 436.285 675.695 L 431.195 680.425 Z " fill="rgb(128,128,128)"/><path d=" M 433.625 683.075 L 432.425 681.765 L 437.515 677.035 L 438.725 678.345 L 433.625 683.075 Z " fill="rgb(128,128,128)"/><path d=" M 436.055 685.725 L 434.855 684.405 L 439.945 679.685 L 441.155 680.995 L 436.055 685.725 Z " fill="rgb(128,128,128)"/><path d=" M 438.495 688.375 L 437.285 687.055 L 442.385 682.325 L 443.585 683.645 L 438.495 688.375 Z " fill="rgb(128,128,128)"/><path d=" M 440.445 690.545 L 439.245 689.235 L 444.345 684.505 L 445.545 685.815 L 440.445 690.545 Z " fill="rgb(128,128,128)"/><path d=" M 430.215 671.805 C 430.155 672.705 429.365 673.395 428.465 673.325 C 427.565 673.265 426.875 672.475 426.945 671.565 C 427.005 670.655 427.795 669.975 428.695 670.035 C 429.595 670.105 430.285 670.895 430.215 671.805 Z " fill="rgb(0,0,0)"/><path d=" M 420.925 681.205 C 420.855 682.105 420.075 682.795 419.165 682.725 C 418.265 682.665 417.585 681.875 417.645 680.965 C 417.715 680.055 418.495 679.375 419.405 679.435 C 420.305 679.505 420.985 680.295 420.925 681.205 Z " fill="rgb(255,183,105)"/><path d=" M 446.595 689.635 C 446.535 690.545 445.745 691.225 444.845 691.165 C 443.945 691.095 443.255 690.305 443.325 689.405 C 443.385 688.495 444.175 687.805 445.075 687.875 C 445.975 687.935 446.665 688.725 446.595 689.635 Z " fill="rgb(0,0,0)"/><path d=" M 435.505 699.895 L 418.915 681.835 L 419.915 680.895 L 436.505 698.965 L 435.505 699.895 Z " fill="rgb(255,183,105)"/><path d=" M 418.905 684.495 L 415.875 681.195 L 419.665 677.675 L 422.695 680.975 L 418.905 684.495 Z " fill="rgb(69,54,89)"/><path d=" M 416.945 681.235 L 419.625 678.745 L 421.625 680.925 L 418.945 683.425 L 416.945 681.235 Z " fill="rgb(51,51,51)"/><path d=" M 436.795 699.325 C 436.735 700.235 435.955 700.915 435.045 700.855 C 434.145 700.785 433.465 699.995 433.525 699.085 C 433.595 698.185 434.375 697.495 435.275 697.565 C 436.185 697.625 436.865 698.415 436.795 699.325 Z " fill="rgb(255,183,105)"/><path d=" M 434.785 702.615 L 431.755 699.315 L 435.545 695.795 L 438.575 699.095 L 434.785 702.615 Z " fill="rgb(69,54,89)"/><path d=" M 432.815 699.365 L 435.505 696.865 L 437.505 699.055 L 434.825 701.545 L 432.815 699.365 Z " fill="rgb(51,51,51)"/><path d=" M 425.465 689.725 L 425.475 689.425 L 580.365 544.945 L 610.775 512.505 L 611.075 512.495 L 611.085 512.795 L 580.675 545.255 L 425.775 689.735 L 425.465 689.725 Z " fill="rgb(238,232,48)"/><path d=" M 423.415 686.735 L 423.405 686.725 L 423.425 686.425 L 579.105 543.565 C 579.875 542.655 598.365 520.775 599.045 520.145 L 599.345 520.155 L 599.335 520.465 C 598.805 520.955 586.075 535.985 579.415 543.865 L 423.715 686.745 L 423.415 686.735 Z " fill="rgb(238,232,48)"/><path d=" M 420.605 684.425 L 420.605 684.425 L 420.615 684.125 L 577.875 542.255 L 588.255 528.015 C 588.325 527.915 588.455 527.895 588.555 527.965 C 588.645 528.035 588.665 528.175 588.595 528.275 L 578.195 542.545 L 578.175 542.565 L 420.905 684.445 L 420.605 684.425 Z " fill="rgb(238,232,48)"/><path d=" M 427.715 692.175 L 427.725 691.875 L 582.025 546.745 L 619.835 514.595 C 619.925 514.525 620.055 514.535 620.135 514.625 C 620.205 514.715 620.195 514.855 620.105 514.925 L 582.305 547.075 L 428.025 692.185 L 427.715 692.175 L 427.715 692.175 Z " fill="rgb(238,232,48)"/><path d=" M 431.125 694.295 L 431.135 693.985 L 583.485 548.335 L 610.335 525.675 C 610.425 525.595 610.555 525.605 610.635 525.695 C 610.705 525.795 610.695 525.925 610.605 526.005 L 583.765 548.665 L 431.425 694.305 L 431.125 694.295 L 431.125 694.295 Z " fill="rgb(238,232,48)"/><path d=" M 432.955 696.285 L 432.965 695.985 L 584.895 549.875 L 603.665 537.065 C 603.765 536.995 603.895 537.025 603.965 537.125 C 604.025 537.225 604.005 537.355 603.905 537.425 L 585.165 550.215 L 433.265 696.295 L 432.955 696.285 L 432.955 696.285 Z " fill="rgb(238,232,48)"/><path d=" M 420.675 685.575 L 419.465 684.265 L 422.425 681.515 L 423.635 682.825 L 420.675 685.575 Z " fill="rgb(0,0,0)"/><path d=" M 423.105 688.225 L 421.895 686.915 L 424.865 684.165 L 426.065 685.475 L 423.105 688.225 Z " fill="rgb(0,0,0)"/><path d=" M 425.535 690.875 L 424.335 689.565 L 427.295 686.815 L 428.495 688.125 L 425.535 690.875 Z " fill="rgb(0,0,0)"/><path d=" M 427.965 693.525 L 426.765 692.215 L 429.725 689.465 L 430.935 690.775 L 427.965 693.525 Z " fill="rgb(0,0,0)"/><path d=" M 430.405 696.175 L 429.195 694.865 L 432.165 692.115 L 433.365 693.425 L 430.405 696.175 Z " fill="rgb(0,0,0)"/><path d=" M 432.375 698.325 L 431.165 697.015 L 434.135 694.255 L 435.335 695.575 L 432.375 698.325 Z " fill="rgb(0,0,0)"/><path d=" M 612.665 513.505 C 611.845 514.265 610.575 514.205 609.825 513.385 C 609.065 512.565 609.115 511.285 609.935 510.525 C 610.745 509.765 612.025 509.825 612.775 510.645 C 613.535 511.465 613.485 512.745 612.665 513.505 Z " fill="rgb(51,51,51)"/><path d=" M 612.245 513.045 C 611.685 513.575 610.795 513.535 610.275 512.965 C 609.745 512.395 609.785 511.505 610.355 510.985 C 610.915 510.455 611.805 510.495 612.325 511.065 C 612.855 511.635 612.815 512.525 612.245 513.045 Z " fill="rgb(89,87,87)"/><path d=" M 621.495 516.105 C 620.675 516.865 619.405 516.815 618.645 515.985 C 617.895 515.165 617.945 513.885 618.765 513.125 C 619.575 512.365 620.855 512.425 621.605 513.245 C 622.365 514.065 622.315 515.345 621.495 516.105 Z " fill="rgb(51,51,51)"/><path d=" M 621.075 515.645 C 620.505 516.175 619.625 516.135 619.105 515.565 C 618.575 514.995 618.615 514.105 619.175 513.585 C 619.745 513.055 620.635 513.095 621.155 513.665 C 621.675 514.235 621.645 515.125 621.075 515.645 Z " fill="rgb(89,87,87)"/><path d=" M 611.935 527.435 C 611.125 528.195 609.845 528.145 609.095 527.325 C 608.335 526.495 608.385 525.215 609.205 524.465 C 610.025 523.705 611.295 523.755 612.045 524.575 C 612.805 525.395 612.755 526.675 611.935 527.435 Z " fill="rgb(51,51,51)"/><path d=" M 611.515 526.985 C 610.955 527.505 610.065 527.475 609.545 526.905 C 609.015 526.335 609.055 525.445 609.625 524.915 C 610.185 524.385 611.075 524.425 611.595 524.995 C 612.125 525.565 612.085 526.455 611.515 526.985 Z " fill="rgb(89,87,87)"/><path d=" M 605.075 538.645 C 604.255 539.405 602.985 539.355 602.225 538.535 C 601.475 537.715 601.525 536.435 602.345 535.675 C 603.155 534.915 604.435 534.965 605.185 535.785 C 605.945 536.605 605.895 537.895 605.075 538.645 Z " fill="rgb(51,51,51)"/><path d=" M 604.655 538.195 C 604.085 538.725 603.205 538.685 602.685 538.115 C 602.155 537.545 602.195 536.655 602.755 536.125 C 603.325 535.605 604.215 535.635 604.735 536.205 C 605.255 536.775 605.225 537.665 604.655 538.195 Z " fill="rgb(89,87,87)"/><path d=" M 600.655 521.695 C 599.835 522.455 598.565 522.405 597.815 521.585 C 597.055 520.765 597.105 519.485 597.925 518.725 C 598.745 517.965 600.015 518.015 600.765 518.835 C 601.525 519.665 601.475 520.945 600.655 521.695 Z " fill="rgb(51,51,51)"/><path d=" M 600.235 521.245 C 599.675 521.775 598.785 521.735 598.265 521.165 C 597.735 520.595 597.775 519.705 598.345 519.175 C 598.905 518.655 599.795 518.685 600.315 519.255 C 600.845 519.825 600.805 520.715 600.235 521.245 Z " fill="rgb(89,87,87)"/><path d=" M 589.545 529.565 C 588.735 530.325 587.455 530.275 586.705 529.445 C 585.945 528.625 585.995 527.345 586.815 526.585 C 587.635 525.825 588.905 525.885 589.665 526.705 C 590.415 527.525 590.365 528.805 589.545 529.565 Z " fill="rgb(51,51,51)"/><path d=" M 589.125 529.105 C 588.565 529.635 587.675 529.595 587.155 529.025 C 586.625 528.455 586.665 527.565 587.235 527.045 C 587.795 526.515 588.685 526.555 589.205 527.125 C 589.735 527.695 589.695 528.585 589.125 529.105 Z " fill="rgb(89,87,87)"/><path d=" M 537.925 662.535 C 536.305 663.765 534.405 664.525 532.545 665.275 C 517.855 671.125 480.145 679.895 474.995 684.245 C 474.785 684.555 473.925 684.905 471.365 690.015 C 465.375 702.065 457.785 723.635 450.845 733.945 C 449.405 735.985 447.015 738.135 446.915 738.225 C 441.755 742.765 438.655 743.245 434.665 742.885 C 421.195 740.535 412.375 730.045 398.275 726.795 C 394.375 725.875 389.935 725.505 386.255 727.035 C 389.885 725.755 394.405 726.325 398.125 727.375 C 411.805 731.135 420.405 741.905 434.425 744.715 C 438.975 745.225 443.025 744.845 449.995 738.255 C 450.405 737.715 451.985 736.885 455.815 729.885 C 464.015 714.895 469.635 691.655 476.395 685.755 C 483.705 679.385 517.725 672.345 532.675 665.595 C 534.505 664.725 536.375 663.865 537.925 662.535 Z " fill="rgb(81,16,21)"/><path d=" M 429.165 731.375 C 424.775 731.375 420.045 730.105 415.035 727.305 C 415.025 727.305 415.025 727.305 415.025 727.305 L 415.025 719.485 C 418.705 722.175 422.645 724.175 426.855 724.975 C 428.175 725.215 429.405 725.335 430.575 725.335 C 435.625 725.335 439.385 723.095 443.675 719.425 C 452.495 711.425 457.295 697.545 462.445 686.515 C 461.735 689.635 459.905 696.795 458.215 702.135 C 453.075 719.195 442.755 731.375 429.165 731.375 Z " fill="rgb(159,106,109)"/><path d=" M 415.025 727.305 C 409.355 724.355 403.035 718.805 397.775 710.595 C 393.355 703.525 391.715 698.175 391.735 698.175 C 391.735 698.175 391.735 698.185 391.735 698.195 C 391.345 697.035 392.285 696.115 393.255 696.115 C 393.695 696.115 394.135 696.295 394.475 696.745 C 400.065 704.165 406.905 713.525 415.025 719.485 L 415.025 727.305 Z " fill="rgb(255,87,97)"/><path d=" M 831.125 839.095 L 771.815 839.095 C 763.425 839.095 756.615 832.285 756.615 823.895 L 756.615 733.185 C 756.615 724.785 763.425 717.985 771.815 717.985 L 831.125 717.985 C 839.515 717.985 846.325 724.785 846.325 733.185 L 846.325 823.895 C 846.325 832.285 839.515 839.095 831.125 839.095 Z " fill="rgb(56,26,63)"/><path d=" M 830.085 724.625 C 835.815 727.395 838.995 732.035 839.605 737.575 C 839.775 739.215 839.755 734.785 838.995 811.895 C 838.965 808.525 838.255 736.435 838.285 739.715 C 838.385 732.895 833.545 726.255 825.175 725.235 C 824.045 725.165 825.565 725.135 788.145 725.525 C 787.425 725.535 786.845 724.955 786.835 724.245 C 786.825 723.535 787.405 722.945 788.115 722.935 C 828.885 723.335 825.875 722.955 830.085 724.625 Z " fill="rgb(102,45,145)"/><path d=" M 781.355 858.615 L 772.625 858.615 L 768.425 830.645 L 781.355 830.645 L 781.355 858.615 Z " fill="rgb(56,26,63)"/><path d=" M 819.495 858.615 L 828.225 858.615 L 832.425 830.645 L 819.495 830.645 L 819.495 858.615 Z " fill="rgb(56,26,63)"/><path d=" M 835.335 779.895 C 835.335 797.565 821.005 811.895 803.335 811.895 C 785.665 811.895 771.335 797.565 771.335 779.895 C 771.335 762.225 785.665 747.895 803.335 747.895 C 821.005 747.895 835.335 762.225 835.335 779.895 Z " fill="rgb(101,56,112)"/><path d=" M 818.525 779.895 C 818.525 788.285 811.725 795.085 803.335 795.085 C 794.945 795.085 788.145 788.285 788.145 779.895 C 788.145 771.505 794.945 764.705 803.335 764.705 C 811.725 764.705 818.525 771.505 818.525 779.895 Z " fill="rgb(76,42,84)"/><path d=" M 583.525 557.165 C 582.355 552.265 581.645 549.695 581.225 548.385 L 581.135 548.135 C 580.955 547.595 580.835 547.315 580.745 547.185 C 579.125 543.575 574.505 535.615 574.505 535.615 C 571.475 533.285 574.605 542.395 575.355 543.145 C 575.565 543.355 575.945 544.145 576.365 545.165 C 573.975 543.445 571.635 541.325 571.635 541.325 C 571.635 541.325 562.075 536.635 560.235 538.665 C 559.785 539.175 565.535 540.945 569.355 543.525 C 572.675 545.755 574.995 549.595 575.585 550.695 C 573.365 549.255 569.615 546.945 568.345 546.945 C 566.505 546.945 562.135 548.465 562.965 549.985 C 563.785 551.505 567.905 550.365 567.905 550.365 L 573.865 553.735 C 573.915 553.945 574.025 554.155 574.195 554.365 C 571.615 553.895 568.105 553.315 566.635 553.315 C 564.165 553.315 560.045 552.235 560.745 554.205 C 561.425 556.145 574.885 557.395 575.355 557.785 C 577.235 559.405 574.085 560.875 572.435 560.875 C 568.415 560.875 564.995 559.625 563.195 561.625 C 561.395 563.615 564.095 562.775 568.965 563.955 C 573.845 565.125 567.325 570.075 567.325 573.355 C 567.325 574.615 563.655 576.315 560.965 575.245 L 546.465 589.195 C 546.985 589.205 568.795 588.445 572.075 584.805 C 575.365 581.165 586.485 569.605 583.525 557.165 Z " fill="rgb(253,94,90)"/><path d=" M 461.825 696.885 C 461.665 696.735 446.565 681.525 448.185 678.175 C 449.825 674.775 453.955 679.285 456.375 682.015 C 458.855 684.795 462.515 684.335 462.215 682.795 C 461.845 680.885 456.765 680.145 453.025 675.375 C 442.555 662.015 435.865 652.025 435.865 652.025 C 432.395 642.565 430.445 632.965 428.765 616.385 C 428.315 614.395 428.865 607.965 429.645 599.235 L 403.255 597.295 C 400.155 614.535 422.905 655.665 422.905 655.665 C 427.965 662.555 432.735 683.765 435.435 690.395 C 438.035 696.775 441.225 701.425 443.185 703.515 C 443.655 704.005 444.415 703.475 444.135 702.845 C 442.275 698.635 437.055 691.235 439.065 688.565 C 440.215 688.715 441.445 690.705 445.355 697.985 C 447.155 701.345 449.635 705.945 450.365 706.425 C 453.995 707.775 449.785 700.375 447.745 697.135 C 445.645 693.795 443.095 690.495 444.255 688.945 C 444.645 688.435 448.025 692.235 451.615 697.525 C 464.635 716.755 463.315 707.815 456.345 698.855 C 449.985 690.695 446.995 687.095 447.525 686.395 C 448.515 686.365 450.075 688.035 454.795 693.515 C 457.515 696.665 462.565 701.275 463.655 701.475 C 465.665 701.395 463.315 698.355 461.825 696.885 Z " fill="rgb(252,117,117)"/><path d=" M 478.665 487.965 C 478.665 487.965 502.035 488.035 511.825 497.825 C 521.615 507.615 543.245 563.375 543.245 563.375 L 529.595 576.215 C 529.595 576.215 522.235 568.905 501.955 540.795 C 480.035 510.405 478.665 487.965 478.665 487.965 Z " fill="rgb(253,94,90)"/><path d=" M 415.345 416.485 C 416.685 416.485 433.975 428.445 441.055 449.715 C 448.135 470.985 438.045 496.455 410.615 527.125 C 383.185 557.805 384.555 564.135 384.555 565.905 C 384.555 567.685 383.885 550.965 394.045 535.135 C 404.205 519.305 401.295 509.995 401.295 509.995 C 401.295 509.995 371.285 532.145 366.465 549.535 C 366.465 549.535 368.415 523.285 376.435 512.435 C 384.455 501.575 391.025 497.535 391.025 489.675 C 391.025 481.825 370.015 505.125 370.015 505.125 C 370.015 505.125 375.095 493.725 375.095 485.875 C 375.095 478.025 359.885 497.055 355.835 517.295 C 355.835 517.295 355.325 496.415 360.135 484.685 C 364.945 472.955 361.405 472.535 358.365 459.705 C 355.325 446.875 354.815 428.085 365.965 422.665 C 377.105 417.245 389.705 419.015 396.085 415.215 C 402.465 411.415 415.345 416.485 415.345 416.485 Z " fill="rgb(23,40,102)"/><path d=" M 413.735 489.285 C 413.735 489.285 430.745 509.685 431.665 524.775 C 431.955 529.625 437.305 532.505 441.415 529.925 C 443.815 528.415 446.655 525.935 449.955 521.995 C 453.145 518.205 456.845 510.325 454.975 504.445 C 449.225 486.315 422.275 465.455 422.275 465.455 L 413.735 489.285 Z " fill="rgb(252,117,117)"/><path d=" M 430.315 472.285 C 425.675 468.085 422.275 465.455 422.275 465.455 L 413.735 489.285 C 413.735 489.285 418.605 495.135 423.285 502.885 C 427.965 497.875 432.395 488.795 430.315 472.285 Z " fill="rgb(253,94,90)"/><path d=" M 373.015 440.775 C 373.015 440.775 368.365 441.855 368.525 448.645 C 368.675 455.435 376.575 473.085 389.145 485.755 C 401.715 498.415 407.525 502.525 413.845 498.195 C 420.165 493.865 429.975 483.255 425.135 457.805 C 420.285 432.365 402.065 411.885 373.015 440.775 Z " fill="rgb(252,117,117)"/><path d=" M 345.605 449.655 C 345.435 449.765 345.205 449.725 345.095 449.555 C 329.065 426.155 349.155 399.425 349.355 399.155 C 349.485 398.995 349.715 398.965 349.875 399.085 C 350.045 399.205 350.075 399.445 349.945 399.605 C 349.745 399.865 329.985 426.185 345.705 449.135 C 345.825 449.305 345.775 449.535 345.605 449.655 Z " fill="rgb(84,35,96)"/><path d=" M 401.035 477.855 C 401.605 477.535 401.135 476.665 400.555 476.985 L 394.905 480.105 L 386.795 465.425 C 388.865 469.745 392.735 477.805 394.485 481.455 C 394.675 481.355 401.435 477.635 401.035 477.855 Z " fill="rgb(23,40,102)"/><path d=" M 403.365 453.745 C 395.005 450.275 391.295 458.665 391.255 458.745 C 391.005 459.355 391.915 459.745 392.165 459.135 C 392.295 458.825 395.515 451.555 402.985 454.655 C 403.245 454.755 403.525 454.645 403.635 454.385 C 403.745 454.135 403.625 453.845 403.365 453.745 Z " fill="rgb(23,40,102)"/><path d=" M 375.305 464.405 C 375.085 464.555 375.025 464.865 375.175 465.085 C 375.335 465.315 375.635 465.375 375.865 465.215 C 379.345 462.835 382.445 465.835 382.575 465.965 C 383.035 466.425 383.735 465.725 383.275 465.265 C 383.235 465.225 379.475 461.545 375.305 464.405 Z " fill="rgb(23,40,102)"/><path d=" M 408.685 480.525 L 408.685 480.545 C 408.115 483.935 403.285 487.055 400.155 488.505 L 400.135 488.515 C 399.425 488.845 399.895 489.915 400.625 489.635 C 409.635 486.075 412.085 480.085 409.825 479.705 C 409.285 479.615 408.775 479.985 408.685 480.525 Z " fill="rgb(255,255,255)"/><path d=" M 386.545 468.855 C 389.165 472.685 388.395 477.755 384.835 480.195 C 381.265 482.645 376.255 481.525 373.645 477.705 C 371.025 473.875 371.795 468.805 375.355 466.365 C 378.915 463.925 383.935 465.035 386.545 468.855 Z " fill="rgb(6,10,26)"/><path d=" M 402.665 458.575 C 405.275 462.395 404.515 467.475 400.945 469.915 C 397.385 472.355 392.375 471.235 389.755 467.415 C 387.135 463.595 387.905 458.515 391.465 456.075 C 395.035 453.635 400.045 454.755 402.665 458.575 Z " fill="rgb(6,10,26)"/><clipPath id="_clipPath_TIf5c380APduqFo2E6bjtFqtUx3P3ZaL"><path d=" M 378.275 481.135 C 378.275 481.135 378.275 481.135 378.275 481.135 C 378.275 481.135 378.275 481.135 378.275 481.135 L 378.275 481.135 Z  M 378.215 481.125 C 378.215 481.125 378.215 481.115 378.215 481.115 C 378.215 481.115 378.215 481.125 378.215 481.125 Z  M 378.155 481.105 C 378.155 481.105 378.155 481.105 378.155 481.105 C 378.155 481.105 378.155 481.105 378.155 481.105 Z  M 378.095 481.085 C 378.095 481.085 378.095 481.085 378.095 481.085 C 378.095 481.085 378.095 481.085 378.095 481.085 Z  M 378.045 481.065 C 378.035 481.065 378.035 481.065 378.035 481.065 C 378.035 481.065 378.035 481.065 378.045 481.065 Z  M 377.985 481.045 C 377.975 481.045 377.975 481.045 377.975 481.045 C 377.975 481.045 377.975 481.045 377.985 481.045 Z  M 377.925 481.025 C 377.925 481.025 377.915 481.025 377.915 481.025 C 377.915 481.025 377.925 481.025 377.925 481.025 Z  M 377.865 481.005 C 377.865 481.005 377.865 481.005 377.855 481.005 C 377.865 481.005 377.865 481.005 377.865 481.005 Z  M 377.805 480.975 C 377.805 480.975 377.805 480.975 377.805 480.975 C 377.805 480.975 377.805 480.975 377.805 480.975 Z  M 377.395 480.815 C 377.395 480.815 377.395 480.815 377.395 480.815 C 377.395 480.815 377.395 480.815 377.395 480.815 Z  M 377.335 480.795 C 377.335 480.795 377.335 480.785 377.335 480.785 C 377.335 480.785 377.335 480.795 377.335 480.795 Z  M 377.285 480.765 C 377.275 480.765 377.275 480.765 377.275 480.765 C 377.275 480.765 377.275 480.765 377.285 480.765 Z  M 377.225 480.735 C 377.215 480.735 377.215 480.735 377.205 480.735 C 377.215 480.735 377.215 480.735 377.225 480.735 Z  M 377.165 480.715 C 377.155 480.705 377.145 480.705 377.135 480.705 C 377.145 480.705 377.155 480.705 377.165 480.715 Z  M 377.115 480.685 C 377.095 480.685 377.085 480.675 377.065 480.665 C 377.085 480.675 377.095 480.685 377.115 480.685 Z  M 377.055 480.665 C 376.845 480.555 376.635 480.445 376.435 480.325 L 376.435 480.325 C 376.635 480.445 376.845 480.555 377.055 480.665 Z " fill-rule="evenodd" fill="rgb(255,255,255)"/></clipPath><g clip-path="url(#_clipPath_TIf5c380APduqFo2E6bjtFqtUx3P3ZaL)"><path d=" M 376.435 480.325 L 378.275 480.325 L 378.275 481.135 L 376.435 481.135 L 376.435 480.325 Z " fill="rgb(56,69,142)"/></g><path d=" M 381.145 465.225 C 381.135 465.225 381.125 465.225 381.125 465.225 C 381.125 465.225 381.135 465.225 381.145 465.225 Z  M 381.095 465.215 C 380.725 465.145 380.345 465.095 379.965 465.075 L 379.965 465.075 C 380.345 465.095 380.725 465.145 381.095 465.215 Z " fill="rgb(205,119,152)"/><path d=" M 378.275 481.135 C 378.275 481.135 378.275 481.135 378.275 481.135 C 378.255 481.135 378.235 481.125 378.215 481.125 C 378.215 481.125 378.215 481.115 378.215 481.115 C 378.195 481.115 378.175 481.105 378.155 481.105 C 378.155 481.105 378.155 481.105 378.155 481.105 C 378.135 481.095 378.115 481.085 378.095 481.085 C 378.095 481.085 378.095 481.085 378.095 481.085 C 378.075 481.075 378.055 481.065 378.045 481.065 C 378.035 481.065 378.035 481.065 378.035 481.065 C 378.015 481.055 377.995 481.045 377.985 481.045 C 377.975 481.045 377.975 481.045 377.975 481.045 C 377.955 481.035 377.935 481.025 377.925 481.025 C 377.925 481.025 377.915 481.025 377.915 481.025 C 377.895 481.015 377.885 481.005 377.865 481.005 C 377.865 481.005 377.865 481.005 377.855 481.005 C 377.845 480.995 377.825 480.985 377.805 480.975 C 377.805 480.975 377.805 480.975 377.805 480.975 C 377.665 480.925 377.525 480.875 377.395 480.815 C 377.395 480.815 377.395 480.815 377.395 480.815 C 377.375 480.805 377.355 480.795 377.335 480.795 C 377.335 480.795 377.335 480.785 377.335 480.785 C 377.315 480.785 377.295 480.775 377.285 480.765 C 377.275 480.765 377.275 480.765 377.275 480.765 C 377.255 480.755 377.235 480.745 377.225 480.735 C 377.215 480.735 377.215 480.735 377.205 480.735 C 377.195 480.725 377.185 480.715 377.165 480.715 C 377.155 480.705 377.145 480.705 377.135 480.705 C 377.135 480.695 377.125 480.695 377.115 480.685 C 377.095 480.685 377.085 480.675 377.065 480.665 C 377.065 480.665 377.065 480.665 377.055 480.665 C 376.845 480.555 376.635 480.445 376.435 480.325 L 379.965 465.075 C 380.345 465.095 380.725 465.145 381.095 465.215 C 381.105 465.215 381.115 465.225 381.125 465.225 C 381.125 465.225 381.135 465.225 381.145 465.225 C 381.405 465.275 381.665 465.345 381.915 465.425 L 378.275 481.135 Z " fill="rgb(45,49,92)"/><path d=" M 380.625 481.495 C 380.625 481.495 380.625 481.495 380.625 481.495 C 380.625 481.495 380.625 481.495 380.635 481.495 C 380.635 481.495 380.625 481.495 380.625 481.495 Z  M 380.675 481.495 C 380.835 481.495 380.985 481.485 381.145 481.475 L 381.145 481.475 C 380.985 481.485 380.835 481.495 380.675 481.495 Z " fill="rgb(56,69,142)"/><path d=" M 383.855 466.295 C 383.795 466.255 383.735 466.225 383.675 466.185 L 383.675 466.185 C 383.735 466.225 383.795 466.255 383.855 466.295 Z " fill="rgb(205,119,152)"/><path d=" M 380.625 481.495 C 380.455 481.495 380.295 481.485 380.125 481.475 L 383.675 466.185 C 383.735 466.225 383.795 466.255 383.855 466.295 C 384.095 466.435 384.325 466.595 384.555 466.765 L 381.145 481.475 C 380.985 481.485 380.835 481.495 380.675 481.495 C 380.665 481.495 380.645 481.495 380.635 481.495 C 380.625 481.495 380.625 481.495 380.625 481.495 Z " fill="rgb(45,49,92)"/><path d=" M 395.225 471.055 C 394.575 470.935 393.945 470.735 393.335 470.455 L 396.935 454.885 C 397.585 454.985 398.225 455.175 398.845 455.435 L 395.225 471.055 Z " fill="rgb(83,87,157)"/><path d=" M 401.405 457.105 C 401.325 457.035 401.255 456.965 401.185 456.905 C 401.255 456.965 401.325 457.035 401.405 457.105 L 401.405 457.105 Z " fill="rgb(159,120,185)"/><path d=" M 397.125 471.195 L 400.545 456.395 C 400.765 456.555 400.975 456.725 401.185 456.905 C 401.255 456.965 401.325 457.035 401.405 457.105 L 398.165 471.075 C 397.815 471.135 397.475 471.175 397.125 471.195 Z " fill="rgb(83,87,157)"/><path d=" M 390.225 466.945 L 386.825 469.265 L 386.265 468.455 L 389.665 466.125 L 390.225 466.945 Z " fill="rgb(23,40,102)"/><path d=" M 402.265 458.275 C 402.485 457.985 407.645 451.165 413.545 448.945 C 414.165 448.715 414.515 449.645 413.895 449.875 C 408.255 451.985 403.105 458.805 403.055 458.875 C 402.665 459.395 401.875 458.805 402.265 458.275 Z " fill="rgb(23,40,102)"/><linearGradient id="_lgradient_128" x1="0" y1="0" x2="1" y2="0" gradientTransform="matrix(60.277,0,0,60.277,363.175,441.735)" gradientUnits="userSpaceOnUse"><stop offset="0%" stop-opacity="1" style="stop-color:rgb(168,21,31)"/><stop offset="100%" stop-opacity="1" style="stop-color:rgb(188,41,51)"/></linearGradient><path d=" M 370.525 460.805 C 370.525 460.805 383.925 442.075 423.455 448.155 C 423.455 448.155 412.185 424.335 403.255 422.815 C 394.325 421.295 363.175 431.675 363.175 440.035 C 363.175 448.395 368.895 460.805 370.525 460.805 Z " fill="url(#_lgradient_128)"/><path d=" M 415.315 463.755 C 415.315 463.755 408.625 454.855 414.505 448.135 C 420.385 441.415 424.975 450.115 423.725 456.795 C 422.475 463.485 415.315 463.755 415.315 463.755 Z " fill="rgb(252,117,117)"/><path d=" M 416.365 450.855 C 412.815 452.095 414.395 457.145 414.545 457.645 C 415.055 459.295 416.115 460.415 418.955 459.165 C 421.805 457.925 419.915 449.625 416.365 450.855 Z " fill="rgb(253,94,90)"/></g></svg>