<?xml version="1.0" encoding="UTF-8" standalone="no"?><!-- Generator: Gravit.io --><svg xmlns="http://www.w3.org/2000/svg" xmlns:xlink="http://www.w3.org/1999/xlink" style="isolation:isolate" viewBox="444 115 512.482 678.153" width="512.482pt" height="678.153pt"><defs><clipPath id="_clipPath_AuAa6XXedf2qRuOruml4mYhvXLjfVuYu"><rect x="444" y="115" width="512.482" height="678.153"/></clipPath></defs><g clip-path="url(#_clipPath_AuAa6XXedf2qRuOruml4mYhvXLjfVuYu)"><path d=" M 795.934 454.07 L 647.158 498.264 L 699.48 358.534 L 795.934 454.07 Z " fill="rgb(25,14,28)"/><path d=" M 955.42 780.592 C 955.42 787.529 840.935 793.153 699.71 793.153 C 558.485 793.153 444 787.529 444 780.592 C 444 773.655 558.485 768.031 699.71 768.031 C 840.935 768.031 955.42 773.655 955.42 780.592 Z " fill="rgb(185,188,252)"/><path d=" M 593.828 414.811 C 593.828 414.811 632.572 423.833 634.827 413.086 L 625.141 390.397 L 608.424 390.397 L 593.828 414.811 Z " fill="rgb(26,14,28)"/><path d=" M 697.812 252.267 C 697.812 252.267 726.776 254.796 788.783 318.484 C 813.072 343.431 814.258 409.58 814.258 409.58 L 779.268 405.523 C 779.268 405.523 783.143 347.976 772.05 336.882 C 760.956 325.789 718.315 297.171 718.315 297.171 L 697.812 252.267 Z " fill="rgb(51,28,56)"/><path d=" M 692.312 439.212 L 620.091 607.105 L 603.514 634.011 L 575.099 733.025 L 614.559 737.716 C 614.559 737.716 703.056 485.075 720.815 485.075 C 738.575 485.075 742.039 488.588 742.039 488.588 L 816.629 737.33 L 846.228 736.254 L 772.822 449.974 L 692.312 439.212 Z " fill="rgb(101,56,112)"/><path d=" M 587.519 718.652 L 582.75 737.716 L 573.66 752.265 L 570.83 759.342 L 609.77 759.342 L 601.258 742.359 L 603.735 723.96 L 587.519 718.652 Z " fill="rgb(101,56,112)"/><path d=" M 821.688 729.752 L 820.272 757.613 L 875.793 757.613 C 875.793 757.613 841.855 744.752 840.086 737.716 C 838.317 730.679 836.548 728.206 835.133 728.206 C 833.718 728.206 821.688 729.752 821.688 729.752 Z " fill="rgb(101,56,112)"/><path d=" M 614.559 282.738 C 614.559 282.738 654.61 367.866 666.304 377.367 C 680.179 388.641 678.019 473.116 678.019 473.116 L 772.05 447.64 C 766.347 425.251 754.716 365.65 747.64 348.67 C 740.692 331.994 732.215 303.119 723.877 282.738 C 715.539 262.357 707.348 251.205 688.82 251.205 C 670.292 251.205 622.434 244.755 614.559 282.738 Z " fill="rgb(212,20,90)"/><path d=" M 727.498 349.307 C 732.566 372.952 765.707 439.275 766.963 451.294 L 795.934 454.07 C 790.232 431.682 754.716 365.65 747.64 348.67 C 740.692 331.994 732.215 303.119 723.877 282.738 C 715.54 262.357 707.348 251.205 688.82 251.205 C 685.291 251.205 680.694 250.971 675.515 250.855 C 700.584 278.915 719.544 312.193 727.498 349.307 Z " fill="rgb(49,48,44)"/><path d=" M 643.335 172.112 C 640.279 169.837 635.786 168.709 630.463 170.171 L 631.139 171.939 C 635.819 169.904 640.159 170.398 643.335 172.112 Z " fill="rgb(27,43,128)"/><path d=" M 629.008 181.234 C 629.814 178.623 631.61 175.91 634.13 174.347 C 636.636 172.789 638.492 172.833 640.509 172.789 C 641.256 172.823 641.996 172.972 642.743 173.058 C 642.529 173.022 639.852 172.404 638.25 172.649 C 633.586 172.866 629.715 176.574 628.101 180.963 L 629.008 181.234 Z " fill="rgb(27,43,128)"/><path d=" M 676.355 220.963 C 676.355 220.963 673.954 246.26 681.39 258.673 C 683.777 262.657 681.113 267.823 676.472 268.004 C 673.763 268.11 670.181 267.688 665.448 266.368 C 660.884 265.095 653.702 260.877 651.996 255.231 C 646.731 237.803 656.726 206.773 656.726 206.773 L 676.355 220.963 Z " fill="rgb(252,117,117)"/><path d=" M 654.077 216.51 C 655.466 210.684 656.726 206.773 656.726 206.773 L 676.355 220.963 C 676.355 220.963 675.666 228.214 676.169 236.859 C 669.763 235.438 661.364 230.665 654.077 216.51 Z " fill="rgb(253,94,90)"/><path d=" M 682.267 160.658 C 682.267 160.658 686.524 159.002 690.071 164.442 C 693.618 169.88 696.929 188.091 693.855 204.881 C 690.78 221.671 688.416 228.056 681.084 228.056 C 673.753 228.056 660.273 224.983 650.341 202.28 C 640.409 179.577 643.719 153.563 682.267 160.658 Z " fill="rgb(252,117,117)"/><path d=" M 683.449 174.477 C 685.105 174.477 692.502 175.556 695.07 160.421 C 697.638 145.286 681.436 126.707 670.321 131.673 C 659.206 136.639 673.28 145.286 673.28 145.286 C 673.28 145.286 665.24 140.793 662.875 145.996 C 660.51 151.198 664.057 153.563 662.875 154.746 C 661.692 155.928 654.065 145.306 645.571 153.799 C 637.077 162.293 642.773 167.516 640.645 172.246 C 638.516 176.975 628.752 183.779 638.516 199.678 C 644.72 209.778 655.305 211.679 655.305 211.679 C 655.305 211.679 653.652 206.3 653.652 199.206 C 653.652 192.111 659.327 197.786 659.327 197.786 C 659.327 197.786 656.726 197.242 656.726 190.219 C 656.726 182.675 653.652 176.577 653.652 174.648 C 653.652 172.719 652.942 167.753 660.983 171.063 C 669.023 174.374 683.449 174.477 683.449 174.477 Z " fill="rgb(17,31,89)"/><path d=" M 708.7 152.849 C 708.896 152.849 709.055 152.69 709.055 152.494 C 709.055 125.365 678.747 115.118 678.441 115.018 C 678.256 114.956 678.055 115.059 677.993 115.245 C 677.932 115.431 678.034 115.631 678.22 115.692 C 678.521 115.791 708.346 125.883 708.346 152.494 C 708.346 152.69 708.505 152.849 708.7 152.849 Z " fill="rgb(84,35,96)"/><path d=" M 680.194 205.073 C 679.572 205.133 679.479 204.192 680.102 204.131 L 686.254 203.534 L 684.721 187.563 C 685.419 192.097 686.722 200.55 687.313 204.381 C 687.114 204.401 679.762 205.115 680.194 205.073 Z " fill="rgb(23,40,102)"/><path d=" M 665.32 187.305 C 670.05 180.042 677.511 184.663 677.586 184.711 C 678.115 185.046 677.606 185.845 677.079 185.508 C 676.806 185.335 670.339 181.332 666.113 187.821 C 665.971 188.038 665.68 188.103 665.459 187.96 C 665.239 187.817 665.177 187.524 665.32 187.305 Z " fill="rgb(23,40,102)"/><path d=" M 693.234 180.547 C 693.496 180.547 693.707 180.758 693.707 181.02 C 693.707 181.281 693.496 181.493 693.234 181.493 C 689.196 181.493 688.371 185.536 688.338 185.709 C 688.221 186.322 687.293 186.146 687.409 185.532 C 687.418 185.482 688.404 180.547 693.234 180.547 Z " fill="rgb(23,40,102)"/><path d=" M 675.6 211.317 L 675.614 211.331 C 677.898 213.702 683.395 213.552 686.647 213.006 L 686.667 213.003 C 687.406 212.88 687.623 213.98 686.892 214.147 C 677.854 216.217 672.682 212.813 674.262 211.292 C 674.638 210.929 675.238 210.94 675.6 211.317 Z " fill="rgb(255,255,255)"/><path d=" M 686.77 190.145 C 686.77 194.576 690.121 198.169 694.254 198.169 C 698.388 198.169 701.738 194.576 701.738 190.145 C 701.738 185.714 698.388 182.121 694.254 182.121 C 690.121 182.121 686.77 185.714 686.77 190.145 Z " fill="rgb(23,40,102)"/><path d=" M 668.491 190.736 C 668.491 195.168 671.841 198.76 675.975 198.76 C 680.108 198.76 683.459 195.168 683.459 190.736 C 683.459 186.304 680.108 182.713 675.975 182.713 C 671.841 182.713 668.491 186.304 668.491 190.736 Z " fill="rgb(23,40,102)"/><path d=" M 689.823 183.678 C 689.827 183.675 689.831 183.672 689.834 183.669 C 689.831 183.672 689.827 183.675 689.823 183.678 Z  M 689.862 183.647 C 689.869 183.642 689.875 183.637 689.882 183.632 C 689.875 183.637 689.869 183.642 689.862 183.647 Z  M 689.895 183.621 C 689.904 183.615 689.912 183.608 689.921 183.602 L 689.921 183.602 C 689.912 183.608 689.904 183.615 689.895 183.621 Z " fill="rgb(205,119,152)"/><path d=" M 699.938 195.365 L 688.568 184.928 C 688.94 184.462 689.362 184.042 689.823 183.678 C 689.827 183.675 689.831 183.672 689.834 183.669 C 689.844 183.662 689.853 183.654 689.862 183.647 C 689.869 183.642 689.875 183.637 689.882 183.632 C 689.886 183.628 689.891 183.625 689.895 183.621 C 689.904 183.615 689.912 183.608 689.921 183.602 L 700.952 193.727 C 700.677 194.319 700.335 194.868 699.938 195.365 Z " fill="rgb(56,69,142)"/><path d=" M 687.464 186.766 C 687.464 186.766 687.464 186.765 687.465 186.764 C 687.464 186.765 687.464 186.765 687.464 186.766 Z  M 687.483 186.721 C 687.519 186.64 687.556 186.559 687.594 186.479 L 687.594 186.479 C 687.556 186.559 687.519 186.64 687.483 186.721 Z " fill="rgb(205,119,152)"/><path d=" M 697.855 197.18 L 687.215 187.414 C 687.289 187.193 687.372 186.977 687.464 186.766 C 687.464 186.765 687.464 186.765 687.465 186.764 C 687.471 186.75 687.477 186.735 687.483 186.721 C 687.519 186.64 687.556 186.559 687.595 186.48 L 698.657 196.633 C 698.402 196.833 698.133 197.016 697.855 197.18 Z " fill="rgb(56,69,142)"/><path d=" M 682.116 195.323 C 682.117 195.322 682.118 195.321 682.118 195.32 C 682.118 195.321 682.117 195.322 682.116 195.323 Z  M 682.142 195.283 C 682.146 195.277 682.15 195.271 682.154 195.265 C 682.15 195.271 682.146 195.277 682.142 195.283 Z  M 682.162 195.252 C 682.201 195.191 682.239 195.129 682.276 195.067 L 682.276 195.067 C 682.239 195.129 682.201 195.191 682.162 195.252 Z " fill="rgb(159,120,185)"/><path d=" M 681.114 196.569 L 669.808 186.191 C 670.153 185.652 670.559 185.161 671.014 184.729 L 682.276 195.067 C 682.239 195.129 682.201 195.191 682.162 195.252 C 682.159 195.256 682.157 195.261 682.154 195.265 C 682.15 195.271 682.146 195.277 682.142 195.283 C 682.134 195.295 682.126 195.308 682.118 195.32 C 682.118 195.321 682.117 195.322 682.116 195.323 C 681.822 195.775 681.486 196.192 681.114 196.569 Z " fill="rgb(88,97,181)"/><path d=" M 679.677 197.711 C 679.681 197.709 679.685 197.707 679.688 197.704 L 679.688 197.704 C 679.685 197.707 679.681 197.709 679.677 197.711 Z " fill="rgb(159,120,185)"/><path d=" M 678.797 198.17 L 668.69 188.892 C 668.766 188.544 668.864 188.205 668.98 187.876 L 679.688 197.704 C 679.685 197.707 679.681 197.709 679.677 197.711 C 679.394 197.884 679.1 198.037 678.797 198.17 Z " fill="rgb(88,97,181)"/><path d=" M 682.828 190.618 L 686.769 190.618 L 686.769 189.672 L 682.828 189.672 L 682.828 190.618 Z " fill="rgb(23,40,102)"/><path d=" M 668.643 190.288 C 668.315 190.177 660.55 187.579 654.691 189.025 C 654.083 189.174 654.31 190.093 654.918 189.942 C 660.516 188.561 668.261 191.157 668.339 191.184 C 668.933 191.384 669.234 190.489 668.643 190.288 Z " fill="rgb(23,40,102)"/><path d=" M 661.306 201.669 C 661.306 201.669 661.779 191.026 653.502 188.898 C 645.225 186.77 646.3 196.122 650.901 200.722 C 655.502 205.323 661.306 201.669 661.306 201.669 Z " fill="rgb(252,117,117)"/><path d=" M 653.504 192.056 C 656.972 191.11 658.458 195.952 658.608 196.431 C 659.101 198.007 658.864 199.466 655.948 200.018 C 653.031 200.57 650.035 193.002 653.504 192.056 Z " fill="rgb(253,94,90)"/><path d=" M 693.305 496.81 C 697.097 485.179 714.284 384.069 709.976 360.369 C 702.407 318.725 651.388 252.093 651.191 251.861 C 634.978 254.645 618.709 262.722 614.559 282.738 C 614.559 282.738 654.61 367.866 666.304 377.367 C 680.179 388.641 647.158 498.264 647.158 498.264 C 647.158 498.264 690.09 506.667 693.305 496.81 Z " fill="rgb(49,48,44)"/><path d=" M 604.62 406.317 C 604.62 406.317 605.062 418.197 600.834 420.66 C 596.606 423.122 586.619 430.908 583.076 432.343 C 579.535 433.777 581.92 452.989 583.456 453.639 C 584.991 454.29 587.333 440.075 587.333 440.075 L 595.784 436.652 C 595.784 436.652 592.26 442.591 590.913 448.916 C 590.913 448.916 589.82 457.167 592.308 458.221 C 594.796 459.275 596.12 454.678 597.006 450.695 C 597.892 446.713 603.314 437.272 606.028 438.421 C 608.743 439.57 603.173 449.572 603.358 452.496 C 603.542 455.42 604.976 461.274 607.766 462.455 C 610.555 463.637 611.016 458.14 610.35 453.412 C 609.685 448.685 613.56 439.743 617.172 439.405 C 620.783 439.067 624.296 445.891 623.018 448.906 C 621.741 451.923 619.237 454.686 623.474 454.969 C 627.712 455.252 631.532 448.333 631.396 446.763 C 631.261 445.194 630.242 428.49 627.553 423.082 C 624.863 417.675 622.287 408.848 621.625 404.743 C 620.962 400.639 607.011 397.104 604.62 406.317 Z " fill="rgb(252,117,117)"/><path d=" M 560.734 768.87 L 554.996 764.753 L 875.04 481.326 L 879.279 486.088 L 560.734 768.87 Z " fill="rgb(0,0,0)"/><path d=" M 613.166 770.066 L 608.391 764.753 L 921.487 481.326 L 925.534 486.193 L 613.166 770.066 Z " fill="rgb(0,0,0)"/><path d=" M 825.661 768.87 L 514.865 486.168 L 519.284 481.326 L 829.419 764.753 L 825.661 768.87 Z " fill="rgb(0,0,0)"/><path d=" M 867.628 768.87 L 559.331 485.84 L 564.231 481.326 L 872.183 763.932 L 867.628 768.87 Z " fill="rgb(0,0,0)"/><path d=" M 935.275 493.697 L 498.44 493.697 L 498.44 474.227 L 935.275 474.227 L 935.275 493.697 Z " fill="rgb(66,33,11)"/><path d=" M 935.275 483.962 L 498.44 483.962 L 498.44 474.227 L 935.275 474.227 L 935.275 483.962 Z " fill="rgb(56,26,63)"/><linearGradient id="_lgradient_87" x1="0" y1="0" x2="1" y2="0" gradientTransform="matrix(467.748,0,0,467.75,487.672,464.796)" gradientUnits="userSpaceOnUse"><stop offset="0%" stop-opacity="1" style="stop-color:rgb(53,21,31)"/><stop offset="100%" stop-opacity="1" style="stop-color:rgb(191,0,10)"/></linearGradient><path d=" M 955.42 474.227 L 487.672 474.227 L 487.672 455.365 L 955.42 455.365 L 955.42 474.227 Z " fill="url(#_lgradient_87)"/><path d=" M 664.894 771.893 L 510.144 771.893 C 506.201 771.893 503.004 768.696 503.004 764.753 C 503.004 760.81 506.201 757.613 510.144 757.613 L 664.894 757.613 C 668.837 757.613 672.034 760.81 672.034 764.753 C 672.034 768.696 668.837 771.893 664.894 771.893 Z " fill="rgb(0,0,0)"/><path d=" M 915.257 771.893 L 760.507 771.893 C 756.564 771.893 753.368 768.696 753.368 764.753 C 753.368 760.81 756.564 757.613 760.507 757.613 L 915.257 757.613 C 919.2 757.613 922.397 760.81 922.397 764.753 C 922.397 768.696 919.2 771.893 915.257 771.893 Z " fill="rgb(0,0,0)"/><path d=" M 624.211 264.184 C 624.211 264.184 602.32 274.126 602.32 320.075 C 602.32 363.86 602.32 371.556 602.32 371.556 L 593.828 414.811 C 593.828 414.811 600.23 402.869 616.65 405.523 C 633.07 408.177 634.827 413.086 634.827 413.086 L 634.251 361.953 L 634.251 322.961 C 634.251 322.961 631.771 264.184 624.211 264.184 Z " fill="rgb(51,28,56)"/><path d=" M 779.268 405.523 C 779.268 405.523 793.338 420.936 814.258 409.58 C 814.258 409.58 810.891 406.452 796.763 404.727 C 782.635 403.002 779.268 405.523 779.268 405.523 Z " fill="rgb(26,14,28)"/><path d=" M 807.331 406.686 C 807.331 406.686 805.605 418.197 809.834 420.66 C 814.062 423.122 824.049 430.908 827.591 432.343 C 831.133 433.777 828.747 452.989 827.212 453.639 C 825.677 454.29 823.335 440.075 823.335 440.075 L 814.883 436.652 C 814.883 436.652 818.407 442.591 819.755 448.916 C 819.755 448.916 820.848 457.167 818.36 458.221 C 815.872 459.275 814.548 454.678 813.661 450.695 C 812.775 446.713 807.354 437.272 804.639 438.421 C 801.925 439.57 807.494 449.572 807.31 452.496 C 807.125 455.42 805.692 461.274 802.902 462.455 C 800.112 463.637 799.652 458.14 800.317 453.412 C 800.982 448.685 797.107 439.743 793.496 439.405 C 789.885 439.067 786.372 445.891 787.649 448.906 C 788.927 451.923 791.43 454.686 787.193 454.969 C 782.955 455.252 779.136 448.333 779.272 446.763 C 779.408 445.194 780.426 428.49 783.115 423.082 C 785.805 417.675 788.38 408.848 789.043 404.743 C 789.706 400.639 804.94 397.472 807.331 406.686 Z " fill="rgb(252,117,117)"/><path d=" M 779.719 372.276 C 780.366 389.208 779.268 405.523 779.268 405.523 C 779.268 405.523 782.635 403.002 796.763 404.727 C 810.891 406.452 814.258 409.58 814.258 409.58 C 814.258 409.58 814.013 396.328 811.576 379.46 C 801.905 373.72 791.17 370.625 779.719 372.276 Z " fill="rgb(51,28,56)"/><path d=" M 504.268 464.102 C 504.268 466.117 502.634 467.751 500.619 467.751 C 498.604 467.751 496.971 466.117 496.971 464.102 C 496.971 462.087 498.604 460.453 500.619 460.453 C 502.634 460.453 504.268 462.087 504.268 464.102 Z " fill="rgb(69,54,89)"/><path d=" M 521.118 464.102 C 521.118 466.117 519.485 467.751 517.47 467.751 C 515.454 467.751 513.821 466.117 513.821 464.102 C 513.821 462.087 515.454 460.453 517.47 460.453 C 519.485 460.453 521.118 462.087 521.118 464.102 Z " fill="rgb(69,54,89)"/><path d=" M 569.71 318.618 L 569.643 318.402 C 565.328 287.396 576.767 265.456 587.122 252.51 C 598.338 238.489 610.759 231.698 610.884 231.631 C 611.213 231.454 611.624 231.577 611.801 231.906 C 612.002 232.213 611.856 232.646 611.527 232.824 C 611.404 232.89 599.189 239.576 588.146 253.399 C 577.974 266.131 566.74 287.712 570.985 318.216 C 571.036 318.587 570.778 318.928 570.407 318.98 C 570.114 319.021 569.838 318.868 569.71 318.618 Z " fill="rgb(27,43,128)"/><path d=" M 848.034 444.347 C 847.671 444.347 847.318 444.161 847.119 443.826 C 846.821 443.323 846.987 442.672 847.492 442.372 L 954.879 378.703 C 955.381 378.405 956.034 378.569 956.334 379.075 C 956.632 379.579 956.466 380.231 955.961 380.53 L 848.574 444.199 C 848.404 444.299 848.219 444.347 848.034 444.347 Z " fill="rgb(27,43,128)"/><path d=" M 835.488 445.577 L 835.257 445.552 C 834.685 445.425 834.324 444.858 834.451 444.286 L 864.171 310.537 C 864.3 309.964 864.874 309.61 865.438 309.731 C 866.01 309.858 866.371 310.425 866.244 310.997 L 836.524 444.746 C 836.414 445.24 835.974 445.577 835.488 445.577 Z " fill="rgb(27,43,128)"/><path d=" M 575.098 451.226 C 574.919 451.226 574.737 451.18 574.571 451.085 L 487.144 400.821 C 486.635 400.528 486.459 399.88 486.752 399.372 C 487.043 398.862 487.694 398.686 488.201 398.98 L 575.628 449.244 C 576.137 449.536 576.312 450.185 576.02 450.693 C 575.823 451.035 575.466 451.226 575.098 451.226 Z " fill="rgb(27,43,128)"/><path d=" M 559.33 412.666 C 558.797 412.666 558.338 412.267 558.277 411.725 L 553.942 373.826 C 553.874 373.245 554.293 372.718 554.876 372.652 C 555.446 372.571 555.984 373.002 556.05 373.586 L 560.385 411.484 C 560.452 412.067 560.034 412.592 559.451 412.659 L 559.33 412.666 Z " fill="rgb(27,43,128)"/></g></svg>