<?xml version="1.0" encoding="UTF-8" standalone="no"?><!-- Generator: Gravit.io --><svg xmlns="http://www.w3.org/2000/svg" xmlns:xlink="http://www.w3.org/1999/xlink" style="isolation:isolate" viewBox="386.045 534.569 379.671 669.298" width="379.671pt" height="669.298pt"><defs><clipPath id="_clipPath_cYWXwjrqwGoba2904Zuv7QJtI3X0YIjQ"><rect x="386.045" y="534.569" width="379.671" height="669.298"/></clipPath></defs><g clip-path="url(#_clipPath_cYWXwjrqwGoba2904Zuv7QJtI3X0YIjQ)"><path d=" M 670.104 1193.857 C 670.104 1199.387 613.664 1203.867 544.054 1203.867 C 474.434 1203.867 418.004 1199.387 418.004 1193.857 C 418.004 1188.337 474.434 1183.857 544.054 1183.857 C 613.664 1183.857 670.104 1188.337 670.104 1193.857 Z " fill="rgb(185,188,252)"/><path d=" M 720.454 787.338 C 703.114 786.137 676.344 797.257 662.064 808.547 C 650.904 817.377 645.084 826.867 646.114 834.598 C 647.134 842.288 653.354 843.908 658.394 843.908 L 658.394 843.908 C 668.094 843.908 681.274 837.927 692.774 828.297 C 705.834 817.367 715.614 802.877 720.454 787.338 Z  M 705.524 909.067 C 690.284 909.067 671.794 915.007 656.054 924.958 C 641.164 934.368 631.444 945.567 630.684 954.167 C 629.874 963.407 639.724 967.127 648.144 968.627 C 651.054 969.137 654.044 969.407 657.014 969.407 C 682.164 969.407 710.344 949.977 732.544 917.377 C 725.414 911.868 716.324 909.067 705.524 909.067 Z  M 564.334 1140.167 C 535.754 1140.167 504.684 1133.407 474.494 1120.618 C 447.284 1109.088 429.924 1096.678 429.754 1096.547 L 428.944 1095.967 L 430.794 1092.997 L 431.724 1093.657 C 431.894 1093.778 449.224 1106.088 475.834 1117.357 C 496.594 1126.157 528.794 1136.637 564.274 1136.637 C 569.274 1136.637 574.264 1136.427 579.124 1136.018 C 636.004 1131.178 717.654 1041.067 739.444 974.757 C 745.304 956.907 749.234 933.037 735.204 919.637 C 725.124 934.387 713.384 946.988 701.204 956.137 C 686.364 967.287 671.494 972.937 657.024 972.937 L 657.014 972.937 C 653.844 972.937 650.664 972.657 647.554 972.107 C 629.684 968.928 626.594 960.627 627.164 954.227 C 628.014 944.577 638.264 932.317 653.914 922.238 C 670.444 911.588 689.224 905.477 705.444 905.477 C 716.954 905.477 726.724 908.497 734.494 914.458 C 745.994 896.857 754.744 876.607 759.174 857.307 C 764.034 836.127 763.234 818.387 756.854 806.028 C 750.734 794.158 739.734 787.788 724.144 787.067 C 713.204 824.478 678.564 847.408 658.314 847.408 C 649.434 847.408 643.754 842.918 642.704 835.077 C 641.844 828.567 644.714 821.327 651.014 814.137 C 666.064 796.947 696.974 783.487 721.384 783.487 L 721.544 783.487 C 724.844 770.598 724.774 757.158 721.324 743.528 C 711.294 703.887 697.944 683.898 688.514 674.107 C 679.184 664.437 671.344 664.158 670.474 664.158 L 670.474 664.158 C 670.314 664.158 670.254 664.148 670.234 664.148 L 669.114 663.968 L 670.064 659.687 L 671.184 660.117 C 671.254 660.137 671.374 660.158 671.524 660.187 C 678.324 661.348 684.824 665.158 690.844 671.507 C 700.684 681.898 714.534 702.668 724.644 742.637 C 728.184 756.588 728.324 770.367 725.074 783.588 C 741.604 784.528 753.314 791.497 759.904 804.327 C 766.604 817.398 767.534 835.877 762.574 857.778 C 758.074 877.667 749.064 898.558 737.164 916.697 C 750.214 928.708 751.924 949.058 742.264 977.197 C 731.384 1008.868 705.764 1048.387 675.404 1080.338 C 641.374 1116.137 607.274 1137.167 579.404 1139.537 C 574.484 1139.958 569.414 1140.167 564.334 1140.167 Z " fill="rgb(56,26,63)"/><path d=" M 485.264 1157.598 L 479.064 1177.107 C 479.064 1177.107 472.814 1188.598 475.714 1189.567 C 478.614 1190.527 489.554 1184.727 490.924 1183.087 C 492.294 1181.437 492.864 1162.238 496.244 1160.307 C 499.624 1158.378 496.244 1179.997 496.244 1179.997 L 498.504 1179.797 C 498.504 1179.797 504.464 1153.547 504.464 1148.917 C 504.464 1144.287 499.654 1144.547 499.654 1144.547 L 485.264 1157.598 Z " fill="rgb(35,31,32)"/><path d=" M 582.374 648.018 C 582.374 648.018 594.034 650.067 610.354 669.627 C 626.684 689.187 660.854 724.377 666.204 717.968 C 671.554 711.557 650.084 661.598 646.014 656.728 C 641.944 651.857 633.914 655.487 629.264 649.908 C 624.604 644.327 630.124 629.718 630.124 629.718 L 643.544 636.398 C 643.544 636.398 684.254 694.237 686.824 718.737 C 689.404 743.237 670.504 745.297 652.024 741.697 C 633.554 738.088 600.044 703.607 600.044 703.607 L 582.374 648.018 Z " fill="rgb(89,44,19)"/><path d=" M 525.184 614.158 C 525.184 614.158 523.254 623.047 527.764 625.617 C 532.274 628.197 535.714 624.408 535.714 624.408 C 535.714 624.408 534.704 636.007 548.724 637.768 C 555.854 638.658 559.384 634.658 559.384 634.658 C 559.384 634.658 566.644 642.257 576.384 634.658 C 586.124 627.067 584.044 621.528 584.044 621.528 C 584.044 621.528 591.604 619.538 593.564 611.057 C 595.514 602.577 592.784 594.737 592.784 594.737 C 592.784 594.737 601.574 582.557 599.444 573.028 C 597.314 563.507 594.354 559.478 594.354 559.478 C 594.354 559.478 596.504 550.208 588.984 544.807 C 581.464 539.398 571.294 543.007 571.294 543.007 C 571.294 543.007 563.674 531.168 548.724 535.538 C 533.784 539.918 532.704 547.127 532.704 547.127 C 532.704 547.127 518.684 548.668 516.354 556.648 C 514.014 564.627 516.354 572.857 516.354 572.857 C 516.354 572.857 510.364 573.497 511.654 579.487 C 512.944 585.468 516.354 587.317 516.354 587.317 C 516.354 587.317 509.124 590.958 511.474 596.088 C 513.824 601.208 518.804 600.028 518.804 600.028 C 518.804 600.028 516.514 609.898 518.204 611.927 C 519.894 613.947 525.184 614.158 525.184 614.158 Z " fill="rgb(5,47,67)"/><path d=" M 557.984 562.737 C 557.984 562.737 562.934 554.648 573.094 554.648 C 576.614 554.648 582.374 559.208 582.374 559.208 C 582.374 559.208 587.904 554.177 592.094 559.208 C 596.294 564.228 592.094 567.458 592.094 567.458 C 592.094 567.458 599.834 569.518 602.844 573.117 C 605.844 576.718 603.054 584.268 600.264 584.268 C 600.264 584.268 603.484 588.547 600.044 594.857 C 596.614 601.168 589.524 600.028 589.524 600.028 C 589.524 600.028 592.094 604.747 587.584 608.497 C 583.084 612.237 573.844 608.588 572.124 602.437 C 572.124 602.437 566.744 603.997 564.064 598.088 C 561.384 592.168 565.094 586.038 565.094 586.038 C 565.094 586.038 558.934 579.297 558.934 573.377 C 558.934 567.458 567.394 565.538 567.394 565.538 C 567.394 565.538 553.474 562.737 557.984 562.737 Z " fill="rgb(101,56,112)"/><path d=" M 548.094 614.377 C 547.184 611.387 545.464 640.708 549.724 654.677 C 550.424 656.978 564.354 672.507 570.854 664.658 C 570.854 664.658 566.454 656.148 565.624 643.898 C 564.794 631.648 570.904 625.487 570.904 625.487 C 570.904 625.487 548.974 617.247 548.094 614.377 Z " fill="rgb(114,60,25)"/><path d=" M 548.094 614.377 C 548.974 617.247 570.904 625.487 570.904 625.487 C 570.904 625.487 567.864 628.557 566.364 634.658 C 560.714 634.447 551.724 632.478 546.974 627.898 C 546.994 619.327 547.644 612.898 548.094 614.377 Z " fill="rgb(89,44,19)"/><path d=" M 572.824 564.817 C 576.424 567.268 582.844 574.197 582.314 580.038 C 581.784 585.877 586.244 593.577 584.544 605.648 C 582.844 617.718 576.824 625.228 573.974 626.468 C 571.134 627.708 552.694 624.848 547.954 616.637 C 543.224 608.437 529.294 597.398 541.074 576.427 C 552.854 555.468 565.734 559.997 572.824 564.817 Z " fill="rgb(114,60,25)"/><path d=" M 573.014 594.247 C 575.024 596.127 576.964 596.367 577.334 596.518 C 576.704 597.857 575.934 599.687 574.664 601.668 C 574.924 600.228 575.304 598.848 575.724 597.497 C 572.714 596.697 570.624 593.718 570.264 590.507 C 571.704 593.028 572.144 593.357 573.014 594.247 Z " fill="rgb(0,0,0)"/><path d=" M 566.484 589.497 C 565.314 587.187 562.954 585.348 560.744 586.297 C 558.474 587.348 557.904 589.968 555.704 590.788 C 557.884 591.327 559.504 588.377 561.164 587.708 C 562.774 586.968 564.714 588.197 566.484 589.497 Z " fill="rgb(0,0,0)"/><path d=" M 573.924 590.768 C 575.094 588.458 577.464 586.627 579.664 587.577 C 581.934 588.637 582.494 591.257 584.694 592.088 C 582.514 592.627 580.904 589.658 579.244 588.987 C 577.634 588.237 575.694 589.468 573.924 590.768 Z " fill="rgb(0,0,0)"/><path d=" M 560.134 576.877 C 557.904 576.627 555.724 578.177 554.224 580.127 C 558.214 577.338 560.304 577.978 562.604 579.718 C 564.934 581.447 565.264 582.697 565.904 581.848 C 566.744 580.718 562.974 577.307 560.134 576.877 Z " fill="rgb(0,0,0)"/><path d=" M 578.364 581.177 C 579.554 581.028 580.924 582.057 582.374 582.757 C 579.774 578.648 576.784 578.317 574.264 583.117 C 573.854 583.898 574.774 584.697 575.274 583.997 C 575.274 583.997 577.654 581.268 578.364 581.177 Z " fill="rgb(0,0,0)"/><path d=" M 568.674 608.807 C 568.674 608.807 578.274 605.857 578.274 607.408 C 578.274 608.947 577.334 612.827 577.334 614.158 C 577.334 615.497 576.634 617.427 573.474 617.427 C 570.304 617.427 568.674 610.747 568.674 608.807 Z " fill="rgb(0,0,0)"/><path d=" M 568.674 608.807 C 568.674 609.307 568.774 610.127 568.994 611.057 C 571.084 610.297 575.804 608.778 578.004 609.718 C 578.154 608.797 578.274 607.958 578.274 607.408 C 578.274 605.857 568.674 608.807 568.674 608.807 Z " fill="rgb(255,255,255)"/><path d=" M 550.214 649.908 C 550.214 649.908 533.884 655.348 527.444 673.557 C 521.004 691.768 575.244 771.398 568.674 806.398 C 568.674 806.398 530.894 856.218 526.804 923.518 C 522.714 990.827 524.434 994.428 520.144 999.577 C 515.844 1004.727 499.514 1054.657 497.584 1073.958 C 495.654 1093.257 492.754 1144.087 488.994 1148.598 C 485.234 1153.098 479.324 1179.227 484.264 1179.227 C 489.204 1179.227 491.464 1162.617 496.084 1157.087 C 500.704 1151.557 502.874 1148.407 499.654 1144.547 C 496.424 1140.687 533.024 1069.067 537.754 1057.227 C 542.484 1045.387 543.344 1027.118 548.924 1013.217 C 554.504 999.317 560.524 985.428 560.524 985.428 C 560.524 985.428 570.944 897.278 574.704 892.768 C 578.464 888.268 594.034 888.907 594.034 888.907 C 594.034 888.907 596.974 958.577 600.834 996.157 C 600.834 996.157 608.604 1017.597 605.604 1044.357 C 602.594 1071.127 606.594 1157.988 604.024 1168.027 C 601.444 1178.067 595.964 1193.117 601.444 1193.117 C 606.924 1193.117 608.694 1194.598 611.214 1191.577 C 613.744 1188.557 609.714 1176.518 611.214 1171.117 C 612.724 1165.708 611.104 1159.537 612.074 1158.378 C 612.874 1157.417 629.494 1087.747 635.174 1055.747 C 636.534 1048.097 636.934 1040.287 636.374 1032.528 C 635.664 1022.877 634.674 1008.347 634.674 1003.118 C 634.674 995.007 633.344 838.718 630.764 830.997 C 628.184 823.278 616.904 806.297 614.644 787.768 C 612.394 769.237 618.534 725.228 616.754 705.918 C 614.974 686.617 588.764 651.117 582.374 648.018 C 575.994 644.927 550.214 649.908 550.214 649.908 Z " fill="rgb(114,60,25)"/><path d=" M 634.374 968.667 L 598.204 964.467 C 599.004 975.958 599.894 987.007 600.834 996.157 C 600.834 996.157 601.584 998.238 602.534 1001.898 C 613.934 1001.977 624.944 1002.227 634.674 1002.717 C 634.664 999.558 634.564 986.407 634.374 968.667 Z " fill="rgb(89,44,19)"/><path d=" M 524.994 955.977 C 523.154 992.287 523.604 995.428 520.144 999.577 C 519.604 1000.227 539.564 1002.708 553.354 1002.387 C 557.284 992.907 560.524 985.428 560.524 985.428 C 560.524 985.428 561.794 974.657 563.614 960.458 L 524.994 955.977 Z " fill="rgb(89,44,19)"/><path d=" M 564.324 561.077 C 564.324 561.077 549.884 567.987 554.224 569.987 C 558.554 571.987 555.784 580.127 553.104 580.127 C 550.424 580.127 553.294 585.747 555.854 588.077 C 558.424 590.398 553.584 595.848 551.024 595.848 C 548.464 595.848 557.404 598.468 553.104 604.528 C 548.804 610.588 541.824 607.237 541.824 607.237 C 541.824 607.237 543.544 609.877 541.824 612.377 C 540.104 614.877 527.704 618.668 527.704 611.168 C 527.704 603.668 531.264 603.607 531.264 603.607 C 531.264 603.607 525.424 601.827 524.284 596.848 C 523.154 591.867 530.034 591.867 530.034 591.867 C 530.034 591.867 521.974 588.827 524.164 582.768 C 526.344 576.718 530.774 577.158 530.774 577.158 C 530.774 577.158 520.724 566.137 531.754 559.807 C 537.974 556.237 542.244 558.867 542.244 558.867 C 542.244 558.867 542.604 554.838 551.674 553.637 C 560.744 552.427 564.324 561.077 564.324 561.077 Z " fill="rgb(66,37,73)"/><path d=" M 672.434 666.028 C 672.014 666.028 671.584 665.927 671.174 665.718 L 613.384 636.168 C 611.754 635.327 610.994 633.057 611.694 631.098 C 612.384 629.137 614.284 628.228 615.914 629.067 L 673.704 658.617 C 675.334 659.458 676.094 661.718 675.394 663.687 C 674.874 665.148 673.684 666.028 672.434 666.028 Z " fill="rgb(0,0,0)"/><path d=" M 628.184 627.937 C 625.204 631.168 628.344 645.117 629.364 646.338 C 630.384 647.557 631.834 636.307 631.834 636.307 C 631.834 636.307 631.514 649.937 633.874 650.718 C 636.244 651.487 635.854 639.257 635.854 639.257 C 635.854 639.257 636.994 649.107 639.354 650.747 C 641.714 652.387 639.354 640.038 639.354 640.038 C 639.354 640.038 641.824 649.817 643.544 649.817 C 645.264 649.817 643.894 640.637 643.894 637.768 C 643.894 634.887 640.484 634.307 639.144 632.697 C 637.794 631.088 634.154 628.757 631.194 628.197 C 628.794 627.737 628.714 627.367 628.184 627.937 Z " fill="rgb(114,60,25)"/><path d=" M 600.994 1178.977 C 600.994 1178.977 597.574 1187.667 598.544 1193.488 C 599.514 1199.297 602.414 1200.327 602.414 1200.327 C 602.414 1200.327 612.824 1196.467 612.824 1190.287 C 612.824 1184.117 611.114 1178.187 611.114 1178.187 C 611.114 1178.187 611.324 1188.747 604.344 1189.257 C 597.364 1189.777 600.994 1178.977 600.994 1178.977 Z " fill="rgb(35,31,32)"/><path d=" M 617.344 634.057 C 613.134 642.838 604.294 646.958 597.584 643.257 C 590.884 639.557 588.854 629.437 593.064 620.658 C 597.264 611.867 606.114 607.747 612.824 611.458 C 619.524 615.158 621.554 625.278 617.344 634.057 Z " fill="rgb(89,86,95)"/><path d=" M 619.534 624.408 C 620.834 637.487 607.544 649.937 597.584 643.257 C 608.324 647.447 618.504 636.588 619.534 624.408 Z " fill="rgb(22,22,24)"/><linearGradient id="_lgradient_88" x1="0" y1="0" x2="1" y2="0" gradientTransform="matrix(-59.35,395.666,-395.666,-59.35,605.274,758.297)" gradientUnits="userSpaceOnUse"><stop offset="0%" stop-opacity="1" style="stop-color:rgb(168,12,66)"/><stop offset="100%" stop-opacity="1" style="stop-color:rgb(188,92,135)"/></linearGradient><path d=" M 645.664 996.157 L 634.634 996.157 L 634.634 996.157 L 600.834 996.157 L 555.954 996.157 L 522.094 996.157 L 519.414 996.157 C 519.414 996.157 522.914 898.618 529.904 869.547 C 536.894 840.468 566.484 802.958 566.484 802.958 L 536.794 722.978 C 535.524 718.067 535.634 713.117 536.844 708.577 C 539.294 699.408 546.274 691.908 555.654 689.827 C 571.954 686.228 591.864 682.367 602.454 682.367 C 605.194 682.367 607.304 682.627 608.564 683.218 C 608.564 683.218 608.574 683.218 608.574 683.218 C 608.954 683.478 620.764 691.677 620.764 712.447 C 620.764 733.547 618.414 799.497 622.424 803.807 C 626.444 808.107 635.184 836.718 638.674 855.947 C 640.364 865.237 642.054 898.347 643.354 930.047 C 643.404 931.488 643.464 932.928 643.524 934.357 C 644.004 946.368 644.424 958.028 644.764 967.907 C 644.804 969.157 644.844 970.377 644.884 971.567 C 645.374 986.208 645.664 996.157 645.664 996.157 Z  M 635.794 983.597 C 634.694 983.597 633.804 984.547 633.804 985.727 C 633.804 986.917 634.694 987.868 635.794 987.868 C 636.894 987.868 637.784 986.917 637.784 985.727 C 637.784 984.547 636.894 983.597 635.794 983.597 Z  M 635.794 967.377 C 634.844 967.377 634.074 968.197 634.074 969.217 C 634.074 970.238 634.844 971.067 635.794 971.067 C 636.744 971.067 637.514 970.238 637.514 969.217 C 637.514 968.197 636.744 967.377 635.794 967.377 Z  M 630.694 960.377 C 628.884 960.377 627.424 961.937 627.424 963.877 C 627.424 965.808 628.884 967.377 630.694 967.377 C 632.494 967.377 633.954 965.808 633.954 963.877 C 633.954 961.937 632.494 960.377 630.694 960.377 Z  M 626.644 935.577 C 624.944 935.577 623.564 937.058 623.564 938.877 C 623.564 940.708 624.944 942.178 626.644 942.178 C 628.344 942.178 629.724 940.708 629.724 938.877 C 629.724 937.058 628.344 935.577 626.644 935.577 Z  M 634.674 937.028 C 633.724 937.028 632.954 937.857 632.954 938.877 C 632.954 939.898 633.724 940.727 634.674 940.727 C 635.624 940.727 636.394 939.898 636.394 938.877 C 636.394 937.857 635.624 937.028 634.674 937.028 Z  M 633.804 920.247 C 632.704 920.247 631.814 921.197 631.814 922.387 C 631.814 923.567 632.704 924.518 633.804 924.518 C 634.904 924.518 635.794 923.567 635.794 922.387 C 635.794 921.197 634.904 920.247 633.804 920.247 Z  M 630.694 910.398 C 629.744 910.398 628.974 911.227 628.974 912.247 C 628.974 913.268 629.744 914.088 630.694 914.088 C 631.644 914.088 632.414 913.268 632.414 912.247 C 632.414 911.227 631.644 910.398 630.694 910.398 Z  M 634.674 898.357 C 633.574 898.357 632.684 899.308 632.684 900.497 C 632.684 901.678 633.574 902.627 634.674 902.627 C 635.774 902.627 636.664 901.678 636.664 900.497 C 636.664 899.308 635.774 898.357 634.674 898.357 Z  M 626.644 894.657 C 624.944 894.657 623.564 896.137 623.564 897.967 C 623.564 899.787 624.944 901.268 626.644 901.268 C 628.344 901.268 629.724 899.787 629.724 897.967 C 629.724 896.137 628.344 894.657 626.644 894.657 Z  M 628.544 884.428 C 626.744 884.428 625.284 885.997 625.284 887.937 C 625.284 889.868 626.744 891.437 628.544 891.437 C 630.344 891.437 631.814 889.868 631.814 887.937 C 631.814 885.997 630.344 884.428 628.544 884.428 Z  M 552.774 882.297 C 551.664 882.297 550.774 883.247 550.774 884.428 C 550.774 885.618 551.664 886.567 552.774 886.567 C 553.874 886.567 554.764 885.618 554.764 884.428 C 554.764 883.247 553.874 882.297 552.774 882.297 Z  M 550.064 874.117 C 549.114 874.117 548.344 874.937 548.344 875.958 C 548.344 876.977 549.114 877.808 550.064 877.808 C 551.014 877.808 551.784 876.977 551.784 875.958 C 551.784 874.937 551.014 874.117 550.064 874.117 Z  M 552.494 868.927 C 551.544 868.927 550.774 869.757 550.774 870.778 C 550.774 871.797 551.544 872.617 552.494 872.617 C 553.444 872.617 554.214 871.797 554.214 870.778 C 554.214 869.757 553.444 868.927 552.494 868.927 Z  M 544.994 866.788 C 543.894 866.788 542.994 867.747 542.994 868.927 C 542.994 870.107 543.894 871.067 544.994 871.067 C 546.094 871.067 546.984 870.107 546.984 868.927 C 546.984 867.747 546.094 866.788 544.994 866.788 Z  M 556.214 863.788 C 555.114 863.788 554.214 864.737 554.214 865.918 C 554.214 867.098 555.114 868.057 556.214 868.057 C 557.314 868.057 558.204 867.098 558.204 865.918 C 558.204 864.737 557.314 863.788 556.214 863.788 Z  M 550.244 856.778 C 548.444 856.778 546.984 858.348 546.984 860.278 C 546.984 862.218 548.444 863.788 550.244 863.788 C 552.044 863.788 553.504 862.218 553.504 860.278 C 553.504 858.348 552.044 856.778 550.244 856.778 Z  M 561.494 846.468 C 559.694 846.468 558.234 848.028 558.234 849.968 C 558.234 851.898 559.694 853.468 561.494 853.468 C 563.294 853.468 564.754 851.898 564.754 849.968 C 564.754 848.028 563.294 846.468 561.494 846.468 Z  M 550.244 849.107 C 549.294 849.107 548.524 849.937 548.524 850.958 C 548.524 851.978 549.294 852.807 550.244 852.807 C 551.194 852.807 551.964 851.978 551.964 850.958 C 551.964 849.937 551.194 849.107 550.244 849.107 Z  M 551.784 842.077 C 550.834 842.077 550.064 842.908 550.064 843.927 C 550.064 844.947 550.834 845.768 551.784 845.768 C 552.734 845.768 553.504 844.947 553.504 843.927 C 553.504 842.908 552.734 842.077 551.784 842.077 Z  M 567.504 841.168 C 566.404 841.168 565.504 842.127 565.504 843.307 C 565.504 844.487 566.404 845.447 567.504 845.447 C 568.604 845.447 569.494 844.487 569.494 843.307 C 569.494 842.127 568.604 841.168 567.504 841.168 Z  M 560.224 840.348 C 559.124 840.348 558.234 841.307 558.234 842.487 C 558.234 843.668 559.124 844.627 560.224 844.627 C 561.324 844.627 562.214 843.668 562.214 842.487 C 562.214 841.307 561.324 840.348 560.224 840.348 Z  M 564.644 834.718 C 563.694 834.718 562.924 835.547 562.924 836.567 C 562.924 837.588 563.694 838.418 564.644 838.418 C 565.594 838.418 566.364 837.588 566.364 836.567 C 566.364 835.547 565.594 834.718 564.644 834.718 Z  M 554.494 833.228 C 553.394 833.228 552.494 834.187 552.494 835.367 C 552.494 836.547 553.394 837.507 554.494 837.507 C 555.584 837.507 556.484 836.547 556.484 835.367 C 556.484 834.187 555.584 833.228 554.494 833.228 Z  M 571.034 829.538 C 570.084 829.538 569.314 830.357 569.314 831.377 C 569.314 832.398 570.084 833.228 571.034 833.228 C 571.984 833.228 572.754 832.398 572.754 831.377 C 572.754 830.357 571.984 829.538 571.034 829.538 Z  M 561.494 827.107 C 560.394 827.107 559.504 828.057 559.504 829.237 C 559.504 830.427 560.394 831.377 561.494 831.377 C 562.594 831.377 563.484 830.427 563.484 829.237 C 563.484 828.057 562.594 827.107 561.494 827.107 Z  M 564.884 821.968 C 563.574 821.968 562.514 823.107 562.514 824.518 C 562.514 825.918 563.574 827.057 564.884 827.057 C 566.194 827.057 567.254 825.918 567.254 824.518 C 567.254 823.107 566.194 821.968 564.884 821.968 Z  M 572.754 817.958 C 570.954 817.958 569.494 819.528 569.494 821.458 C 569.494 823.398 570.954 824.958 572.754 824.958 C 574.554 824.958 576.014 823.398 576.014 821.458 C 576.014 819.528 574.554 817.958 572.754 817.958 Z  M 572.754 809.898 C 571.804 809.898 571.034 810.728 571.034 811.747 C 571.034 812.768 571.804 813.588 572.754 813.588 C 573.704 813.588 574.474 812.768 574.474 811.747 C 574.474 810.728 573.704 809.898 572.754 809.898 Z  M 576.014 796.288 C 574.214 796.288 572.754 797.857 572.754 799.788 C 572.754 801.718 574.214 803.288 576.014 803.288 C 577.814 803.288 579.274 801.718 579.274 799.788 C 579.274 797.857 577.814 796.288 576.014 796.288 Z  M 576.014 790.208 C 575.064 790.208 574.294 791.028 574.294 792.047 C 574.294 793.067 575.064 793.898 576.014 793.898 C 576.964 793.898 577.734 793.067 577.734 792.047 C 577.734 791.028 576.964 790.208 576.014 790.208 Z  M 569.494 788.677 C 568.394 788.677 567.504 789.637 567.504 790.817 C 567.504 791.997 568.394 792.958 569.494 792.958 C 570.594 792.958 571.484 791.997 571.484 790.817 C 571.484 789.637 570.594 788.677 569.494 788.677 Z  M 572.754 783.807 C 571.804 783.807 571.034 784.637 571.034 785.658 C 571.034 786.677 571.804 787.507 572.754 787.507 C 573.704 787.507 574.474 786.677 574.474 785.658 C 574.474 784.637 573.704 783.807 572.754 783.807 Z  M 568.084 780.117 C 567.134 780.117 566.364 780.947 566.364 781.968 C 566.364 782.987 567.134 783.807 568.084 783.807 C 569.034 783.807 569.804 782.987 569.804 781.968 C 569.804 780.947 569.034 780.117 568.084 780.117 Z  M 569.314 772.038 C 568.364 772.038 567.594 772.857 567.594 773.877 C 567.594 774.898 568.364 775.728 569.314 775.728 C 570.264 775.728 571.034 774.898 571.034 773.877 C 571.034 772.857 570.264 772.038 569.314 772.038 Z  M 566.364 765.937 C 565.414 765.937 564.644 766.768 564.644 767.788 C 564.644 768.797 565.414 769.627 566.364 769.627 C 567.314 769.627 568.084 768.797 568.084 767.788 C 568.084 766.768 567.314 765.937 566.364 765.937 Z  M 559.504 760.077 C 558.554 760.077 557.784 760.898 557.784 761.918 C 557.784 762.937 558.554 763.768 559.504 763.768 C 560.454 763.768 561.224 762.937 561.224 761.918 C 561.224 760.898 560.454 760.077 559.504 760.077 Z  M 556.484 752.278 C 555.384 752.278 554.494 753.237 554.494 754.418 C 554.494 755.598 555.384 756.557 556.484 756.557 C 557.584 756.557 558.474 755.598 558.474 754.418 C 558.474 753.237 557.584 752.278 556.484 752.278 Z  M 557.784 739.387 C 556.834 739.387 556.064 740.208 556.064 741.228 C 556.064 742.247 556.834 743.077 557.784 743.077 C 558.734 743.077 559.504 742.247 559.504 741.228 C 559.504 740.208 558.734 739.387 557.784 739.387 Z " fill-rule="evenodd" fill="url(#_lgradient_88)"/><path d=" M 528.654 670.528 C 528.654 670.528 527.444 673.557 519.414 703.028 C 511.324 732.747 505.134 765.458 490.194 765.458 C 475.254 765.458 453.914 738.788 448.124 731.848 C 442.324 724.908 433.174 725.507 430.194 718.697 C 428.334 714.447 428.834 702.937 427.614 701.478 C 426.394 700.018 423.264 705.538 423.264 707.737 C 423.264 709.288 427.424 722.487 424.074 718.468 C 420.714 714.447 406.354 698.718 403.504 698.718 C 400.664 698.718 420.304 720.718 419.294 724.127 C 418.274 727.538 390.094 716.018 386.334 717.968 C 382.564 719.908 416.924 729.658 416.004 733.668 C 415.094 737.687 390.704 742.677 392.424 747.427 C 394.154 752.177 414.734 739.947 416.414 741.947 C 418.094 743.958 403.824 757.437 406.754 760.947 C 407.924 762.348 418.754 747.918 421.794 747.307 C 424.844 746.697 443.344 749.018 443.344 749.018 C 443.344 749.018 486.234 800.528 501.784 798.338 C 517.334 796.137 538.434 715.317 540.574 700.338 C 542.704 685.357 528.654 670.528 528.654 670.528 Z " fill="rgb(114,60,25)"/><path d=" M 597.064 620.187 C 596.954 620.187 596.854 620.127 596.794 620.028 C 596.694 619.857 596.734 619.637 596.884 619.538 C 596.964 619.478 604.864 614.088 612.464 617.098 C 612.634 617.168 612.724 617.367 612.664 617.547 C 612.594 617.728 612.414 617.827 612.244 617.757 C 604.954 614.867 597.324 620.077 597.244 620.127 L 597.064 620.187 Z " fill="rgb(45,43,48)"/><path d=" M 597.554 624.127 C 597.454 624.127 597.344 624.067 597.284 623.968 C 597.184 623.807 597.224 623.588 597.384 623.478 C 597.454 623.427 605.364 618.028 612.964 621.038 C 613.134 621.107 613.214 621.307 613.154 621.487 C 613.094 621.677 612.904 621.768 612.734 621.697 C 605.434 618.807 597.814 624.018 597.734 624.067 L 597.554 624.127 Z " fill="rgb(45,43,48)"/><path d=" M 598.604 628.747 C 598.504 628.747 598.394 628.697 598.334 628.588 C 598.234 628.427 598.274 628.208 598.434 628.107 C 598.514 628.047 606.414 622.648 614.014 625.668 C 614.184 625.728 614.264 625.937 614.204 626.117 C 614.144 626.297 613.954 626.398 613.784 626.327 C 606.494 623.437 598.864 628.637 598.784 628.697 L 598.604 628.747 Z " fill="rgb(45,43,48)"/><path d=" M 603.994 632.028 C 603.904 632.028 603.804 631.978 603.744 631.898 C 603.684 631.817 597.784 624.007 599.714 615.557 C 599.754 615.367 599.934 615.247 600.104 615.297 C 600.284 615.348 600.394 615.538 600.344 615.718 C 598.504 623.827 604.184 631.377 604.244 631.447 C 604.364 631.598 604.344 631.817 604.204 631.947 L 603.994 632.028 Z " fill="rgb(45,43,48)"/><path d=" M 607.584 631.047 C 607.494 631.047 607.394 631.007 607.334 630.918 C 607.274 630.848 601.374 623.028 603.304 614.577 C 603.344 614.398 603.524 614.278 603.704 614.327 C 603.874 614.367 603.984 614.557 603.944 614.747 C 602.094 622.857 607.784 630.398 607.844 630.478 C 607.954 630.627 607.934 630.848 607.794 630.968 L 607.584 631.047 Z " fill="rgb(45,43,48)"/><path d=" M 611.744 629.408 C 611.654 629.408 611.554 629.357 611.494 629.278 C 611.434 629.197 605.544 621.387 607.464 612.937 C 607.514 612.747 607.684 612.627 607.864 612.677 C 608.034 612.728 608.144 612.918 608.104 613.098 C 606.254 621.218 611.944 628.757 612.004 628.827 C 612.114 628.978 612.094 629.197 611.954 629.327 L 611.744 629.408 Z " fill="rgb(45,43,48)"/><linearGradient id="_lgradient_89" x1="0" y1="0" x2="1" y2="0" gradientTransform="matrix(-59.35,395.668,-395.664,-59.35,605.274,758.297)" gradientUnits="userSpaceOnUse"><stop offset="0%" stop-opacity="1" style="stop-color:rgb(209,126,35)"/><stop offset="100%" stop-opacity="1" style="stop-color:rgb(220,169,71)"/></linearGradient><path d=" M 561.494 831.377 C 560.394 831.377 559.504 830.427 559.504 829.237 C 559.504 828.057 560.394 827.107 561.494 827.107 C 562.594 827.107 563.484 828.057 563.484 829.237 C 563.484 830.427 562.594 831.377 561.494 831.377 Z " fill="url(#_lgradient_89)"/><linearGradient id="_lgradient_90" x1="0" y1="0" x2="1" y2="0" gradientTransform="matrix(-59.35,395.668,-395.664,-59.35,605.274,758.296)" gradientUnits="userSpaceOnUse"><stop offset="0%" stop-opacity="1" style="stop-color:rgb(209,126,35)"/><stop offset="100%" stop-opacity="1" style="stop-color:rgb(220,169,71)"/></linearGradient><path d=" M 635.794 987.868 C 634.694 987.868 633.804 986.917 633.804 985.727 C 633.804 984.547 634.694 983.597 635.794 983.597 C 636.894 983.597 637.784 984.547 637.784 985.727 C 637.784 986.917 636.894 987.868 635.794 987.868 Z " fill="url(#_lgradient_90)"/><linearGradient id="_lgradient_91" x1="0" y1="0" x2="1" y2="0" gradientTransform="matrix(-59.352,395.663,-395.676,-59.35,605.275,758.298)" gradientUnits="userSpaceOnUse"><stop offset="0%" stop-opacity="1" style="stop-color:rgb(221,161,26)"/><stop offset="100%" stop-opacity="1" style="stop-color:rgb(229,192,52)"/></linearGradient><path d=" M 560.224 844.627 C 559.124 844.627 558.234 843.668 558.234 842.487 C 558.234 841.307 559.124 840.348 560.224 840.348 C 561.324 840.348 562.214 841.307 562.214 842.487 C 562.214 843.668 561.324 844.627 560.224 844.627 Z " fill="url(#_lgradient_91)"/><linearGradient id="_lgradient_92" x1="0" y1="0" x2="1" y2="0" gradientTransform="matrix(-59.35,395.663,-395.664,-59.35,605.274,758.297)" gradientUnits="userSpaceOnUse"><stop offset="0%" stop-opacity="1" style="stop-color:rgb(221,161,26)"/><stop offset="100%" stop-opacity="1" style="stop-color:rgb(229,192,52)"/></linearGradient><path d=" M 556.484 756.557 C 555.384 756.557 554.494 755.598 554.494 754.418 C 554.494 753.237 555.384 752.278 556.484 752.278 C 557.584 752.278 558.474 753.237 558.474 754.418 C 558.474 755.598 557.584 756.557 556.484 756.557 Z " fill="url(#_lgradient_92)"/><linearGradient id="_lgradient_93" x1="0" y1="0" x2="1" y2="0" gradientTransform="matrix(-59.35,395.665,-395.665,-59.35,605.274,758.298)" gradientUnits="userSpaceOnUse"><stop offset="0%" stop-opacity="1" style="stop-color:rgb(221,161,26)"/><stop offset="100%" stop-opacity="1" style="stop-color:rgb(229,192,52)"/></linearGradient><path d=" M 552.774 886.567 C 551.664 886.567 550.774 885.618 550.774 884.428 C 550.774 883.247 551.664 882.297 552.774 882.297 C 553.874 882.297 554.764 883.247 554.764 884.428 C 554.764 885.618 553.874 886.567 552.774 886.567 Z " fill="url(#_lgradient_93)"/><linearGradient id="_lgradient_94" x1="0" y1="0" x2="1" y2="0" gradientTransform="matrix(-59.35,395.668,-395.664,-59.35,605.274,758.297)" gradientUnits="userSpaceOnUse"><stop offset="0%" stop-opacity="1" style="stop-color:rgb(221,161,26)"/><stop offset="100%" stop-opacity="1" style="stop-color:rgb(229,192,52)"/></linearGradient><path d=" M 633.804 924.518 C 632.704 924.518 631.814 923.567 631.814 922.387 C 631.814 921.197 632.704 920.247 633.804 920.247 C 634.904 920.247 635.794 921.197 635.794 922.387 C 635.794 923.567 634.904 924.518 633.804 924.518 Z " fill="url(#_lgradient_94)"/><linearGradient id="_lgradient_95" x1="0" y1="0" x2="1" y2="0" gradientTransform="matrix(-59.35,395.665,-395.664,-59.35,605.274,758.298)" gradientUnits="userSpaceOnUse"><stop offset="0%" stop-opacity="1" style="stop-color:rgb(221,161,26)"/><stop offset="100%" stop-opacity="1" style="stop-color:rgb(229,192,52)"/></linearGradient><path d=" M 634.674 902.627 C 633.574 902.627 632.684 901.678 632.684 900.497 C 632.684 899.308 633.574 898.357 634.674 898.357 C 635.774 898.357 636.664 899.308 636.664 900.497 C 636.664 901.678 635.774 902.627 634.674 902.627 Z " fill="url(#_lgradient_95)"/><linearGradient id="_lgradient_96" x1="0" y1="0" x2="1" y2="0" gradientTransform="matrix(-59.35,395.663,-395.665,-59.35,605.274,758.298)" gradientUnits="userSpaceOnUse"><stop offset="0%" stop-opacity="1" style="stop-color:rgb(209,126,35)"/><stop offset="100%" stop-opacity="1" style="stop-color:rgb(220,169,71)"/></linearGradient><path d=" M 567.504 845.447 C 566.404 845.447 565.504 844.487 565.504 843.307 C 565.504 842.127 566.404 841.168 567.504 841.168 C 568.604 841.168 569.494 842.127 569.494 843.307 C 569.494 844.487 568.604 845.447 567.504 845.447 Z " fill="url(#_lgradient_96)"/><linearGradient id="_lgradient_97" x1="0" y1="0" x2="1" y2="0" gradientTransform="matrix(-59.35,395.663,-395.665,-59.35,605.274,758.298)" gradientUnits="userSpaceOnUse"><stop offset="0%" stop-opacity="1" style="stop-color:rgb(209,126,35)"/><stop offset="100%" stop-opacity="1" style="stop-color:rgb(220,169,71)"/></linearGradient><path d=" M 544.994 871.067 C 543.894 871.067 542.994 870.107 542.994 868.927 C 542.994 867.747 543.894 866.788 544.994 866.788 C 546.094 866.788 546.984 867.747 546.984 868.927 C 546.984 870.107 546.094 871.067 544.994 871.067 Z " fill="url(#_lgradient_97)"/><linearGradient id="_lgradient_98" x1="0" y1="0" x2="1" y2="0" gradientTransform="matrix(-59.35,395.662,-395.665,-59.35,605.274,758.299)" gradientUnits="userSpaceOnUse"><stop offset="0%" stop-opacity="1" style="stop-color:rgb(209,126,35)"/><stop offset="100%" stop-opacity="1" style="stop-color:rgb(220,169,71)"/></linearGradient><path d=" M 556.214 868.057 C 555.114 868.057 554.214 867.098 554.214 865.918 C 554.214 864.737 555.114 863.788 556.214 863.788 C 557.314 863.788 558.204 864.737 558.204 865.918 C 558.204 867.098 557.314 868.057 556.214 868.057 Z " fill="url(#_lgradient_98)"/><linearGradient id="_lgradient_99" x1="0" y1="0" x2="1" y2="0" gradientTransform="matrix(-59.35,395.663,-395.665,-59.35,605.274,758.298)" gradientUnits="userSpaceOnUse"><stop offset="0%" stop-opacity="1" style="stop-color:rgb(209,126,35)"/><stop offset="100%" stop-opacity="1" style="stop-color:rgb(220,169,71)"/></linearGradient><path d=" M 554.494 837.507 C 553.394 837.507 552.494 836.547 552.494 835.367 C 552.494 834.187 553.394 833.228 554.494 833.228 C 555.584 833.228 556.484 834.187 556.484 835.367 C 556.484 836.547 555.584 837.507 554.494 837.507 Z " fill="url(#_lgradient_99)"/><linearGradient id="_lgradient_100" x1="0" y1="0" x2="1" y2="0" gradientTransform="matrix(-59.35,395.669,-395.664,-59.351,605.274,758.297)" gradientUnits="userSpaceOnUse"><stop offset="0%" stop-opacity="1" style="stop-color:rgb(209,126,35)"/><stop offset="100%" stop-opacity="1" style="stop-color:rgb(220,169,71)"/></linearGradient><path d=" M 569.494 792.958 C 568.394 792.958 567.504 791.997 567.504 790.817 C 567.504 789.637 568.394 788.677 569.494 788.677 C 570.594 788.677 571.484 789.637 571.484 790.817 C 571.484 791.997 570.594 792.958 569.494 792.958 Z " fill="url(#_lgradient_100)"/><linearGradient id="_lgradient_101" x1="0" y1="0" x2="1" y2="0" gradientTransform="matrix(-59.35,395.666,-395.667,-59.35,605.274,758.298)" gradientUnits="userSpaceOnUse"><stop offset="0%" stop-opacity="1" style="stop-color:rgb(209,126,35)"/><stop offset="100%" stop-opacity="1" style="stop-color:rgb(220,169,71)"/></linearGradient><path d=" M 572.754 824.958 C 570.954 824.958 569.494 823.398 569.494 821.458 C 569.494 819.528 570.954 817.958 572.754 817.958 C 574.554 817.958 576.014 819.528 576.014 821.458 C 576.014 823.398 574.554 824.958 572.754 824.958 Z " fill="url(#_lgradient_101)"/><linearGradient id="_lgradient_102" x1="0" y1="0" x2="1" y2="0" gradientTransform="matrix(-59.35,395.666,-395.667,-59.35,605.274,758.298)" gradientUnits="userSpaceOnUse"><stop offset="0%" stop-opacity="1" style="stop-color:rgb(209,126,35)"/><stop offset="100%" stop-opacity="1" style="stop-color:rgb(220,169,71)"/></linearGradient><path d=" M 576.014 803.288 C 574.214 803.288 572.754 801.718 572.754 799.788 C 572.754 797.857 574.214 796.288 576.014 796.288 C 577.814 796.288 579.274 797.857 579.274 799.788 C 579.274 801.718 577.814 803.288 576.014 803.288 Z " fill="url(#_lgradient_102)"/><linearGradient id="_lgradient_103" x1="0" y1="0" x2="1" y2="0" gradientTransform="matrix(-59.35,395.666,-395.667,-59.35,605.274,758.298)" gradientUnits="userSpaceOnUse"><stop offset="0%" stop-opacity="1" style="stop-color:rgb(209,126,35)"/><stop offset="100%" stop-opacity="1" style="stop-color:rgb(220,169,71)"/></linearGradient><path d=" M 561.494 853.468 C 559.694 853.468 558.234 851.898 558.234 849.968 C 558.234 848.028 559.694 846.468 561.494 846.468 C 563.294 846.468 564.754 848.028 564.754 849.968 C 564.754 851.898 563.294 853.468 561.494 853.468 Z " fill="url(#_lgradient_103)"/><linearGradient id="_lgradient_104" x1="0" y1="0" x2="1" y2="0" gradientTransform="matrix(-59.35,395.665,-395.668,-59.35,605.274,758.298)" gradientUnits="userSpaceOnUse"><stop offset="0%" stop-opacity="1" style="stop-color:rgb(209,126,35)"/><stop offset="100%" stop-opacity="1" style="stop-color:rgb(220,169,71)"/></linearGradient><path d=" M 628.544 891.437 C 626.744 891.437 625.284 889.868 625.284 887.937 C 625.284 885.997 626.744 884.428 628.544 884.428 C 630.344 884.428 631.814 885.997 631.814 887.937 C 631.814 889.868 630.344 891.437 628.544 891.437 Z " fill="url(#_lgradient_104)"/><linearGradient id="_lgradient_105" x1="0" y1="0" x2="1" y2="0" gradientTransform="matrix(-59.35,395.667,-395.667,-59.35,605.274,758.297)" gradientUnits="userSpaceOnUse"><stop offset="0%" stop-opacity="1" style="stop-color:rgb(209,126,35)"/><stop offset="100%" stop-opacity="1" style="stop-color:rgb(220,169,71)"/></linearGradient><path d=" M 550.244 863.788 C 548.444 863.788 546.984 862.218 546.984 860.278 C 546.984 858.348 548.444 856.778 550.244 856.778 C 552.044 856.778 553.504 858.348 553.504 860.278 C 553.504 862.218 552.044 863.788 550.244 863.788 Z " fill="url(#_lgradient_105)"/><linearGradient id="_lgradient_106" x1="0" y1="0" x2="1" y2="0" gradientTransform="matrix(-59.35,395.666,-395.668,-59.35,605.274,758.297)" gradientUnits="userSpaceOnUse"><stop offset="0%" stop-opacity="1" style="stop-color:rgb(209,126,35)"/><stop offset="100%" stop-opacity="1" style="stop-color:rgb(220,169,71)"/></linearGradient><path d=" M 630.694 967.377 C 628.884 967.377 627.424 965.808 627.424 963.877 C 627.424 961.937 628.884 960.377 630.694 960.377 C 632.494 960.377 633.954 961.937 633.954 963.877 C 633.954 965.808 632.494 967.377 630.694 967.377 Z " fill="url(#_lgradient_106)"/><linearGradient id="_lgradient_107" x1="0" y1="0" x2="1" y2="0" gradientTransform="matrix(-59.349,395.666,-395.659,-59.35,605.274,758.297)" gradientUnits="userSpaceOnUse"><stop offset="0%" stop-opacity="1" style="stop-color:rgb(222,163,25)"/><stop offset="100%" stop-opacity="1" style="stop-color:rgb(230,193,51)"/></linearGradient><path d=" M 571.034 833.228 C 570.084 833.228 569.314 832.398 569.314 831.377 C 569.314 830.357 570.084 829.538 571.034 829.538 C 571.984 829.538 572.754 830.357 572.754 831.377 C 572.754 832.398 571.984 833.228 571.034 833.228 Z " fill="url(#_lgradient_107)"/><linearGradient id="_lgradient_108" x1="0" y1="0" x2="1" y2="0" gradientTransform="matrix(-59.349,395.667,-395.659,-59.35,605.274,758.297)" gradientUnits="userSpaceOnUse"><stop offset="0%" stop-opacity="1" style="stop-color:rgb(222,163,25)"/><stop offset="100%" stop-opacity="1" style="stop-color:rgb(230,193,51)"/></linearGradient><path d=" M 572.754 787.507 C 571.804 787.507 571.034 786.677 571.034 785.658 C 571.034 784.637 571.804 783.807 572.754 783.807 C 573.704 783.807 574.474 784.637 574.474 785.658 C 574.474 786.677 573.704 787.507 572.754 787.507 Z " fill="url(#_lgradient_108)"/><linearGradient id="_lgradient_109" x1="0" y1="0" x2="1" y2="0" gradientTransform="matrix(-59.349,395.666,-395.659,-59.35,605.274,758.297)" gradientUnits="userSpaceOnUse"><stop offset="0%" stop-opacity="1" style="stop-color:rgb(222,163,25)"/><stop offset="100%" stop-opacity="1" style="stop-color:rgb(230,193,51)"/></linearGradient><path d=" M 572.754 813.588 C 571.804 813.588 571.034 812.768 571.034 811.747 C 571.034 810.728 571.804 809.898 572.754 809.898 C 573.704 809.898 574.474 810.728 574.474 811.747 C 574.474 812.768 573.704 813.588 572.754 813.588 Z " fill="url(#_lgradient_109)"/><linearGradient id="_lgradient_110" x1="0" y1="0" x2="1" y2="0" gradientTransform="matrix(-59.349,395.664,-395.659,-59.35,605.275,758.298)" gradientUnits="userSpaceOnUse"><stop offset="0%" stop-opacity="1" style="stop-color:rgb(222,163,25)"/><stop offset="100%" stop-opacity="1" style="stop-color:rgb(230,193,51)"/></linearGradient><path d=" M 634.674 940.727 C 633.724 940.727 632.954 939.898 632.954 938.877 C 632.954 937.857 633.724 937.028 634.674 937.028 C 635.624 937.028 636.394 937.857 636.394 938.877 C 636.394 939.898 635.624 940.727 634.674 940.727 Z " fill="url(#_lgradient_110)"/><linearGradient id="_lgradient_111" x1="0" y1="0" x2="1" y2="0" gradientTransform="matrix(-59.351,395.667,-395.673,-59.35,605.275,758.297)" gradientUnits="userSpaceOnUse"><stop offset="0%" stop-opacity="1" style="stop-color:rgb(190,73,49)"/><stop offset="100%" stop-opacity="1" style="stop-color:rgb(205,133,101)"/></linearGradient><path d=" M 550.244 852.807 C 549.294 852.807 548.524 851.978 548.524 850.958 C 548.524 849.937 549.294 849.107 550.244 849.107 C 551.194 849.107 551.964 849.937 551.964 850.958 C 551.964 851.978 551.194 852.807 550.244 852.807 Z " fill="url(#_lgradient_111)"/><linearGradient id="_lgradient_112" x1="0" y1="0" x2="1" y2="0" gradientTransform="matrix(-59.349,395.666,-395.659,-59.35,605.275,758.297)" gradientUnits="userSpaceOnUse"><stop offset="0%" stop-opacity="1" style="stop-color:rgb(190,73,49)"/><stop offset="100%" stop-opacity="1" style="stop-color:rgb(205,133,101)"/></linearGradient><path d=" M 635.794 971.067 C 634.844 971.067 634.074 970.238 634.074 969.217 C 634.074 968.197 634.844 967.377 635.794 967.377 C 636.744 967.377 637.514 968.197 637.514 969.217 C 637.514 970.238 636.744 971.067 635.794 971.067 Z " fill="url(#_lgradient_112)"/><linearGradient id="_lgradient_113" x1="0" y1="0" x2="1" y2="0" gradientTransform="matrix(-59.351,395.666,-395.673,-59.35,605.275,758.297)" gradientUnits="userSpaceOnUse"><stop offset="0%" stop-opacity="1" style="stop-color:rgb(190,73,49)"/><stop offset="100%" stop-opacity="1" style="stop-color:rgb(205,133,101)"/></linearGradient><path d=" M 552.494 872.617 C 551.544 872.617 550.774 871.797 550.774 870.778 C 550.774 869.757 551.544 868.927 552.494 868.927 C 553.444 868.927 554.214 869.757 554.214 870.778 C 554.214 871.797 553.444 872.617 552.494 872.617 Z " fill="url(#_lgradient_113)"/><linearGradient id="_lgradient_114" x1="0" y1="0" x2="1" y2="0" gradientTransform="matrix(-59.349,395.667,-395.66,-59.35,605.274,758.297)" gradientUnits="userSpaceOnUse"><stop offset="0%" stop-opacity="1" style="stop-color:rgb(190,73,49)"/><stop offset="100%" stop-opacity="1" style="stop-color:rgb(205,133,101)"/></linearGradient><path d=" M 626.644 901.268 C 624.944 901.268 623.564 899.787 623.564 897.967 C 623.564 896.137 624.944 894.657 626.644 894.657 C 628.344 894.657 629.724 896.137 629.724 897.967 C 629.724 899.787 628.344 901.268 626.644 901.268 Z " fill="url(#_lgradient_114)"/><linearGradient id="_lgradient_115" x1="0" y1="0" x2="1" y2="0" gradientTransform="matrix(-59.349,395.666,-395.66,-59.35,605.274,758.297)" gradientUnits="userSpaceOnUse"><stop offset="0%" stop-opacity="1" style="stop-color:rgb(190,73,49)"/><stop offset="100%" stop-opacity="1" style="stop-color:rgb(205,133,101)"/></linearGradient><path d=" M 626.644 942.178 C 624.944 942.178 623.564 940.708 623.564 938.877 C 623.564 937.058 624.944 935.577 626.644 935.577 C 628.344 935.577 629.724 937.058 629.724 938.877 C 629.724 940.708 628.344 942.178 626.644 942.178 Z " fill="url(#_lgradient_115)"/><linearGradient id="_lgradient_116" x1="0" y1="0" x2="1" y2="0" gradientTransform="matrix(-59.349,395.666,-395.659,-59.35,605.273,758.297)" gradientUnits="userSpaceOnUse"><stop offset="0%" stop-opacity="1" style="stop-color:rgb(190,73,49)"/><stop offset="100%" stop-opacity="1" style="stop-color:rgb(205,133,101)"/></linearGradient><path d=" M 559.504 763.768 C 558.554 763.768 557.784 762.937 557.784 761.918 C 557.784 760.898 558.554 760.077 559.504 760.077 C 560.454 760.077 561.224 760.898 561.224 761.918 C 561.224 762.937 560.454 763.768 559.504 763.768 Z " fill="url(#_lgradient_116)"/><linearGradient id="_lgradient_117" x1="0" y1="0" x2="1" y2="0" gradientTransform="matrix(-59.349,395.666,-395.659,-59.35,605.273,758.297)" gradientUnits="userSpaceOnUse"><stop offset="0%" stop-opacity="1" style="stop-color:rgb(190,73,49)"/><stop offset="100%" stop-opacity="1" style="stop-color:rgb(205,133,101)"/></linearGradient><path d=" M 551.784 845.768 C 550.834 845.768 550.064 844.947 550.064 843.927 C 550.064 842.908 550.834 842.077 551.784 842.077 C 552.734 842.077 553.504 842.908 553.504 843.927 C 553.504 844.947 552.734 845.768 551.784 845.768 Z " fill="url(#_lgradient_117)"/><linearGradient id="_lgradient_118" x1="0" y1="0" x2="1" y2="0" gradientTransform="matrix(-59.351,395.666,-395.673,-59.35,605.274,758.297)" gradientUnits="userSpaceOnUse"><stop offset="0%" stop-opacity="1" style="stop-color:rgb(190,73,49)"/><stop offset="100%" stop-opacity="1" style="stop-color:rgb(205,133,101)"/></linearGradient><path d=" M 630.694 914.088 C 629.744 914.088 628.974 913.268 628.974 912.247 C 628.974 911.227 629.744 910.398 630.694 910.398 C 631.644 910.398 632.414 911.227 632.414 912.247 C 632.414 913.268 631.644 914.088 630.694 914.088 Z " fill="url(#_lgradient_118)"/><linearGradient id="_lgradient_119" x1="0" y1="0" x2="1" y2="0" gradientTransform="matrix(-59.349,395.666,-395.659,-59.35,605.274,758.297)" gradientUnits="userSpaceOnUse"><stop offset="0%" stop-opacity="1" style="stop-color:rgb(190,73,49)"/><stop offset="100%" stop-opacity="1" style="stop-color:rgb(205,133,101)"/></linearGradient><path d=" M 576.014 793.898 C 575.064 793.898 574.294 793.067 574.294 792.047 C 574.294 791.028 575.064 790.208 576.014 790.208 C 576.964 790.208 577.734 791.028 577.734 792.047 C 577.734 793.067 576.964 793.898 576.014 793.898 Z " fill="url(#_lgradient_119)"/><linearGradient id="_lgradient_120" x1="0" y1="0" x2="1" y2="0" gradientTransform="matrix(-59.351,395.666,-395.673,-59.35,605.275,758.297)" gradientUnits="userSpaceOnUse"><stop offset="0%" stop-opacity="1" style="stop-color:rgb(190,73,49)"/><stop offset="100%" stop-opacity="1" style="stop-color:rgb(205,133,101)"/></linearGradient><path d=" M 566.364 769.627 C 565.414 769.627 564.644 768.797 564.644 767.788 C 564.644 766.768 565.414 765.937 566.364 765.937 C 567.314 765.937 568.084 766.768 568.084 767.788 C 568.084 768.797 567.314 769.627 566.364 769.627 Z " fill="url(#_lgradient_120)"/><linearGradient id="_lgradient_121" x1="0" y1="0" x2="1" y2="0" gradientTransform="matrix(-59.35,395.663,-395.665,-59.35,605.274,758.298)" gradientUnits="userSpaceOnUse"><stop offset="0%" stop-opacity="1" style="stop-color:rgb(190,73,49)"/><stop offset="100%" stop-opacity="1" style="stop-color:rgb(205,133,101)"/></linearGradient><path d=" M 564.884 827.057 C 563.574 827.057 562.514 825.918 562.514 824.518 C 562.514 823.107 563.574 821.968 564.884 821.968 C 566.194 821.968 567.254 823.107 567.254 824.518 C 567.254 825.918 566.194 827.057 564.884 827.057 Z " fill="url(#_lgradient_121)"/><linearGradient id="_lgradient_122" x1="0" y1="0" x2="1" y2="0" gradientTransform="matrix(-59.349,395.667,-395.659,-59.35,605.273,758.297)" gradientUnits="userSpaceOnUse"><stop offset="0%" stop-opacity="1" style="stop-color:rgb(222,163,25)"/><stop offset="100%" stop-opacity="1" style="stop-color:rgb(230,193,51)"/></linearGradient><path d=" M 564.644 838.418 C 563.694 838.418 562.924 837.588 562.924 836.567 C 562.924 835.547 563.694 834.718 564.644 834.718 C 565.594 834.718 566.364 835.547 566.364 836.567 C 566.364 837.588 565.594 838.418 564.644 838.418 Z " fill="url(#_lgradient_122)"/><linearGradient id="_lgradient_123" x1="0" y1="0" x2="1" y2="0" gradientTransform="matrix(-59.349,395.666,-395.659,-59.35,605.274,758.298)" gradientUnits="userSpaceOnUse"><stop offset="0%" stop-opacity="1" style="stop-color:rgb(222,163,25)"/><stop offset="100%" stop-opacity="1" style="stop-color:rgb(230,193,51)"/></linearGradient><path d=" M 569.314 775.728 C 568.364 775.728 567.594 774.898 567.594 773.877 C 567.594 772.857 568.364 772.038 569.314 772.038 C 570.264 772.038 571.034 772.857 571.034 773.877 C 571.034 774.898 570.264 775.728 569.314 775.728 Z " fill="url(#_lgradient_123)"/><linearGradient id="_lgradient_124" x1="0" y1="0" x2="1" y2="0" gradientTransform="matrix(-59.351,395.666,-395.673,-59.35,605.275,758.297)" gradientUnits="userSpaceOnUse"><stop offset="0%" stop-opacity="1" style="stop-color:rgb(222,163,25)"/><stop offset="100%" stop-opacity="1" style="stop-color:rgb(230,193,51)"/></linearGradient><path d=" M 568.084 783.807 C 567.134 783.807 566.364 782.987 566.364 781.968 C 566.364 780.947 567.134 780.117 568.084 780.117 C 569.034 780.117 569.804 780.947 569.804 781.968 C 569.804 782.987 569.034 783.807 568.084 783.807 Z " fill="url(#_lgradient_124)"/><linearGradient id="_lgradient_125" x1="0" y1="0" x2="1" y2="0" gradientTransform="matrix(-59.349,395.666,-395.659,-59.35,605.273,758.298)" gradientUnits="userSpaceOnUse"><stop offset="0%" stop-opacity="1" style="stop-color:rgb(222,163,25)"/><stop offset="100%" stop-opacity="1" style="stop-color:rgb(230,193,51)"/></linearGradient><path d=" M 557.784 743.077 C 556.834 743.077 556.064 742.247 556.064 741.228 C 556.064 740.208 556.834 739.387 557.784 739.387 C 558.734 739.387 559.504 740.208 559.504 741.228 C 559.504 742.247 558.734 743.077 557.784 743.077 Z " fill="url(#_lgradient_125)"/><linearGradient id="_lgradient_126" x1="0" y1="0" x2="1" y2="0" gradientTransform="matrix(-59.349,395.67,-395.659,-59.351,605.273,758.296)" gradientUnits="userSpaceOnUse"><stop offset="0%" stop-opacity="1" style="stop-color:rgb(222,163,25)"/><stop offset="100%" stop-opacity="1" style="stop-color:rgb(230,193,51)"/></linearGradient><path d=" M 550.064 877.808 C 549.114 877.808 548.344 876.977 548.344 875.958 C 548.344 874.937 549.114 874.117 550.064 874.117 C 551.014 874.117 551.784 874.937 551.784 875.958 C 551.784 876.977 551.014 877.808 550.064 877.808 Z " fill="url(#_lgradient_126)"/></g></svg>